<svg width="153" height="110" viewBox="0 0 153 110" fill="none" xmlns="http://www.w3.org/2000/svg">
<path d="M10.1945 104.762H4.83252V103.362H10.1945V104.762ZM10.1945 102.242H4.83252V100.814H3.40452V105.924H11.6225V100.814H10.1945V102.242ZM4.62252 98.728C3.50252 98.728 2.70452 98.014 2.70452 96.95C2.70452 95.872 3.50252 95.186 4.62252 95.186C5.71452 95.186 6.52652 95.872 6.52652 96.95C6.52652 98.014 5.71452 98.728 4.62252 98.728ZM10.1805 93.436V96.348H7.84252C7.56252 94.934 6.28852 93.996 4.62252 93.996C2.71852 93.996 1.31852 95.214 1.31852 96.95C1.31852 98.7 2.71852 99.918 4.62252 99.918C6.30252 99.918 7.59052 98.952 7.84252 97.524H10.1805V100.212H11.6225V93.436H10.1805ZM20.4554 103.404V101.248H24.4034V100.086H16.8294V98.322H24.1234V94.318H15.3874V95.48H22.6954V97.174H15.4154V101.248H19.0134V103.404H14.0294V104.594H25.4814V103.404H20.4554ZM37.0723 99.4H29.7503V95.718H36.9743V94.542H28.3083V100.562H37.0723V99.4ZM26.9083 103.264V104.454H38.3743V103.264H26.9083ZM50.2032 93.422H48.7612V102.928H50.2032V93.422ZM47.8652 99.904C46.8572 100.016 45.7932 100.086 44.7012 100.128V98.63H47.0672V97.454H42.3632V95.396H46.9972V94.22H40.9212V98.63H43.2592V100.184C42.0552 100.226 40.8792 100.24 39.8292 100.24L40.0252 101.402C42.3772 101.402 45.3032 101.332 47.9632 100.954L47.8652 99.904ZM43.3152 104.664V102.27H41.8732V105.84H50.5952V104.664H43.3152ZM57.3507 97.202C57.3507 96.096 58.1627 95.368 59.2827 95.368C60.3747 95.368 61.1867 96.096 61.1867 97.202C61.1867 98.294 60.3747 99.022 59.2827 99.022C58.1627 99.022 57.3507 98.294 57.3507 97.202ZM64.8407 96.348V98.056H62.4327C62.5167 97.79 62.5587 97.51 62.5587 97.202C62.5587 96.894 62.5167 96.614 62.4467 96.348H64.8407ZM64.8407 99.218V100.884H66.2827V93.422H64.8407V95.172H61.7887C61.2007 94.542 60.3187 94.15 59.2827 94.15C57.3927 94.15 55.9787 95.41 55.9787 97.202C55.9787 98.98 57.3927 100.24 59.2827 100.24C60.3047 100.24 61.2007 99.862 61.7887 99.218H64.8407ZM62.0687 104.944C60.2767 104.944 59.2267 104.482 59.2267 103.614C59.2267 102.774 60.2767 102.298 62.0687 102.298C63.8747 102.298 64.9107 102.774 64.9107 103.614C64.9107 104.482 63.8747 104.944 62.0687 104.944ZM62.0687 101.164C59.4367 101.164 57.8127 102.074 57.8127 103.614C57.8127 105.168 59.4367 106.078 62.0687 106.078C64.7007 106.078 66.3387 105.168 66.3387 103.614C66.3387 102.074 64.7007 101.164 62.0687 101.164ZM76.0396 99.218C74.1636 98.602 73.0856 97.062 73.0856 95.438V94.08H71.6296V95.326C71.6296 97.146 70.5516 98.868 68.5636 99.554L69.3336 100.702C70.7896 100.17 71.8256 99.078 72.3856 97.706C72.9176 98.896 73.9256 99.862 75.2836 100.352L76.0396 99.218ZM74.4856 104.944C72.7216 104.944 71.6996 104.51 71.6996 103.698C71.6996 102.914 72.7216 102.466 74.4856 102.466C76.2496 102.466 77.2716 102.914 77.2716 103.698C77.2716 104.51 76.2496 104.944 74.4856 104.944ZM74.4856 101.332C71.8816 101.332 70.2716 102.214 70.2716 103.698C70.2716 105.196 71.8816 106.078 74.4856 106.078C77.1036 106.078 78.6996 105.196 78.6996 103.698C78.6996 102.214 77.1036 101.332 74.4856 101.332ZM78.5596 96.558V93.422H77.1176V101.024H78.5596V97.748H80.3516V96.558H78.5596ZM90.5145 93.422V106.106H91.9705V93.422H90.5145ZM85.2365 94.36C83.3605 94.36 81.9885 96.096 81.9885 98.812C81.9885 101.556 83.3605 103.278 85.2365 103.278C87.1265 103.278 88.4985 101.556 88.4985 98.812C88.4985 96.096 87.1265 94.36 85.2365 94.36ZM85.2365 95.662C86.3425 95.662 87.1125 96.852 87.1125 98.812C87.1125 100.8 86.3425 101.99 85.2365 101.99C84.1445 101.99 83.3745 100.8 83.3745 98.812C83.3745 96.852 84.1445 95.662 85.2365 95.662ZM99.1459 96.894C99.1459 95.844 99.9439 95.158 101.05 95.158C102.156 95.158 102.968 95.844 102.968 96.894C102.968 97.958 102.156 98.658 101.05 98.658C99.9439 98.658 99.1459 97.958 99.1459 96.894ZM106.622 97.468V100.128H108.064V93.45H106.622V96.278H104.27C103.99 94.892 102.716 93.968 101.05 93.968C99.1599 93.968 97.7599 95.172 97.7599 96.894C97.7599 98.644 99.1599 99.848 101.05 99.848C102.73 99.848 104.004 98.896 104.284 97.468H106.622ZM102.156 104.818H100.35V103.348H102.156V104.818ZM102.156 100.856V102.284H100.35V100.856H99.0059V105.924H103.486V100.856H102.156ZM107.154 100.758H105.726V101.766C105.726 103.012 105.012 104.328 103.486 104.958L104.214 106.05C105.292 105.602 106.006 104.79 106.426 103.838C106.818 104.804 107.546 105.616 108.666 106.05L109.38 104.958C107.854 104.398 107.154 103.11 107.154 101.766V100.758ZM121.293 97.216C118.787 96.894 116.925 95.508 116.925 94.052V93.562H115.441V94.052C115.441 95.522 113.607 96.894 111.073 97.216L111.605 98.336C113.663 98.056 115.371 97.104 116.183 95.788C117.009 97.104 118.717 98.056 120.775 98.336L121.293 97.216ZM118.997 104.776H113.299V103.418H118.997V104.776ZM118.997 102.312H113.299V101.024H111.871V105.924H120.439V101.024H118.997V102.312ZM110.457 99.092V100.24H121.909V99.092H110.457ZM125.52 94.668H124.092V102.886H125.17C127.13 102.886 129.174 102.732 131.344 102.284L131.19 101.08C129.202 101.486 127.312 101.64 125.52 101.654V94.668ZM132.352 93.436V106.078H133.794V93.436H132.352ZM138.175 95.802H142.613V94.626H136.733V102.984H137.769C140.051 102.984 141.759 102.914 143.677 102.564L143.523 101.374C141.759 101.682 140.219 101.766 138.175 101.78V95.802ZM147.989 98.294H146.015V93.422H144.573V106.092H146.015V99.484H147.989V98.294ZM150.48 105.182C151.082 105.182 151.558 104.72 151.558 104.062C151.558 103.404 151.082 102.914 150.48 102.914C149.878 102.914 149.402 103.404 149.402 104.062C149.402 104.72 149.878 105.182 150.48 105.182Z" fill="#CBCBCB"/>
<path fill-rule="evenodd" clip-rule="evenodd" d="M51.4399 18.9819L93.4619 4.0265L93.472 4.05499C99.9482 2.25094 106.944 6.09234 109.388 12.9592C111.832 19.826 108.836 27.2234 102.676 29.9164L102.686 29.9446L101.94 30.21C101.92 30.2174 101.899 30.2249 101.878 30.2323C101.857 30.2397 101.837 30.247 101.816 30.2542L61.545 44.5864L61.4724 44.6125L61.3996 44.6382L60.664 44.9L60.654 44.8718C54.178 46.6757 47.1824 42.8343 44.7386 35.9676C42.2948 29.1008 45.2906 21.7036 51.4501 19.0105L51.4399 18.9819Z" fill="#C4C4C4" fill-opacity="0.5"/>
<path fill-rule="evenodd" clip-rule="evenodd" d="M50.314 54.5724L92.3373 39.6165L92.3476 39.6453C98.8239 37.8413 105.82 41.6826 108.264 48.5494C110.707 55.4162 107.711 62.8135 101.552 65.5067L101.561 65.5346L100.853 65.7866C100.82 65.7987 100.787 65.8107 100.753 65.8226C100.72 65.8345 100.687 65.8463 100.653 65.8578L60.3998 80.1838L60.3463 80.203L60.2926 80.2219L59.5381 80.4905L59.5281 80.4623C53.0518 82.2663 46.0559 78.4249 43.6121 71.5582C41.1682 64.6914 44.1643 57.294 50.3241 54.6009L50.314 54.5724Z" fill="#C4C4C4" fill-opacity="0.5"/>
<path fill-rule="evenodd" clip-rule="evenodd" d="M66.8048 21.3473L103.333 41.8446L103.389 41.8754L103.444 41.9064L104.188 42.324L104.173 42.3501C110.195 46.2698 112.22 54.2458 108.653 60.6024C106.473 64.4879 102.687 66.9053 98.593 67.4903L85.8895 71.1492C88.3066 68.3201 88.188 65.7924 86.0989 63.7195L49.14 42.9808L49.1548 42.9544C43.1335 39.0346 41.1086 31.0588 44.6753 24.7025C46.5807 21.3068 49.7121 19.0324 53.2043 18.1224L67.9599 13.0839C64.4835 15.3399 64.8911 19.7853 66.8048 21.3473Z" fill="#C4C4C4"/>
</svg>
