<svg width="39" height="39" viewBox="0 0 39 39" fill="none" xmlns="http://www.w3.org/2000/svg">
<path d="M26.8125 4.875C23.985 4.875 21.2713 6.19125 19.5 8.27125C17.7287 6.19125 15.015 4.875 12.1875 4.875C7.1825 4.875 3.25 8.8075 3.25 13.8125C3.25 19.955 8.775 24.96 17.1438 32.565L19.5 34.6938L21.8562 32.5488C30.225 24.96 35.75 19.955 35.75 13.8125C35.75 8.8075 31.8175 4.875 26.8125 4.875ZM19.6625 30.1438L19.5 30.3063L19.3375 30.1438C11.6025 23.14 6.5 18.5088 6.5 13.8125C6.5 10.5625 8.9375 8.125 12.1875 8.125C14.69 8.125 17.1275 9.73375 17.9887 11.96H21.0275C21.8725 9.73375 24.31 8.125 26.8125 8.125C30.0625 8.125 32.5 10.5625 32.5 13.8125C32.5 18.5088 27.3975 23.14 19.6625 30.1438Z" fill="#F3576C"/>
</svg>
