<svg width="74" height="26" viewBox="0 0 74 26" fill="none" xmlns="http://www.w3.org/2000/svg">
<path fill-rule="evenodd" clip-rule="evenodd" d="M17.2652 1.3329L4.88502 5.73893L4.85055 5.75101L4.81619 5.76342L4.60205 5.83963L4.60509 5.84818C2.71019 6.67663 1.78857 8.95225 2.54037 11.0647C3.29217 13.1771 5.44424 14.3588 7.43647 13.8038L7.43963 13.8127L20.3667 9.21204L20.3636 9.2033C22.2586 8.37489 23.1802 6.09922 22.4284 3.98677C21.6766 1.87431 19.5245 0.692591 17.5322 1.24763L17.5291 1.23895L17.2962 1.32185C17.291 1.32367 17.2858 1.3255 17.2807 1.32734C17.2755 1.32918 17.2703 1.33104 17.2652 1.3329Z" fill="#F3576C"/>
<path fill-rule="evenodd" clip-rule="evenodd" d="M4.25539 16.7881L17.1829 12.1873L17.186 12.196C19.1783 11.641 21.3305 12.8227 22.0823 14.9351C22.8342 17.0476 21.9124 19.3233 20.0174 20.1517L20.0205 20.1603L19.7949 20.2406C19.7873 20.2434 19.7797 20.2461 19.7721 20.2488C19.7644 20.2516 19.7568 20.2542 19.7491 20.2569L7.3746 24.6609L7.34138 24.6729L7.30805 24.6846L7.09297 24.7612L7.08993 24.7526C5.09758 25.3078 2.94533 24.126 2.1935 22.0136C1.44168 19.9011 2.36344 17.6253 4.25854 16.7969L4.25539 16.7881Z" fill="#F3576C"/>
<path fill-rule="evenodd" clip-rule="evenodd" d="M9.32813 6.5664L20.8286 13.0196L20.8238 13.028C22.6762 14.2339 23.2991 16.6874 22.2019 18.6428C21.5312 19.8382 20.3666 20.5818 19.107 20.7618L15.1993 21.8873C15.9432 21.0166 15.9063 20.2386 15.2628 19.6008L3.8944 13.2217L3.89896 13.2135C2.04673 12.0077 1.42382 9.55415 2.52103 7.59881C3.10714 6.55428 4.07036 5.85462 5.14455 5.57466L9.68385 4.02466C8.61462 4.71852 8.73974 6.08561 9.32813 6.5664Z" fill="#5DCCC6"/>
<g filter="url(#filter0_d_147_1974)">
<path d="M9.56967 4.08063C8.92229 4.68992 8.13021 6.137 10.1409 7.05094L16.5385 10.5925" stroke="black" stroke-opacity="0.01" stroke-width="0.5" shape-rendering="crispEdges"/>
</g>
<g filter="url(#filter1_d_147_1974)">
<path d="M7.85608 15.5051L15.2819 19.6178C15.6627 19.9225 16.1729 20.8059 15.1676 21.9027" stroke="black" stroke-opacity="0.01" stroke-width="0.5" shape-rendering="crispEdges"/>
</g>
<path d="M37.7005 20.4804C37.5805 20.507 37.3072 20.5204 36.8805 20.5204C36.4672 20.5337 35.9739 20.5404 35.4005 20.5404C34.8272 20.5404 34.2139 20.5337 33.5605 20.5204C32.9072 20.5204 32.2939 20.5137 31.7205 20.5004C31.1472 20.5004 30.6539 20.5004 30.2405 20.5004C29.8272 20.5004 29.5672 20.5004 29.4605 20.5004C29.1939 20.5004 28.9139 20.4804 28.6205 20.4404C28.3272 20.4004 28.0672 20.2937 27.8405 20.1204C27.6939 20.0004 27.5739 19.8537 27.4805 19.6804C27.4005 19.4937 27.3405 19.3137 27.3005 19.1404C27.2605 18.967 27.2339 18.8137 27.2205 18.6804C27.2072 18.547 27.2005 18.4737 27.2005 18.4604V16.8604C27.2005 16.6604 27.2005 16.467 27.2005 16.2804C27.2005 16.0804 27.2005 15.9004 27.2005 15.7404C27.2139 15.5804 27.2205 15.4537 27.2205 15.3604C27.2205 15.2537 27.2205 15.1937 27.2205 15.1804C27.2205 14.9937 27.2539 14.8204 27.3205 14.6604C27.3872 14.487 27.5139 14.3604 27.7005 14.2804C27.7939 14.2404 27.8939 14.2137 28.0005 14.2004C28.1205 14.187 28.2339 14.1737 28.3405 14.1604C28.5672 14.147 28.7939 14.187 29.0205 14.2804C29.2605 14.3604 29.4072 14.5337 29.4605 14.8004V15.5204C29.4872 15.7204 29.5339 15.8204 29.6005 15.8204C29.6672 15.807 29.7805 15.807 29.9405 15.8204H38.0405V15.1004C38.0539 14.8604 38.1072 14.6604 38.2005 14.5004C38.2939 14.327 38.4605 14.2204 38.7005 14.1804C38.8872 14.1404 39.1205 14.127 39.4005 14.1404C39.6805 14.1537 39.8939 14.227 40.0405 14.3604C40.1739 14.4804 40.2405 14.627 40.2405 14.8004C40.2405 14.9604 40.2405 15.1204 40.2405 15.2804C40.2139 15.8937 40.2139 16.527 40.2405 17.1804C40.2672 17.8204 40.2472 18.447 40.1805 19.0604C40.1672 19.247 40.1339 19.407 40.0805 19.5404C40.0272 19.6604 39.9472 19.7937 39.8405 19.9404C39.7339 20.1004 39.5872 20.2137 39.4005 20.2804C39.2272 20.347 39.0405 20.3937 38.8405 20.4204C38.6405 20.447 38.4405 20.4604 38.2405 20.4604C38.0405 20.4604 37.8605 20.467 37.7005 20.4804ZM34.4005 13.3004C34.2405 13.367 34.0739 13.4137 33.9005 13.4404C33.7405 13.4537 33.5739 13.4604 33.4005 13.4604H29.0805C28.7872 13.4604 28.4872 13.4604 28.1805 13.4604C27.8739 13.4604 27.5672 13.447 27.2605 13.4204C26.9672 13.407 26.7272 13.3004 26.5405 13.1004C26.3539 12.9004 26.2472 12.6337 26.2205 12.3004C26.2072 12.1804 26.1939 12.007 26.1805 11.7804C26.1805 11.5537 26.1739 11.3204 26.1605 11.0804C26.1605 10.8404 26.1605 10.6137 26.1605 10.4004C26.1605 10.187 26.1605 10.027 26.1605 9.92037V9.72037C26.1472 9.5737 26.1472 9.4137 26.1605 9.24037C26.1739 9.06703 26.2405 8.90703 26.3605 8.76037C26.5472 8.5337 26.8005 8.40037 27.1205 8.36037C27.4539 8.30703 27.7739 8.28037 28.0805 8.28037H32.6005V7.10037H28.6005C28.5205 7.10037 28.4405 7.10703 28.3605 7.12037C28.2805 7.12037 28.2005 7.12037 28.1205 7.12037C28.0405 7.1337 27.9539 7.14037 27.8605 7.14037C27.7805 7.14037 27.6939 7.14037 27.6005 7.14037C27.3339 7.14037 27.1005 7.12037 26.9005 7.08037C26.6739 7.02703 26.4872 6.88037 26.3405 6.64037C26.2472 6.48037 26.1872 6.30703 26.1605 6.12037C26.1339 5.92037 26.1472 5.7337 26.2005 5.56036C26.2672 5.3337 26.4205 5.16703 26.6605 5.06037C26.9005 4.94037 27.1005 4.86703 27.2605 4.84037C27.4605 4.80037 27.6805 4.78037 27.9205 4.78037H28.2805C28.3472 4.78037 28.4139 4.78703 28.4805 4.80037C28.5472 4.80037 28.6139 4.80037 28.6805 4.80037H32.7405C33.4339 4.80037 33.9672 4.94037 34.3405 5.22037C34.7272 5.50037 34.9205 5.8937 34.9205 6.40037V8.54037C34.9205 8.74037 34.8739 8.98703 34.7805 9.28037C34.7005 9.5737 34.5539 9.78703 34.3405 9.92037C34.1672 10.027 33.9872 10.0937 33.8005 10.1204C33.6272 10.1337 33.4472 10.1337 33.2605 10.1204H28.6405V11.4404H33.2005C33.3339 11.4404 33.4672 11.4404 33.6005 11.4404C33.7339 11.4404 33.8672 11.447 34.0005 11.4604C34.2272 11.4737 34.4139 11.5537 34.5605 11.7004C34.7205 11.847 34.8339 12.0204 34.9005 12.2204C35.0605 12.7404 34.8939 13.1004 34.4005 13.3004ZM37.4805 10.4404C37.0939 10.4137 36.7472 10.3937 36.4405 10.3804C36.1339 10.3537 35.8939 10.207 35.7205 9.94037C35.6405 9.80703 35.6005 9.64037 35.6005 9.44037C35.6005 9.24037 35.6139 9.06703 35.6405 8.92037C35.6805 8.7737 35.7539 8.6537 35.8605 8.56037C35.9672 8.4537 36.1539 8.36703 36.4205 8.30037C36.4739 8.28703 36.5739 8.28037 36.7205 8.28037C36.8672 8.26703 37.0205 8.2537 37.1805 8.24037C37.3539 8.22703 37.5139 8.22037 37.6605 8.22037C37.8072 8.20703 37.9072 8.20037 37.9605 8.20037V6.28037C37.9472 6.1337 37.9405 5.98703 37.9405 5.84037C37.9539 5.6937 37.9805 5.54703 38.0205 5.40037C38.0472 5.2937 38.0739 5.1937 38.1005 5.10036C38.1272 5.00703 38.1872 4.90703 38.2805 4.80037C38.3872 4.66703 38.5339 4.5737 38.7205 4.52037C38.9205 4.46703 39.1339 4.4537 39.3605 4.48037C39.7872 4.54703 40.0605 4.7137 40.1805 4.98037C40.2605 5.14037 40.3072 5.34037 40.3205 5.58037C40.3472 5.80703 40.3605 5.94703 40.3605 6.00037V12.3404H40.3405C40.3405 12.3537 40.3339 12.4004 40.3205 12.4804C40.3072 12.5604 40.2805 12.6604 40.2405 12.7804C40.2005 12.887 40.1405 13.0004 40.0605 13.1204C39.9805 13.2404 39.8739 13.3404 39.7405 13.4204C39.5539 13.527 39.3672 13.5804 39.1805 13.5804C38.9539 13.5804 38.7339 13.507 38.5205 13.3604C38.3605 13.2537 38.2472 13.1204 38.1805 12.9604C38.1005 12.8137 38.0472 12.667 38.0205 12.5204C37.9939 12.3737 37.9739 12.227 37.9605 12.0804V10.4404H37.4805ZM30.6405 17.6204C30.5205 17.6204 30.3872 17.6204 30.2405 17.6204C30.1072 17.607 29.9872 17.6137 29.8805 17.6404C29.7739 17.6537 29.6805 17.6937 29.6005 17.7604C29.5339 17.8137 29.5005 17.9004 29.5005 18.0204C29.5005 18.167 29.5072 18.2737 29.5205 18.3404C29.5872 18.567 29.6872 18.687 29.8205 18.7004C29.9672 18.7004 30.1272 18.6937 30.3005 18.6804C30.6739 18.6804 31.0805 18.687 31.5205 18.7004C31.9605 18.7004 32.3805 18.707 32.7805 18.7204C32.8205 18.7204 32.9472 18.7204 33.1605 18.7204C33.3872 18.7204 33.6539 18.7204 33.9605 18.7204C34.2805 18.707 34.6205 18.7004 34.9805 18.7004C35.3539 18.7004 35.6939 18.7004 36.0005 18.7004C36.3205 18.687 36.5872 18.6804 36.8005 18.6804C37.0272 18.6804 37.1605 18.6804 37.2005 18.6804C37.2672 18.6804 37.3472 18.687 37.4405 18.7004C37.5339 18.7137 37.6205 18.7137 37.7005 18.7004C37.7805 18.687 37.8472 18.6537 37.9005 18.6004C37.9539 18.547 37.9805 18.467 37.9805 18.3604C37.9805 18.2537 37.9872 18.1604 38.0005 18.0804C38.0139 18.0004 37.9805 17.9137 37.9005 17.8204C37.8072 17.7137 37.6939 17.6537 37.5605 17.6404C37.4405 17.627 37.3139 17.627 37.1805 17.6404C37.1672 17.6404 36.9939 17.6404 36.6605 17.6404C36.3272 17.6404 35.9205 17.6404 35.4405 17.6404C34.9605 17.6404 34.4405 17.6404 33.8805 17.6404C33.3205 17.627 32.8005 17.6204 32.3205 17.6204C31.8539 17.6204 31.4539 17.6204 31.1205 17.6204C30.8005 17.6204 30.6405 17.6204 30.6405 17.6204ZM55.491 17.0204C55.531 17.0337 55.571 17.0404 55.611 17.0404C55.651 17.027 55.691 17.0204 55.731 17.0204C55.9577 17.047 56.1643 17.0937 56.351 17.1604C56.551 17.2137 56.7443 17.327 56.931 17.5004C57.1177 17.6604 57.211 17.887 57.211 18.1804C57.211 18.327 57.1843 18.487 57.131 18.6604C57.091 18.8204 57.031 18.947 56.951 19.0404C56.8443 19.147 56.711 19.227 56.551 19.2804C56.4043 19.3337 56.251 19.3737 56.091 19.4004C55.9443 19.4137 55.811 19.4204 55.691 19.4204C55.5843 19.4204 55.5243 19.4204 55.511 19.4204H44.451C44.3843 19.4204 44.3177 19.427 44.251 19.4404C44.1977 19.4404 44.1377 19.4404 44.071 19.4404C43.7777 19.4537 43.471 19.4537 43.151 19.4404C42.831 19.4137 42.5577 19.307 42.331 19.1204C42.051 18.867 41.911 18.5804 41.911 18.2604C41.911 18.0604 41.971 17.8537 42.091 17.6404C42.211 17.427 42.371 17.2804 42.571 17.2004C42.8377 17.0937 43.111 17.0404 43.391 17.0404C43.6843 17.0404 43.9777 17.0337 44.271 17.0204H44.371C44.5977 17.0204 44.831 17.0204 45.071 17.0204C45.311 17.007 45.551 17.0004 45.791 17.0004C45.7777 16.947 45.771 16.8804 45.771 16.8004V16.7204V15.1804C45.771 15.0604 45.791 14.9337 45.831 14.8004C45.8577 14.6937 45.9043 14.5804 45.971 14.4604C46.051 14.3404 46.1643 14.227 46.311 14.1204C46.4843 14.0004 46.6777 13.927 46.891 13.9004C47.1043 13.8737 47.3043 13.8937 47.491 13.9604C47.691 14.027 47.8577 14.1404 47.991 14.3004C48.1377 14.447 48.2177 14.6337 48.231 14.8604C48.231 14.9537 48.231 15.087 48.231 15.2604C48.2443 15.4204 48.251 15.6004 48.251 15.8004C48.2643 15.987 48.271 16.187 48.271 16.4004C48.271 16.6137 48.271 16.8204 48.271 17.0204H50.191H50.411C50.3977 16.967 50.391 16.8937 50.391 16.8004V16.7204V15.1804C50.391 15.0604 50.411 14.9337 50.451 14.8004C50.4777 14.6937 50.5243 14.5804 50.591 14.4604C50.671 14.3404 50.7843 14.227 50.931 14.1204C51.1043 14.0004 51.2977 13.927 51.511 13.9004C51.7243 13.8737 51.9243 13.8937 52.111 13.9604C52.311 14.027 52.4777 14.1404 52.611 14.3004C52.7577 14.447 52.8377 14.6337 52.851 14.8604C52.851 14.9537 52.851 15.087 52.851 15.2604C52.8643 15.4204 52.871 15.6004 52.871 15.8004C52.8843 15.987 52.891 16.187 52.891 16.4004C52.891 16.6137 52.891 16.8204 52.891 17.0204H54.031C54.271 17.0337 54.5177 17.0337 54.771 17.0204C55.0377 16.9937 55.2777 16.9937 55.491 17.0204ZM46.391 13.2004C46.1377 13.427 45.8577 13.6604 45.551 13.9004C45.2577 14.1404 44.9377 14.3137 44.591 14.4204C44.351 14.487 44.091 14.4804 43.811 14.4004C43.531 14.3204 43.3177 14.1804 43.171 13.9804C43.0643 13.8204 43.011 13.667 43.011 13.5204C43.011 13.3737 43.0377 13.2337 43.091 13.1004C43.1577 12.9537 43.2377 12.8137 43.331 12.6804C43.4243 12.547 43.5243 12.4204 43.631 12.3004C44.031 11.8337 44.4243 11.3937 44.811 10.9804C45.211 10.567 45.6377 10.1604 46.091 9.76037C46.2377 9.64037 46.431 9.46703 46.671 9.24037C46.911 9.0137 47.1443 8.78703 47.371 8.56037C47.6377 8.30703 47.9243 8.02703 48.231 7.72037C48.2043 7.36037 48.1977 7.0137 48.211 6.68037C48.2243 6.40037 48.2577 6.12037 48.311 5.84037C48.3643 5.56037 48.4643 5.34703 48.611 5.20037C48.7843 5.04037 49.031 4.94037 49.351 4.90037C49.671 4.84703 49.9377 4.8537 50.151 4.92037C50.4577 5.0137 50.691 5.14703 50.851 5.32037C51.011 5.48037 51.1043 5.72037 51.131 6.04037C51.1443 6.16037 51.1443 6.30703 51.131 6.48037C51.1177 6.64037 51.111 6.80703 51.111 6.98037C51.111 7.1537 51.1243 7.32037 51.151 7.48037C51.1777 7.62703 51.231 7.74703 51.311 7.84037C51.551 8.16037 51.831 8.4937 52.151 8.84037C52.4843 9.18703 52.8243 9.54037 53.171 9.90037C53.531 10.2604 53.8843 10.627 54.231 11.0004C54.5777 11.3604 54.9043 11.7204 55.211 12.0804C55.3577 12.2537 55.5043 12.4537 55.651 12.6804C55.7977 12.8937 55.8977 13.107 55.951 13.3204C56.0177 13.5337 56.0177 13.7404 55.951 13.9404C55.8843 14.1404 55.711 14.307 55.431 14.4404C55.231 14.5337 55.031 14.5737 54.831 14.5604C54.6443 14.547 54.4577 14.5004 54.271 14.4204C54.0843 14.3404 53.911 14.2404 53.751 14.1204C53.591 14.0004 53.4443 13.8737 53.311 13.7404L49.691 10.4204L46.391 13.2004ZM64.0247 5.56036V4.86037C64.0247 4.68703 64.0447 4.52703 64.0847 4.38037C64.1114 4.24703 64.1581 4.1137 64.2247 3.98037C64.3047 3.8337 64.4181 3.70703 64.5647 3.60037C64.7381 3.48037 64.9447 3.4137 65.1847 3.40037C65.4247 3.38703 65.6514 3.42037 65.8647 3.50037C66.0914 3.58037 66.2847 3.70703 66.4447 3.88037C66.6047 4.0537 66.6847 4.26037 66.6847 4.50037L66.7047 5.56036H68.2847C68.3781 5.58703 68.5247 5.5937 68.7247 5.58037C68.9247 5.56703 69.0714 5.56036 69.1647 5.56036C69.4047 5.56036 69.6581 5.56036 69.9247 5.56036C70.1914 5.54703 70.4381 5.56703 70.6647 5.62037C70.8914 5.6737 71.0847 5.78037 71.2447 5.94037C71.4047 6.10037 71.4981 6.34703 71.5247 6.68037C71.5647 7.04037 71.5114 7.3137 71.3647 7.50037C71.2314 7.6737 71.0447 7.80037 70.8047 7.88037C70.5781 7.94703 70.3247 7.9737 70.0447 7.96037C69.7781 7.94703 69.5314 7.9337 69.3047 7.92037L66.8647 7.94037L66.8847 8.90037C66.8847 9.00703 66.8847 9.10037 66.8847 9.18037C66.8847 9.26037 66.8981 9.3537 66.9247 9.46037C66.9647 9.60703 67.0247 9.7337 67.1047 9.84037C67.1981 9.9337 67.2914 10.0337 67.3847 10.1404C67.5847 10.367 67.8114 10.5937 68.0647 10.8204C68.3181 11.0337 68.5781 11.2537 68.8447 11.4804C69.1247 11.6937 69.3914 11.907 69.6447 12.1204C69.9114 12.3337 70.1514 12.547 70.3647 12.7604C70.6181 13.027 70.8447 13.307 71.0447 13.6004C71.2581 13.8937 71.3114 14.247 71.2047 14.6604C71.1247 14.927 70.9914 15.107 70.8047 15.2004C70.6181 15.2804 70.4114 15.307 70.1847 15.2804C69.9714 15.2404 69.7447 15.1737 69.5047 15.0804C69.2781 14.9737 69.0847 14.867 68.9247 14.7604C68.2847 14.347 67.6914 13.907 67.1447 13.4404C66.5981 12.9737 66.0514 12.487 65.5047 11.9804C65.4914 11.967 65.3914 12.0337 65.2047 12.1804C65.0181 12.327 64.7981 12.5137 64.5447 12.7404C64.2914 12.9537 64.0247 13.1804 63.7447 13.4204C63.4647 13.647 63.2181 13.847 63.0047 14.0204C62.7914 14.1804 62.5247 14.3604 62.2047 14.5604C61.8847 14.747 61.5581 14.9004 61.2247 15.0204C60.9047 15.1404 60.5914 15.2004 60.2847 15.2004C59.9781 15.187 59.7381 15.0604 59.5647 14.8204C59.3914 14.5537 59.3114 14.3204 59.3247 14.1204C59.3381 13.907 59.4047 13.7137 59.5247 13.5404C59.6447 13.367 59.8047 13.2004 60.0047 13.0404C60.2047 12.8804 60.4114 12.7204 60.6247 12.5604C61.0647 12.227 61.5514 11.847 62.0847 11.4204C62.6181 10.9937 63.1114 10.5537 63.5647 10.1004C63.7514 9.9137 63.8514 9.74703 63.8647 9.60037C63.8914 9.44037 63.9047 9.2337 63.9047 8.98037L63.9247 7.90037H61.7447C61.2914 7.92703 60.8914 7.9137 60.5447 7.86037C60.2381 7.80703 59.9514 7.7137 59.6847 7.58037C59.4314 7.4337 59.2914 7.20703 59.2647 6.90037C59.2514 6.7537 59.2581 6.60703 59.2847 6.46037C59.3114 6.30037 59.3581 6.16037 59.4247 6.04037C59.4914 5.90703 59.5847 5.80037 59.7047 5.72037C59.8247 5.62703 59.9647 5.5737 60.1247 5.56036C60.2181 5.54703 60.3114 5.54037 60.4047 5.54037C60.5114 5.54037 60.6247 5.54037 60.7447 5.54037C60.7847 5.54037 60.8714 5.54037 61.0047 5.54037C61.1514 5.54037 61.3114 5.54703 61.4847 5.56036C61.6581 5.56036 61.8181 5.56036 61.9647 5.56036C62.1114 5.56036 62.2114 5.56036 62.2647 5.56036H64.0247ZM59.7247 19.3404C59.5114 19.327 59.2981 19.3004 59.0847 19.2604C58.8847 19.207 58.7047 19.1404 58.5447 19.0604C58.3847 18.967 58.2514 18.8404 58.1447 18.6804C58.0514 18.5204 58.0047 18.307 58.0047 18.0404C58.0047 17.7737 58.0914 17.5404 58.2647 17.3404C58.3714 17.2337 58.5047 17.1537 58.6647 17.1004C58.8247 17.047 58.9781 17.007 59.1247 16.9804C59.2714 16.9537 59.3981 16.9404 59.5047 16.9404C59.6247 16.9404 59.6914 16.9404 59.7047 16.9404L70.6447 16.9604C70.9914 16.9604 71.3047 16.967 71.5847 16.9804C71.8781 16.9804 72.1381 17.0737 72.3647 17.2604C72.6447 17.5137 72.7847 17.8004 72.7847 18.1204C72.7847 18.3204 72.7247 18.507 72.6047 18.6804C72.4847 18.8404 72.3247 18.9537 72.1247 19.0204C71.8581 19.127 71.5781 19.2004 71.2847 19.2404C71.0047 19.2804 70.7247 19.307 70.4447 19.3204C69.4714 19.3604 68.5114 19.3737 67.5647 19.3604C66.6181 19.347 65.6981 19.3404 64.8047 19.3404C63.8447 19.3404 62.9047 19.347 61.9847 19.3604C61.0781 19.3737 60.3247 19.367 59.7247 19.3404Z" fill="#3D3D3D"/>
<defs>
<filter id="filter0_d_147_1974" x="7.60681" y="1.89856" width="12.0527" height="10.9126" filterUnits="userSpaceOnUse" color-interpolation-filters="sRGB">
<feFlood flood-opacity="0" result="BackgroundImageFix"/>
<feColorMatrix in="SourceAlpha" type="matrix" values="0 0 0 0 0 0 0 0 0 0 0 0 0 0 0 0 0 0 127 0" result="hardAlpha"/>
<feOffset dx="1"/>
<feGaussianBlur stdDeviation="1"/>
<feComposite in2="hardAlpha" operator="out"/>
<feColorMatrix type="matrix" values="0 0 0 0 0 0 0 0 0 0 0 0 0 0 0 0 0 0 0.35 0"/>
<feBlend mode="normal" in2="BackgroundImageFix" result="effect1_dropShadow_147_1974"/>
<feBlend mode="normal" in="SourceGraphic" in2="effect1_dropShadow_147_1974" result="shape"/>
</filter>
<filter id="filter1_d_147_1974" x="5.73499" y="14.2864" width="12.2697" height="10.7852" filterUnits="userSpaceOnUse" color-interpolation-filters="sRGB">
<feFlood flood-opacity="0" result="BackgroundImageFix"/>
<feColorMatrix in="SourceAlpha" type="matrix" values="0 0 0 0 0 0 0 0 0 0 0 0 0 0 0 0 0 0 127 0" result="hardAlpha"/>
<feOffset dy="1"/>
<feGaussianBlur stdDeviation="1"/>
<feComposite in2="hardAlpha" operator="out"/>
<feColorMatrix type="matrix" values="0 0 0 0 0 0 0 0 0 0 0 0 0 0 0 0 0 0 0.35 0"/>
<feBlend mode="normal" in2="BackgroundImageFix" result="effect1_dropShadow_147_1974"/>
<feBlend mode="normal" in="SourceGraphic" in2="effect1_dropShadow_147_1974" result="shape"/>
</filter>
</defs>
</svg>
