<svg width="74" height="26" viewBox="0 0 74 26" fill="none" xmlns="http://www.w3.org/2000/svg">
<path fill-rule="evenodd" clip-rule="evenodd" d="M16.4905 1.3329L4.11036 5.73893L4.07589 5.75101L4.04154 5.76342L3.82739 5.83963L3.83043 5.84818C1.93553 6.67663 1.01392 8.95225 1.76571 11.0647C2.51751 13.1771 4.66958 14.3588 6.66181 13.8038L6.66497 13.8127L19.592 9.21204L19.5889 9.2033C21.4839 8.37489 22.4056 6.09922 21.6538 3.98677C20.902 1.87431 18.7498 0.692591 16.7576 1.24763L16.7545 1.23895L16.5215 1.32185C16.5164 1.32367 16.5112 1.3255 16.506 1.32734C16.5008 1.32918 16.4957 1.33104 16.4905 1.3329Z" fill="#F3576C"/>
<path fill-rule="evenodd" clip-rule="evenodd" d="M3.48073 16.7881L16.4082 12.1873L16.4114 12.196C18.4037 11.641 20.5559 12.8227 21.3077 14.9351C22.0595 17.0476 21.1378 19.3233 19.2427 20.1517L19.2458 20.1603L19.0203 20.2406C19.0127 20.2434 19.005 20.2461 18.9974 20.2488C18.9898 20.2516 18.9821 20.2542 18.9745 20.2569L6.59994 24.6609L6.56672 24.6729L6.53339 24.6846L6.31831 24.7612L6.31527 24.7526C4.32292 25.3078 2.17067 24.126 1.41884 22.0136C0.66702 19.9011 1.58878 17.6253 3.48389 16.7969L3.48073 16.7881Z" fill="#F3576C"/>
<path fill-rule="evenodd" clip-rule="evenodd" d="M8.55347 6.5664L20.0539 13.0196L20.0492 13.028C21.9015 14.2339 22.5245 16.6874 21.4272 18.6428C20.7565 19.8382 19.5919 20.5818 18.3324 20.7618L14.4246 21.8873C15.1685 21.0166 15.1317 20.2386 14.4882 19.6008L3.11974 13.2217L3.1243 13.2135C1.27207 12.0077 0.649165 9.55415 1.74637 7.59881C2.33249 6.55428 3.2957 5.85462 4.36989 5.57466L8.90919 4.02466C7.83997 4.71852 7.96508 6.08561 8.55347 6.5664Z" fill="#5DCCC6"/>
<g filter="url(#filter0_d_506_1784)">
<path d="M8.79501 4.08063C8.14763 4.68992 7.35555 6.137 9.36622 7.05094L15.7638 10.5925" stroke="black" stroke-opacity="0.01" stroke-width="0.5" shape-rendering="crispEdges"/>
</g>
<g filter="url(#filter1_d_506_1784)">
<path d="M7.08142 15.5051L14.5072 19.6178C14.888 19.9225 15.3983 20.8059 14.393 21.9027" stroke="black" stroke-opacity="0.01" stroke-width="0.5" shape-rendering="crispEdges"/>
</g>
<path d="M37.9259 20.4804C37.8059 20.507 37.5325 20.5204 37.1059 20.5204C36.6925 20.5337 36.1992 20.5404 35.6259 20.5404C35.0525 20.5404 34.4392 20.5337 33.7859 20.5204C33.1325 20.5204 32.5192 20.5137 31.9459 20.5004C31.3725 20.5004 30.8792 20.5004 30.4659 20.5004C30.0525 20.5004 29.7925 20.5004 29.6859 20.5004C29.4192 20.5004 29.1392 20.4804 28.8459 20.4404C28.5525 20.4004 28.2925 20.2937 28.0659 20.1204C27.9192 20.0004 27.7992 19.8537 27.7059 19.6804C27.6259 19.4937 27.5659 19.3137 27.5259 19.1404C27.4859 18.967 27.4592 18.8137 27.4459 18.6804C27.4325 18.547 27.4259 18.4737 27.4259 18.4604V16.8604C27.4259 16.6604 27.4259 16.467 27.4259 16.2804C27.4259 16.0804 27.4259 15.9004 27.4259 15.7404C27.4392 15.5804 27.4459 15.4537 27.4459 15.3604C27.4459 15.2537 27.4459 15.1937 27.4459 15.1804C27.4459 14.9937 27.4792 14.8204 27.5459 14.6604C27.6125 14.487 27.7392 14.3604 27.9259 14.2804C28.0192 14.2404 28.1192 14.2137 28.2259 14.2004C28.3459 14.187 28.4592 14.1737 28.5659 14.1604C28.7925 14.147 29.0192 14.187 29.2459 14.2804C29.4859 14.3604 29.6325 14.5337 29.6859 14.8004V15.5204C29.7125 15.7204 29.7592 15.8204 29.8259 15.8204C29.8925 15.807 30.0059 15.807 30.1659 15.8204H38.2659V15.1004C38.2792 14.8604 38.3325 14.6604 38.4259 14.5004C38.5192 14.327 38.6859 14.2204 38.9259 14.1804C39.1125 14.1404 39.3459 14.127 39.6259 14.1404C39.9059 14.1537 40.1192 14.227 40.2659 14.3604C40.3992 14.4804 40.4659 14.627 40.4659 14.8004C40.4659 14.9604 40.4659 15.1204 40.4659 15.2804C40.4392 15.8937 40.4392 16.527 40.4659 17.1804C40.4925 17.8204 40.4725 18.447 40.4059 19.0604C40.3925 19.247 40.3592 19.407 40.3059 19.5404C40.2525 19.6604 40.1725 19.7937 40.0659 19.9404C39.9592 20.1004 39.8125 20.2137 39.6259 20.2804C39.4525 20.347 39.2659 20.3937 39.0659 20.4204C38.8659 20.447 38.6659 20.4604 38.4659 20.4604C38.2659 20.4604 38.0859 20.467 37.9259 20.4804ZM34.6259 13.3004C34.4659 13.367 34.2992 13.4137 34.1259 13.4404C33.9659 13.4537 33.7992 13.4604 33.6259 13.4604H29.3059C29.0125 13.4604 28.7125 13.4604 28.4059 13.4604C28.0992 13.4604 27.7925 13.447 27.4859 13.4204C27.1925 13.407 26.9525 13.3004 26.7659 13.1004C26.5792 12.9004 26.4725 12.6337 26.4459 12.3004C26.4325 12.1804 26.4192 12.007 26.4059 11.7804C26.4059 11.5537 26.3992 11.3204 26.3859 11.0804C26.3859 10.8404 26.3859 10.6137 26.3859 10.4004C26.3859 10.187 26.3859 10.027 26.3859 9.92037V9.72037C26.3725 9.5737 26.3725 9.4137 26.3859 9.24037C26.3992 9.06703 26.4659 8.90703 26.5859 8.76037C26.7725 8.5337 27.0259 8.40037 27.3459 8.36037C27.6792 8.30703 27.9992 8.28037 28.3059 8.28037H32.8259V7.10037H28.8259C28.7459 7.10037 28.6659 7.10703 28.5859 7.12037C28.5059 7.12037 28.4259 7.12037 28.3459 7.12037C28.2659 7.1337 28.1792 7.14037 28.0859 7.14037C28.0059 7.14037 27.9192 7.14037 27.8259 7.14037C27.5592 7.14037 27.3259 7.12037 27.1259 7.08037C26.8992 7.02703 26.7125 6.88037 26.5659 6.64037C26.4725 6.48037 26.4125 6.30703 26.3859 6.12037C26.3592 5.92037 26.3725 5.7337 26.4259 5.56036C26.4925 5.3337 26.6459 5.16703 26.8859 5.06037C27.1259 4.94037 27.3259 4.86703 27.4859 4.84037C27.6859 4.80037 27.9059 4.78037 28.1459 4.78037H28.5059C28.5725 4.78037 28.6392 4.78703 28.7059 4.80037C28.7725 4.80037 28.8392 4.80037 28.9059 4.80037H32.9659C33.6592 4.80037 34.1925 4.94037 34.5659 5.22037C34.9525 5.50037 35.1459 5.8937 35.1459 6.40037V8.54037C35.1459 8.74037 35.0992 8.98703 35.0059 9.28037C34.9259 9.5737 34.7792 9.78703 34.5659 9.92037C34.3925 10.027 34.2125 10.0937 34.0259 10.1204C33.8525 10.1337 33.6725 10.1337 33.4859 10.1204H28.8659V11.4404H33.4259C33.5592 11.4404 33.6925 11.4404 33.8259 11.4404C33.9592 11.4404 34.0925 11.447 34.2259 11.4604C34.4525 11.4737 34.6392 11.5537 34.7859 11.7004C34.9459 11.847 35.0592 12.0204 35.1259 12.2204C35.2859 12.7404 35.1192 13.1004 34.6259 13.3004ZM37.7059 10.4404C37.3192 10.4137 36.9725 10.3937 36.6659 10.3804C36.3592 10.3537 36.1192 10.207 35.9459 9.94037C35.8659 9.80703 35.8259 9.64037 35.8259 9.44037C35.8259 9.24037 35.8392 9.06703 35.8659 8.92037C35.9059 8.7737 35.9792 8.6537 36.0859 8.56037C36.1925 8.4537 36.3792 8.36703 36.6459 8.30037C36.6992 8.28703 36.7992 8.28037 36.9459 8.28037C37.0925 8.26703 37.2459 8.2537 37.4059 8.24037C37.5792 8.22703 37.7392 8.22037 37.8859 8.22037C38.0325 8.20703 38.1325 8.20037 38.1859 8.20037V6.28037C38.1725 6.1337 38.1659 5.98703 38.1659 5.84037C38.1792 5.6937 38.2059 5.54703 38.2459 5.40037C38.2725 5.2937 38.2992 5.1937 38.3259 5.10036C38.3525 5.00703 38.4125 4.90703 38.5059 4.80037C38.6125 4.66703 38.7592 4.5737 38.9459 4.52037C39.1459 4.46703 39.3592 4.4537 39.5859 4.48037C40.0125 4.54703 40.2859 4.7137 40.4059 4.98037C40.4859 5.14037 40.5325 5.34037 40.5459 5.58037C40.5725 5.80703 40.5859 5.94703 40.5859 6.00037V12.3404H40.5659C40.5659 12.3537 40.5592 12.4004 40.5459 12.4804C40.5325 12.5604 40.5059 12.6604 40.4659 12.7804C40.4259 12.887 40.3659 13.0004 40.2859 13.1204C40.2059 13.2404 40.0992 13.3404 39.9659 13.4204C39.7792 13.527 39.5925 13.5804 39.4059 13.5804C39.1792 13.5804 38.9592 13.507 38.7459 13.3604C38.5859 13.2537 38.4725 13.1204 38.4059 12.9604C38.3259 12.8137 38.2725 12.667 38.2459 12.5204C38.2192 12.3737 38.1992 12.227 38.1859 12.0804V10.4404H37.7059ZM30.8659 17.6204C30.7459 17.6204 30.6125 17.6204 30.4659 17.6204C30.3325 17.607 30.2125 17.6137 30.1059 17.6404C29.9992 17.6537 29.9059 17.6937 29.8259 17.7604C29.7592 17.8137 29.7259 17.9004 29.7259 18.0204C29.7259 18.167 29.7325 18.2737 29.7459 18.3404C29.8125 18.567 29.9125 18.687 30.0459 18.7004C30.1925 18.7004 30.3525 18.6937 30.5259 18.6804C30.8992 18.6804 31.3059 18.687 31.7459 18.7004C32.1859 18.7004 32.6059 18.707 33.0059 18.7204C33.0459 18.7204 33.1725 18.7204 33.3859 18.7204C33.6125 18.7204 33.8792 18.7204 34.1859 18.7204C34.5059 18.707 34.8459 18.7004 35.2059 18.7004C35.5792 18.7004 35.9192 18.7004 36.2259 18.7004C36.5459 18.687 36.8125 18.6804 37.0259 18.6804C37.2525 18.6804 37.3859 18.6804 37.4259 18.6804C37.4925 18.6804 37.5725 18.687 37.6659 18.7004C37.7592 18.7137 37.8459 18.7137 37.9259 18.7004C38.0059 18.687 38.0725 18.6537 38.1259 18.6004C38.1792 18.547 38.2059 18.467 38.2059 18.3604C38.2059 18.2537 38.2125 18.1604 38.2259 18.0804C38.2392 18.0004 38.2059 17.9137 38.1259 17.8204C38.0325 17.7137 37.9192 17.6537 37.7859 17.6404C37.6659 17.627 37.5392 17.627 37.4059 17.6404C37.3925 17.6404 37.2192 17.6404 36.8859 17.6404C36.5525 17.6404 36.1459 17.6404 35.6659 17.6404C35.1859 17.6404 34.6659 17.6404 34.1059 17.6404C33.5459 17.627 33.0259 17.6204 32.5459 17.6204C32.0792 17.6204 31.6792 17.6204 31.3459 17.6204C31.0259 17.6204 30.8659 17.6204 30.8659 17.6204ZM55.7163 17.0204C55.7563 17.0337 55.7963 17.0404 55.8363 17.0404C55.8763 17.027 55.9163 17.0204 55.9563 17.0204C56.183 17.047 56.3897 17.0937 56.5763 17.1604C56.7763 17.2137 56.9697 17.327 57.1563 17.5004C57.343 17.6604 57.4363 17.887 57.4363 18.1804C57.4363 18.327 57.4097 18.487 57.3563 18.6604C57.3163 18.8204 57.2563 18.947 57.1763 19.0404C57.0697 19.147 56.9363 19.227 56.7763 19.2804C56.6297 19.3337 56.4763 19.3737 56.3163 19.4004C56.1697 19.4137 56.0363 19.4204 55.9163 19.4204C55.8097 19.4204 55.7497 19.4204 55.7363 19.4204H44.6763C44.6097 19.4204 44.543 19.427 44.4763 19.4404C44.423 19.4404 44.363 19.4404 44.2963 19.4404C44.003 19.4537 43.6963 19.4537 43.3763 19.4404C43.0563 19.4137 42.783 19.307 42.5563 19.1204C42.2763 18.867 42.1363 18.5804 42.1363 18.2604C42.1363 18.0604 42.1963 17.8537 42.3163 17.6404C42.4363 17.427 42.5963 17.2804 42.7963 17.2004C43.063 17.0937 43.3363 17.0404 43.6163 17.0404C43.9097 17.0404 44.203 17.0337 44.4963 17.0204H44.5963C44.823 17.0204 45.0563 17.0204 45.2963 17.0204C45.5363 17.007 45.7763 17.0004 46.0163 17.0004C46.003 16.947 45.9963 16.8804 45.9963 16.8004V16.7204V15.1804C45.9963 15.0604 46.0163 14.9337 46.0563 14.8004C46.083 14.6937 46.1297 14.5804 46.1963 14.4604C46.2763 14.3404 46.3897 14.227 46.5363 14.1204C46.7097 14.0004 46.903 13.927 47.1163 13.9004C47.3297 13.8737 47.5297 13.8937 47.7163 13.9604C47.9163 14.027 48.083 14.1404 48.2163 14.3004C48.363 14.447 48.443 14.6337 48.4563 14.8604C48.4563 14.9537 48.4563 15.087 48.4563 15.2604C48.4697 15.4204 48.4763 15.6004 48.4763 15.8004C48.4897 15.987 48.4963 16.187 48.4963 16.4004C48.4963 16.6137 48.4963 16.8204 48.4963 17.0204H50.4163H50.6363C50.623 16.967 50.6163 16.8937 50.6163 16.8004V16.7204V15.1804C50.6163 15.0604 50.6363 14.9337 50.6763 14.8004C50.703 14.6937 50.7497 14.5804 50.8163 14.4604C50.8963 14.3404 51.0097 14.227 51.1563 14.1204C51.3297 14.0004 51.523 13.927 51.7363 13.9004C51.9497 13.8737 52.1497 13.8937 52.3363 13.9604C52.5363 14.027 52.703 14.1404 52.8363 14.3004C52.983 14.447 53.063 14.6337 53.0763 14.8604C53.0763 14.9537 53.0763 15.087 53.0763 15.2604C53.0897 15.4204 53.0963 15.6004 53.0963 15.8004C53.1097 15.987 53.1163 16.187 53.1163 16.4004C53.1163 16.6137 53.1163 16.8204 53.1163 17.0204H54.2563C54.4963 17.0337 54.743 17.0337 54.9963 17.0204C55.263 16.9937 55.503 16.9937 55.7163 17.0204ZM46.6163 13.2004C46.363 13.427 46.083 13.6604 45.7763 13.9004C45.483 14.1404 45.163 14.3137 44.8163 14.4204C44.5763 14.487 44.3163 14.4804 44.0363 14.4004C43.7563 14.3204 43.543 14.1804 43.3963 13.9804C43.2897 13.8204 43.2363 13.667 43.2363 13.5204C43.2363 13.3737 43.263 13.2337 43.3163 13.1004C43.383 12.9537 43.463 12.8137 43.5563 12.6804C43.6497 12.547 43.7497 12.4204 43.8563 12.3004C44.2563 11.8337 44.6497 11.3937 45.0363 10.9804C45.4363 10.567 45.863 10.1604 46.3163 9.76037C46.463 9.64037 46.6563 9.46703 46.8963 9.24037C47.1363 9.0137 47.3697 8.78703 47.5963 8.56037C47.863 8.30703 48.1497 8.02703 48.4563 7.72037C48.4297 7.36037 48.423 7.0137 48.4363 6.68037C48.4497 6.40037 48.483 6.12037 48.5363 5.84037C48.5897 5.56037 48.6897 5.34703 48.8363 5.20037C49.0097 5.04037 49.2563 4.94037 49.5763 4.90037C49.8963 4.84703 50.163 4.8537 50.3763 4.92037C50.683 5.0137 50.9163 5.14703 51.0763 5.32037C51.2363 5.48037 51.3297 5.72037 51.3563 6.04037C51.3697 6.16037 51.3697 6.30703 51.3563 6.48037C51.343 6.64037 51.3363 6.80703 51.3363 6.98037C51.3363 7.1537 51.3497 7.32037 51.3763 7.48037C51.403 7.62703 51.4563 7.74703 51.5363 7.84037C51.7763 8.16037 52.0563 8.4937 52.3763 8.84037C52.7097 9.18703 53.0497 9.54037 53.3963 9.90037C53.7563 10.2604 54.1097 10.627 54.4563 11.0004C54.803 11.3604 55.1297 11.7204 55.4363 12.0804C55.583 12.2537 55.7297 12.4537 55.8763 12.6804C56.023 12.8937 56.123 13.107 56.1763 13.3204C56.243 13.5337 56.243 13.7404 56.1763 13.9404C56.1097 14.1404 55.9363 14.307 55.6563 14.4404C55.4563 14.5337 55.2563 14.5737 55.0563 14.5604C54.8697 14.547 54.683 14.5004 54.4963 14.4204C54.3097 14.3404 54.1363 14.2404 53.9763 14.1204C53.8163 14.0004 53.6697 13.8737 53.5363 13.7404L49.9163 10.4204L46.6163 13.2004ZM64.2501 5.56036V4.86037C64.2501 4.68703 64.2701 4.52703 64.3101 4.38037C64.3367 4.24703 64.3834 4.1137 64.4501 3.98037C64.5301 3.8337 64.6434 3.70703 64.7901 3.60037C64.9634 3.48037 65.1701 3.4137 65.4101 3.40037C65.6501 3.38703 65.8767 3.42037 66.0901 3.50037C66.3167 3.58037 66.5101 3.70703 66.6701 3.88037C66.8301 4.0537 66.9101 4.26037 66.9101 4.50037L66.9301 5.56036H68.5101C68.6034 5.58703 68.7501 5.5937 68.9501 5.58037C69.1501 5.56703 69.2967 5.56036 69.3901 5.56036C69.6301 5.56036 69.8834 5.56036 70.1501 5.56036C70.4167 5.54703 70.6634 5.56703 70.8901 5.62037C71.1167 5.6737 71.3101 5.78037 71.4701 5.94037C71.6301 6.10037 71.7234 6.34703 71.7501 6.68037C71.7901 7.04037 71.7367 7.3137 71.5901 7.50037C71.4567 7.6737 71.2701 7.80037 71.0301 7.88037C70.8034 7.94703 70.5501 7.9737 70.2701 7.96037C70.0034 7.94703 69.7567 7.9337 69.5301 7.92037L67.0901 7.94037L67.1101 8.90037C67.1101 9.00703 67.1101 9.10037 67.1101 9.18037C67.1101 9.26037 67.1234 9.3537 67.1501 9.46037C67.1901 9.60703 67.2501 9.7337 67.3301 9.84037C67.4234 9.9337 67.5167 10.0337 67.6101 10.1404C67.8101 10.367 68.0367 10.5937 68.2901 10.8204C68.5434 11.0337 68.8034 11.2537 69.0701 11.4804C69.3501 11.6937 69.6167 11.907 69.8701 12.1204C70.1367 12.3337 70.3767 12.547 70.5901 12.7604C70.8434 13.027 71.0701 13.307 71.2701 13.6004C71.4834 13.8937 71.5367 14.247 71.4301 14.6604C71.3501 14.927 71.2167 15.107 71.0301 15.2004C70.8434 15.2804 70.6367 15.307 70.4101 15.2804C70.1967 15.2404 69.9701 15.1737 69.7301 15.0804C69.5034 14.9737 69.3101 14.867 69.1501 14.7604C68.5101 14.347 67.9167 13.907 67.3701 13.4404C66.8234 12.9737 66.2767 12.487 65.7301 11.9804C65.7167 11.967 65.6167 12.0337 65.4301 12.1804C65.2434 12.327 65.0234 12.5137 64.7701 12.7404C64.5167 12.9537 64.2501 13.1804 63.9701 13.4204C63.6901 13.647 63.4434 13.847 63.2301 14.0204C63.0167 14.1804 62.7501 14.3604 62.4301 14.5604C62.1101 14.747 61.7834 14.9004 61.4501 15.0204C61.1301 15.1404 60.8167 15.2004 60.5101 15.2004C60.2034 15.187 59.9634 15.0604 59.7901 14.8204C59.6167 14.5537 59.5367 14.3204 59.5501 14.1204C59.5634 13.907 59.6301 13.7137 59.7501 13.5404C59.8701 13.367 60.0301 13.2004 60.2301 13.0404C60.4301 12.8804 60.6367 12.7204 60.8501 12.5604C61.2901 12.227 61.7767 11.847 62.3101 11.4204C62.8434 10.9937 63.3367 10.5537 63.7901 10.1004C63.9767 9.9137 64.0767 9.74703 64.0901 9.60037C64.1167 9.44037 64.1301 9.2337 64.1301 8.98037L64.1501 7.90037H61.9701C61.5167 7.92703 61.1167 7.9137 60.7701 7.86037C60.4634 7.80703 60.1767 7.7137 59.9101 7.58037C59.6567 7.4337 59.5167 7.20703 59.4901 6.90037C59.4767 6.7537 59.4834 6.60703 59.5101 6.46037C59.5367 6.30037 59.5834 6.16037 59.6501 6.04037C59.7167 5.90703 59.8101 5.80037 59.9301 5.72037C60.0501 5.62703 60.1901 5.5737 60.3501 5.56036C60.4434 5.54703 60.5367 5.54037 60.6301 5.54037C60.7367 5.54037 60.8501 5.54037 60.9701 5.54037C61.0101 5.54037 61.0967 5.54037 61.2301 5.54037C61.3767 5.54037 61.5367 5.54703 61.7101 5.56036C61.8834 5.56036 62.0434 5.56036 62.1901 5.56036C62.3367 5.56036 62.4367 5.56036 62.4901 5.56036H64.2501ZM59.9501 19.3404C59.7367 19.327 59.5234 19.3004 59.3101 19.2604C59.1101 19.207 58.9301 19.1404 58.7701 19.0604C58.6101 18.967 58.4767 18.8404 58.3701 18.6804C58.2767 18.5204 58.2301 18.307 58.2301 18.0404C58.2301 17.7737 58.3167 17.5404 58.4901 17.3404C58.5967 17.2337 58.7301 17.1537 58.8901 17.1004C59.0501 17.047 59.2034 17.007 59.3501 16.9804C59.4967 16.9537 59.6234 16.9404 59.7301 16.9404C59.8501 16.9404 59.9167 16.9404 59.9301 16.9404L70.8701 16.9604C71.2167 16.9604 71.5301 16.967 71.8101 16.9804C72.1034 16.9804 72.3634 17.0737 72.5901 17.2604C72.8701 17.5137 73.0101 17.8004 73.0101 18.1204C73.0101 18.3204 72.9501 18.507 72.8301 18.6804C72.7101 18.8404 72.5501 18.9537 72.3501 19.0204C72.0834 19.127 71.8034 19.2004 71.5101 19.2404C71.2301 19.2804 70.9501 19.307 70.6701 19.3204C69.6967 19.3604 68.7367 19.3737 67.7901 19.3604C66.8434 19.347 65.9234 19.3404 65.0301 19.3404C64.0701 19.3404 63.1301 19.347 62.2101 19.3604C61.3034 19.3737 60.5501 19.367 59.9501 19.3404Z" fill="white"/>
<defs>
<filter id="filter0_d_506_1784" x="6.83215" y="1.89856" width="12.0527" height="10.9126" filterUnits="userSpaceOnUse" color-interpolation-filters="sRGB">
<feFlood flood-opacity="0" result="BackgroundImageFix"/>
<feColorMatrix in="SourceAlpha" type="matrix" values="0 0 0 0 0 0 0 0 0 0 0 0 0 0 0 0 0 0 127 0" result="hardAlpha"/>
<feOffset dx="1"/>
<feGaussianBlur stdDeviation="1"/>
<feComposite in2="hardAlpha" operator="out"/>
<feColorMatrix type="matrix" values="0 0 0 0 0 0 0 0 0 0 0 0 0 0 0 0 0 0 0.35 0"/>
<feBlend mode="normal" in2="BackgroundImageFix" result="effect1_dropShadow_506_1784"/>
<feBlend mode="normal" in="SourceGraphic" in2="effect1_dropShadow_506_1784" result="shape"/>
</filter>
<filter id="filter1_d_506_1784" x="4.96033" y="14.2864" width="12.2697" height="10.7852" filterUnits="userSpaceOnUse" color-interpolation-filters="sRGB">
<feFlood flood-opacity="0" result="BackgroundImageFix"/>
<feColorMatrix in="SourceAlpha" type="matrix" values="0 0 0 0 0 0 0 0 0 0 0 0 0 0 0 0 0 0 127 0" result="hardAlpha"/>
<feOffset dy="1"/>
<feGaussianBlur stdDeviation="1"/>
<feComposite in2="hardAlpha" operator="out"/>
<feColorMatrix type="matrix" values="0 0 0 0 0 0 0 0 0 0 0 0 0 0 0 0 0 0 0.35 0"/>
<feBlend mode="normal" in2="BackgroundImageFix" result="effect1_dropShadow_506_1784"/>
<feBlend mode="normal" in="SourceGraphic" in2="effect1_dropShadow_506_1784" result="shape"/>
</filter>
</defs>
</svg>
