<svg width="166" height="134" viewBox="0 0 166 134" fill="none" xmlns="http://www.w3.org/2000/svg">
<path d="M6.08307 119.696V120.172C6.08307 121.684 4.26307 123.14 1.75707 123.476L2.31707 124.624C5.18707 124.19 7.35707 122.44 7.35707 120.172V119.696H6.08307ZM6.48907 119.696V120.172C6.48907 122.44 8.64507 124.19 11.5291 124.624L12.0751 123.476C9.58307 123.14 7.74907 121.684 7.74907 120.172V119.696H6.48907ZM6.15307 126.374V131.162H7.60907V126.374H6.15307ZM1.14107 125.548V126.738H12.7051V125.548H1.14107ZM2.19107 119.094V120.27H11.6131V119.094H2.19107ZM15.224 119.556V120.746H23.4V119.556H15.224ZM14.02 128.278V129.482H25.584V128.278H14.02ZM18.332 123.784V128.88H19.802V123.784H18.332ZM22.854 119.556V120.802C22.854 122.342 22.854 124.162 22.364 126.654L23.834 126.822C24.324 124.176 24.324 122.398 24.324 120.802V119.556H22.854ZM35.4109 118.366V125.842H36.8809V118.366H35.4109ZM36.4749 121.362V122.58H38.6869V121.362H36.4749ZM27.3469 119.094V125.114H33.3669V119.094H31.9249V120.9H28.8029V119.094H27.3469ZM28.8029 122.048H31.9249V123.952H28.8029V122.048ZM28.7469 126.486V130.658H30.2029V127.648H36.9649V126.486H28.7469ZM28.7469 129.818V130.994H37.2169V129.818H28.7469ZM39.7638 125.002V126.178H51.3278V125.002H39.7638ZM41.2198 129.72V130.91H50.0398V129.72H41.2198ZM41.2198 127.186V130.084H42.6898V127.186H41.2198ZM45.5458 118.772C42.7878 118.772 40.9958 119.752 40.9958 121.362C40.9958 122.972 42.7878 123.952 45.5458 123.952C48.3038 123.952 50.1098 122.972 50.1098 121.362C50.1098 119.752 48.3038 118.772 45.5458 118.772ZM45.5458 119.948C47.4358 119.948 48.5978 120.466 48.5978 121.362C48.5978 122.272 47.4358 122.776 45.5458 122.776C43.6698 122.776 42.5078 122.272 42.5078 121.362C42.5078 120.466 43.6698 119.948 45.5458 119.948ZM56.2072 119.766V127.83H61.1632V119.766H56.2072ZM59.7912 120.928V126.682H57.5792V120.928H59.7912ZM65.3212 118.366V131.162H66.7212V118.366H65.3212ZM60.4212 123.112V124.302H63.3332V123.112H60.4212ZM62.7452 118.604V130.546H64.1312V118.604H62.7452ZM73.7061 122.818V124.022H76.0161V122.818H73.7061ZM71.1721 119.528V121.838C71.1721 124.022 70.2901 126.304 68.4841 127.396L69.3801 128.502C71.3261 127.312 72.3061 124.61 72.3061 121.838V119.528H71.1721ZM71.4801 119.528V121.782C71.4801 124.386 72.3341 127.032 74.2521 128.222L75.0781 127.074C73.3701 125.996 72.5861 123.84 72.5861 121.782V119.528H71.4801ZM78.2001 118.366V131.162H79.6001V118.366H78.2001ZM75.5961 118.604V130.546H76.9681V118.604H75.5961ZM84.807 120.284V122.076C84.807 124.26 83.477 126.654 81.503 127.564L82.343 128.726C84.541 127.676 85.983 124.89 85.983 122.076V120.284H84.807ZM85.115 120.284V122.076C85.115 124.82 86.557 127.41 88.783 128.404L89.595 127.242C87.593 126.402 86.277 124.19 86.277 122.076V120.284H85.115ZM81.965 119.64V120.858H89.119V119.64H81.965ZM90.617 118.366V131.162H92.087V118.366H90.617ZM102.88 118.352V131.148H104.35V118.352H102.88ZM103.958 123.42V124.624H106.268V123.42H103.958ZM99.5619 119.71V119.962C99.5619 123.378 97.8679 125.94 94.4099 127.704L95.2359 128.824C99.4219 126.724 101.004 123.434 101.004 119.71H99.5619ZM95.0539 119.71V120.9H100.318V119.71H95.0539ZM111.889 125.87V131.008H116.425V125.87H115.067V127.312H113.261V125.87H111.889ZM113.261 128.39H115.067V129.888H113.261V128.39ZM118.679 125.772V126.794C118.679 128.054 117.965 129.384 116.425 130.014L117.153 131.12C118.973 130.378 119.799 128.586 119.799 126.794V125.772H118.679ZM119.001 125.772V126.794C119.001 128.698 119.799 130.406 121.647 131.12L122.389 130.014C120.835 129.454 120.135 128.138 120.135 126.794V125.772H119.001ZM116.901 121.25V122.454H120.233V121.25H116.901ZM113.961 118.898C112.043 118.898 110.629 120.116 110.629 121.866C110.629 123.63 112.043 124.848 113.961 124.848C115.879 124.848 117.293 123.63 117.293 121.866C117.293 120.116 115.879 118.898 113.961 118.898ZM113.961 120.102C115.081 120.102 115.879 120.802 115.879 121.866C115.879 122.93 115.081 123.644 113.961 123.644C112.841 123.644 112.029 122.93 112.029 121.866C112.029 120.802 112.841 120.102 113.961 120.102ZM119.589 118.366V125.142H121.059V118.366H119.589ZM124.74 126.038V131.008H133.406V126.038H131.95V127.34H126.196V126.038H124.74ZM126.196 128.446H131.95V129.846H126.196V128.446ZM123.326 124.092V125.254H134.89V124.092H123.326ZM128.366 118.506V118.996C128.366 120.466 126.504 121.866 123.942 122.188L124.474 123.336C127.4 122.93 129.626 121.222 129.626 118.996V118.506H128.366ZM128.604 118.506V118.996C128.604 121.194 130.83 122.93 133.742 123.336L134.274 122.188C131.74 121.866 129.864 120.452 129.864 118.996V118.506H128.604ZM145.319 118.366V131.162H146.775V118.366H145.319ZM136.961 119.598V127.536H138.417V119.598H136.961ZM136.961 126.668V127.928H138.053C140.041 127.928 142.099 127.788 144.311 127.326L144.143 126.094C142.001 126.528 139.957 126.668 138.053 126.668H136.961ZM157.54 118.352V131.176H159.01V118.352H157.54ZM158.674 123.266V124.484H160.998V123.266H158.674ZM149.616 126.822V128.04H150.652C152.976 128.04 154.684 127.97 156.644 127.62L156.49 126.388C154.6 126.738 152.92 126.822 150.652 126.822H149.616ZM149.616 119.57V127.382H151.072V120.76H155.566V119.57H149.616ZM163.419 130.196C164.021 130.196 164.497 129.72 164.497 129.062C164.497 128.39 164.021 127.928 163.419 127.928C162.803 127.928 162.341 128.39 162.341 129.062C162.341 129.72 162.803 130.196 163.419 130.196Z" fill="#CBCBCB"/>
<path fill-rule="evenodd" clip-rule="evenodd" d="M57.4399 18.9819L99.4619 4.0265L99.472 4.05499C105.948 2.25094 112.944 6.09234 115.388 12.9592C117.832 19.826 114.836 27.2234 108.676 29.9164L108.686 29.9446L107.94 30.21C107.92 30.2174 107.899 30.2249 107.878 30.2323C107.857 30.2397 107.837 30.247 107.816 30.2542L67.545 44.5864L67.4724 44.6125L67.3996 44.6382L66.664 44.9L66.654 44.8718C60.178 46.6757 53.1824 42.8343 50.7386 35.9676C48.2948 29.1008 51.2906 21.7036 57.4501 19.0105L57.4399 18.9819Z" fill="#C4C4C4" fill-opacity="0.5"/>
<path fill-rule="evenodd" clip-rule="evenodd" d="M56.314 54.5724L98.3373 39.6165L98.3476 39.6453C104.824 37.8413 111.82 41.6826 114.264 48.5494C116.707 55.4162 113.711 62.8135 107.552 65.5067L107.561 65.5346L106.853 65.7866C106.82 65.7987 106.787 65.8107 106.753 65.8226C106.72 65.8345 106.687 65.8463 106.653 65.8578L66.3998 80.1838L66.3463 80.203L66.2926 80.2219L65.5381 80.4905L65.5281 80.4623C59.0518 82.2663 52.0559 78.4249 49.6121 71.5582C47.1682 64.6914 50.1643 57.294 56.3241 54.6009L56.314 54.5724Z" fill="#C4C4C4" fill-opacity="0.5"/>
<path fill-rule="evenodd" clip-rule="evenodd" d="M72.8048 21.3473L109.333 41.8446L109.389 41.8754L109.444 41.9064L110.188 42.324L110.173 42.3501C116.195 46.2698 118.22 54.2458 114.653 60.6024C112.473 64.4879 108.687 66.9053 104.593 67.4903L91.8895 71.1492C94.3066 68.3201 94.188 65.7924 92.0989 63.7195L55.14 42.9808L55.1548 42.9544C49.1335 39.0346 47.1086 31.0588 50.6753 24.7025C52.5807 21.3068 55.7121 19.0324 59.2043 18.1224L73.9599 13.0839C70.4835 15.3399 70.8911 19.7853 72.8048 21.3473Z" fill="#C4C4C4"/>
<path d="M67.525 108.6C67.375 108.633 67.0333 108.65 66.5 108.65C65.9833 108.667 65.3667 108.675 64.65 108.675C63.9333 108.675 63.1667 108.667 62.35 108.65C61.5333 108.65 60.7667 108.642 60.05 108.625C59.3333 108.625 58.7167 108.625 58.2 108.625C57.6833 108.625 57.3583 108.625 57.225 108.625C56.8917 108.625 56.5417 108.6 56.175 108.55C55.8083 108.5 55.4833 108.367 55.2 108.15C55.0167 108 54.8667 107.817 54.75 107.6C54.65 107.367 54.575 107.142 54.525 106.925C54.475 106.708 54.4417 106.517 54.425 106.35C54.4083 106.183 54.4 106.092 54.4 106.075V104.075C54.4 103.825 54.4 103.583 54.4 103.35C54.4 103.1 54.4 102.875 54.4 102.675C54.4167 102.475 54.425 102.317 54.425 102.2C54.425 102.067 54.425 101.992 54.425 101.975C54.425 101.742 54.4667 101.525 54.55 101.325C54.6333 101.108 54.7917 100.95 55.025 100.85C55.1417 100.8 55.2667 100.767 55.4 100.75C55.55 100.733 55.6917 100.717 55.825 100.7C56.1083 100.683 56.3917 100.733 56.675 100.85C56.975 100.95 57.1583 101.167 57.225 101.5V102.4C57.2583 102.65 57.3167 102.775 57.4 102.775C57.4833 102.758 57.625 102.758 57.825 102.775H67.95V101.875C67.9667 101.575 68.0333 101.325 68.15 101.125C68.2667 100.908 68.475 100.775 68.775 100.725C69.0083 100.675 69.3 100.658 69.65 100.675C70 100.692 70.2667 100.783 70.45 100.95C70.6167 101.1 70.7 101.283 70.7 101.5C70.7 101.7 70.7 101.9 70.7 102.1C70.6667 102.867 70.6667 103.658 70.7 104.475C70.7333 105.275 70.7083 106.058 70.625 106.825C70.6083 107.058 70.5667 107.258 70.5 107.425C70.4333 107.575 70.3333 107.742 70.2 107.925C70.0667 108.125 69.8833 108.267 69.65 108.35C69.4333 108.433 69.2 108.492 68.95 108.525C68.7 108.558 68.45 108.575 68.2 108.575C67.95 108.575 67.725 108.583 67.525 108.6ZM63.4 99.625C63.2 99.7083 62.9917 99.7667 62.775 99.8C62.575 99.8167 62.3667 99.825 62.15 99.825H56.75C56.3833 99.825 56.0083 99.825 55.625 99.825C55.2417 99.825 54.8583 99.8083 54.475 99.775C54.1083 99.7583 53.8083 99.625 53.575 99.375C53.3417 99.125 53.2083 98.7917 53.175 98.375C53.1583 98.225 53.1417 98.0083 53.125 97.725C53.125 97.4417 53.1167 97.15 53.1 96.85C53.1 96.55 53.1 96.2667 53.1 96C53.1 95.7333 53.1 95.5333 53.1 95.4V95.15C53.0833 94.9667 53.0833 94.7667 53.1 94.55C53.1167 94.3333 53.2 94.1333 53.35 93.95C53.5833 93.6667 53.9 93.5 54.3 93.45C54.7167 93.3833 55.1167 93.35 55.5 93.35H61.15V91.875H56.15C56.05 91.875 55.95 91.8833 55.85 91.9C55.75 91.9 55.65 91.9 55.55 91.9C55.45 91.9167 55.3417 91.925 55.225 91.925C55.125 91.925 55.0167 91.925 54.9 91.925C54.5667 91.925 54.275 91.9 54.025 91.85C53.7417 91.7833 53.5083 91.6 53.325 91.3C53.2083 91.1 53.1333 90.8833 53.1 90.65C53.0667 90.4 53.0833 90.1667 53.15 89.95C53.2333 89.6667 53.425 89.4583 53.725 89.325C54.025 89.175 54.275 89.0833 54.475 89.05C54.725 89 55 88.975 55.3 88.975H55.75C55.8333 88.975 55.9167 88.9833 56 89C56.0833 89 56.1667 89 56.25 89H61.325C62.1917 89 62.8583 89.175 63.325 89.525C63.8083 89.875 64.05 90.3667 64.05 91V93.675C64.05 93.925 63.9917 94.2333 63.875 94.6C63.775 94.9667 63.5917 95.2333 63.325 95.4C63.1083 95.5333 62.8833 95.6167 62.65 95.65C62.4333 95.6667 62.2083 95.6667 61.975 95.65H56.2V97.3H61.9C62.0667 97.3 62.2333 97.3 62.4 97.3C62.5667 97.3 62.7333 97.3083 62.9 97.325C63.1833 97.3417 63.4167 97.4417 63.6 97.625C63.8 97.8083 63.9417 98.025 64.025 98.275C64.225 98.925 64.0167 99.375 63.4 99.625ZM67.25 96.05C66.7667 96.0167 66.3333 95.9917 65.95 95.975C65.5667 95.9417 65.2667 95.7583 65.05 95.425C64.95 95.2583 64.9 95.05 64.9 94.8C64.9 94.55 64.9167 94.3333 64.95 94.15C65 93.9667 65.0917 93.8167 65.225 93.7C65.3583 93.5667 65.5917 93.4583 65.925 93.375C65.9917 93.3583 66.1167 93.35 66.3 93.35C66.4833 93.3333 66.675 93.3167 66.875 93.3C67.0917 93.2833 67.2917 93.275 67.475 93.275C67.6583 93.2583 67.7833 93.25 67.85 93.25V90.85C67.8333 90.6667 67.825 90.4833 67.825 90.3C67.8417 90.1167 67.875 89.9333 67.925 89.75C67.9583 89.6167 67.9917 89.4917 68.025 89.375C68.0583 89.2583 68.1333 89.1333 68.25 89C68.3833 88.8333 68.5667 88.7167 68.8 88.65C69.05 88.5833 69.3167 88.5667 69.6 88.6C70.1333 88.6833 70.475 88.8917 70.625 89.225C70.725 89.425 70.7833 89.675 70.8 89.975C70.8333 90.2583 70.85 90.4333 70.85 90.5V98.425H70.825C70.825 98.4417 70.8167 98.5 70.8 98.6C70.7833 98.7 70.75 98.825 70.7 98.975C70.65 99.1083 70.575 99.25 70.475 99.4C70.375 99.55 70.2417 99.675 70.075 99.775C69.8417 99.9083 69.6083 99.975 69.375 99.975C69.0917 99.975 68.8167 99.8833 68.55 99.7C68.35 99.5667 68.2083 99.4 68.125 99.2C68.025 99.0167 67.9583 98.8333 67.925 98.65C67.8917 98.4667 67.8667 98.2833 67.85 98.1V96.05H67.25ZM58.7 105.025C58.55 105.025 58.3833 105.025 58.2 105.025C58.0333 105.008 57.8833 105.017 57.75 105.05C57.6167 105.067 57.5 105.117 57.4 105.2C57.3167 105.267 57.275 105.375 57.275 105.525C57.275 105.708 57.2833 105.842 57.3 105.925C57.3833 106.208 57.5083 106.358 57.675 106.375C57.8583 106.375 58.0583 106.367 58.275 106.35C58.7417 106.35 59.25 106.358 59.8 106.375C60.35 106.375 60.875 106.383 61.375 106.4C61.425 106.4 61.5833 106.4 61.85 106.4C62.1333 106.4 62.4667 106.4 62.85 106.4C63.25 106.383 63.675 106.375 64.125 106.375C64.5917 106.375 65.0167 106.375 65.4 106.375C65.8 106.358 66.1333 106.35 66.4 106.35C66.6833 106.35 66.85 106.35 66.9 106.35C66.9833 106.35 67.0833 106.358 67.2 106.375C67.3167 106.392 67.425 106.392 67.525 106.375C67.625 106.358 67.7083 106.317 67.775 106.25C67.8417 106.183 67.875 106.083 67.875 105.95C67.875 105.817 67.8833 105.7 67.9 105.6C67.9167 105.5 67.875 105.392 67.775 105.275C67.6583 105.142 67.5167 105.067 67.35 105.05C67.2 105.033 67.0417 105.033 66.875 105.05C66.8583 105.05 66.6417 105.05 66.225 105.05C65.8083 105.05 65.3 105.05 64.7 105.05C64.1 105.05 63.45 105.05 62.75 105.05C62.05 105.033 61.4 105.025 60.8 105.025C60.2167 105.025 59.7167 105.025 59.3 105.025C58.9 105.025 58.7 105.025 58.7 105.025ZM89.7631 104.275C89.8131 104.292 89.8631 104.3 89.9131 104.3C89.9631 104.283 90.0131 104.275 90.0631 104.275C90.3464 104.308 90.6048 104.367 90.8381 104.45C91.0881 104.517 91.3298 104.658 91.5631 104.875C91.7964 105.075 91.9131 105.358 91.9131 105.725C91.9131 105.908 91.8798 106.108 91.8131 106.325C91.7631 106.525 91.6881 106.683 91.5881 106.8C91.4548 106.933 91.2881 107.033 91.0881 107.1C90.9048 107.167 90.7131 107.217 90.5131 107.25C90.3298 107.267 90.1631 107.275 90.0131 107.275C89.8798 107.275 89.8048 107.275 89.7881 107.275H75.9631C75.8798 107.275 75.7964 107.283 75.7131 107.3C75.6464 107.3 75.5714 107.3 75.4881 107.3C75.1214 107.317 74.7381 107.317 74.3381 107.3C73.9381 107.267 73.5964 107.133 73.3131 106.9C72.9631 106.583 72.7881 106.225 72.7881 105.825C72.7881 105.575 72.8631 105.317 73.0131 105.05C73.1631 104.783 73.3631 104.6 73.6131 104.5C73.9464 104.367 74.2881 104.3 74.6381 104.3C75.0048 104.3 75.3714 104.292 75.7381 104.275H75.8631C76.1464 104.275 76.4381 104.275 76.7381 104.275C77.0381 104.258 77.3381 104.25 77.6381 104.25C77.6214 104.183 77.6131 104.1 77.6131 104V103.9V101.975C77.6131 101.825 77.6381 101.667 77.6881 101.5C77.7214 101.367 77.7798 101.225 77.8631 101.075C77.9631 100.925 78.1048 100.783 78.2881 100.65C78.5048 100.5 78.7464 100.408 79.0131 100.375C79.2798 100.342 79.5298 100.367 79.7631 100.45C80.0131 100.533 80.2214 100.675 80.3881 100.875C80.5714 101.058 80.6714 101.292 80.6881 101.575C80.6881 101.692 80.6881 101.858 80.6881 102.075C80.7048 102.275 80.7131 102.5 80.7131 102.75C80.7298 102.983 80.7381 103.233 80.7381 103.5C80.7381 103.767 80.7381 104.025 80.7381 104.275H83.1381H83.4131C83.3964 104.208 83.3881 104.117 83.3881 104V103.9V101.975C83.3881 101.825 83.4131 101.667 83.4631 101.5C83.4964 101.367 83.5548 101.225 83.6381 101.075C83.7381 100.925 83.8798 100.783 84.0631 100.65C84.2798 100.5 84.5214 100.408 84.7881 100.375C85.0548 100.342 85.3048 100.367 85.5381 100.45C85.7881 100.533 85.9964 100.675 86.1631 100.875C86.3464 101.058 86.4464 101.292 86.4631 101.575C86.4631 101.692 86.4631 101.858 86.4631 102.075C86.4798 102.275 86.4881 102.5 86.4881 102.75C86.5048 102.983 86.5131 103.233 86.5131 103.5C86.5131 103.767 86.5131 104.025 86.5131 104.275H87.9381C88.2381 104.292 88.5464 104.292 88.8631 104.275C89.1964 104.242 89.4964 104.242 89.7631 104.275ZM78.3881 99.5C78.0714 99.7833 77.7214 100.075 77.3381 100.375C76.9714 100.675 76.5714 100.892 76.1381 101.025C75.8381 101.108 75.5131 101.1 75.1631 101C74.8131 100.9 74.5464 100.725 74.3631 100.475C74.2298 100.275 74.1631 100.083 74.1631 99.9C74.1631 99.7167 74.1964 99.5417 74.2631 99.375C74.3464 99.1917 74.4464 99.0167 74.5631 98.85C74.6798 98.6833 74.8048 98.525 74.9381 98.375C75.4381 97.7917 75.9298 97.2417 76.4131 96.725C76.9131 96.2083 77.4464 95.7 78.0131 95.2C78.1964 95.05 78.4381 94.8333 78.7381 94.55C79.0381 94.2667 79.3298 93.9833 79.6131 93.7C79.9464 93.3833 80.3048 93.0333 80.6881 92.65C80.6548 92.2 80.6464 91.7667 80.6631 91.35C80.6798 91 80.7214 90.65 80.7881 90.3C80.8548 89.95 80.9798 89.6833 81.1631 89.5C81.3798 89.3 81.6881 89.175 82.0881 89.125C82.4881 89.0583 82.8214 89.0667 83.0881 89.15C83.4714 89.2667 83.7631 89.4333 83.9631 89.65C84.1631 89.85 84.2798 90.15 84.3131 90.55C84.3298 90.7 84.3298 90.8833 84.3131 91.1C84.2964 91.3 84.2881 91.5083 84.2881 91.725C84.2881 91.9417 84.3048 92.15 84.3381 92.35C84.3714 92.5333 84.4381 92.6833 84.5381 92.8C84.8381 93.2 85.1881 93.6167 85.5881 94.05C86.0048 94.4833 86.4298 94.925 86.8631 95.375C87.3131 95.825 87.7548 96.2833 88.1881 96.75C88.6214 97.2 89.0298 97.65 89.4131 98.1C89.5964 98.3167 89.7798 98.5667 89.9631 98.85C90.1464 99.1167 90.2714 99.3833 90.3381 99.65C90.4214 99.9167 90.4214 100.175 90.3381 100.425C90.2548 100.675 90.0381 100.883 89.6881 101.05C89.4381 101.167 89.1881 101.217 88.9381 101.2C88.7048 101.183 88.4714 101.125 88.2381 101.025C88.0048 100.925 87.7881 100.8 87.5881 100.65C87.3881 100.5 87.2048 100.342 87.0381 100.175L82.5131 96.025L78.3881 99.5ZM100.43 89.95V89.075C100.43 88.8583 100.455 88.6583 100.505 88.475C100.539 88.3083 100.597 88.1417 100.68 87.975C100.78 87.7917 100.922 87.6333 101.105 87.5C101.322 87.35 101.58 87.2667 101.88 87.25C102.18 87.2333 102.464 87.275 102.73 87.375C103.014 87.475 103.255 87.6333 103.455 87.85C103.655 88.0667 103.755 88.325 103.755 88.625L103.78 89.95H105.755C105.872 89.9833 106.055 89.9917 106.305 89.975C106.555 89.9583 106.739 89.95 106.855 89.95C107.155 89.95 107.472 89.95 107.805 89.95C108.139 89.9333 108.447 89.9583 108.73 90.025C109.014 90.0917 109.255 90.225 109.455 90.425C109.655 90.625 109.772 90.9333 109.805 91.35C109.855 91.8 109.789 92.1417 109.605 92.375C109.439 92.5917 109.205 92.75 108.905 92.85C108.622 92.9333 108.305 92.9667 107.955 92.95C107.622 92.9333 107.314 92.9167 107.03 92.9L103.98 92.925L104.005 94.125C104.005 94.2583 104.005 94.375 104.005 94.475C104.005 94.575 104.022 94.6917 104.055 94.825C104.105 95.0083 104.18 95.1667 104.28 95.3C104.397 95.4167 104.514 95.5417 104.63 95.675C104.88 95.9583 105.164 96.2417 105.48 96.525C105.797 96.7917 106.122 97.0667 106.455 97.35C106.805 97.6167 107.139 97.8833 107.455 98.15C107.789 98.4167 108.089 98.6833 108.355 98.95C108.672 99.2833 108.955 99.6333 109.205 100C109.472 100.367 109.539 100.808 109.405 101.325C109.305 101.658 109.139 101.883 108.905 102C108.672 102.1 108.414 102.133 108.13 102.1C107.864 102.05 107.58 101.967 107.28 101.85C106.997 101.717 106.755 101.583 106.555 101.45C105.755 100.933 105.014 100.383 104.33 99.8C103.647 99.2167 102.964 98.6083 102.28 97.975C102.264 97.9583 102.139 98.0417 101.905 98.225C101.672 98.4083 101.397 98.6417 101.08 98.925C100.764 99.1917 100.43 99.475 100.08 99.775C99.7303 100.058 99.4219 100.308 99.1553 100.525C98.8886 100.725 98.5553 100.95 98.1553 101.2C97.7553 101.433 97.3469 101.625 96.9303 101.775C96.5303 101.925 96.1386 102 95.7553 102C95.3719 101.983 95.0719 101.825 94.8553 101.525C94.6386 101.192 94.5386 100.9 94.5553 100.65C94.5719 100.383 94.6553 100.142 94.8053 99.925C94.9553 99.7083 95.1553 99.5 95.4053 99.3C95.6553 99.1 95.9136 98.9 96.1803 98.7C96.7303 98.2833 97.3386 97.8083 98.0053 97.275C98.6719 96.7417 99.2886 96.1917 99.8553 95.625C100.089 95.3917 100.214 95.1833 100.23 95C100.264 94.8 100.28 94.5417 100.28 94.225L100.305 92.875H97.5803C97.0136 92.9083 96.5136 92.8917 96.0803 92.825C95.6969 92.7583 95.3386 92.6417 95.0053 92.475C94.6886 92.2917 94.5136 92.0083 94.4803 91.625C94.4636 91.4417 94.4719 91.2583 94.5053 91.075C94.5386 90.875 94.5969 90.7 94.6803 90.55C94.7636 90.3833 94.8803 90.25 95.0303 90.15C95.1803 90.0333 95.3553 89.9667 95.5553 89.95C95.6719 89.9333 95.7886 89.925 95.9053 89.925C96.0386 89.925 96.1803 89.925 96.3303 89.925C96.3803 89.925 96.4886 89.925 96.6553 89.925C96.8386 89.925 97.0386 89.9333 97.2553 89.95C97.4719 89.95 97.6719 89.95 97.8553 89.95C98.0386 89.95 98.1636 89.95 98.2303 89.95H100.43ZM95.0553 107.175C94.7886 107.158 94.5219 107.125 94.2553 107.075C94.0053 107.008 93.7803 106.925 93.5803 106.825C93.3803 106.708 93.2136 106.55 93.0803 106.35C92.9636 106.15 92.9053 105.883 92.9053 105.55C92.9053 105.217 93.0136 104.925 93.2303 104.675C93.3636 104.542 93.5303 104.442 93.7303 104.375C93.9303 104.308 94.1219 104.258 94.3053 104.225C94.4886 104.192 94.6469 104.175 94.7803 104.175C94.9303 104.175 95.0136 104.175 95.0303 104.175L108.705 104.2C109.139 104.2 109.53 104.208 109.88 104.225C110.247 104.225 110.572 104.342 110.855 104.575C111.205 104.892 111.38 105.25 111.38 105.65C111.38 105.9 111.305 106.133 111.155 106.35C111.005 106.55 110.805 106.692 110.555 106.775C110.222 106.908 109.872 107 109.505 107.05C109.155 107.1 108.805 107.133 108.455 107.15C107.239 107.2 106.039 107.217 104.855 107.2C103.672 107.183 102.522 107.175 101.405 107.175C100.205 107.175 99.0303 107.183 97.8803 107.2C96.7469 107.217 95.8053 107.208 95.0553 107.175Z" fill="#979797" fill-opacity="0.5"/>
</svg>
