<svg width="153" height="135" viewBox="0 0 153 135" fill="none" xmlns="http://www.w3.org/2000/svg">
<path d="M4.51052 126.99C3.40452 126.99 2.64852 125.8 2.64852 123.826C2.64852 121.852 3.40452 120.662 4.51052 120.662C5.60252 120.662 6.37252 121.852 6.37252 123.826C6.37252 125.8 5.60252 126.99 4.51052 126.99ZM4.51052 119.36C2.62052 119.36 1.26252 121.096 1.26252 123.826C1.26252 126.556 2.62052 128.278 4.51052 128.278C6.40052 128.278 7.75852 126.556 7.75852 123.826C7.75852 121.096 6.40052 119.36 4.51052 119.36ZM12.9105 123.378H10.9365V118.436H9.49452V131.092H10.9365V124.568H12.9105V123.378ZM21.8274 124.442C19.8814 123.812 18.7334 122.258 18.7334 120.648V120.41H21.4354V119.248H14.5194V120.41H17.2634V120.648C17.2634 122.356 16.1294 123.994 14.1274 124.666L14.8834 125.8C16.3954 125.268 17.4594 124.218 18.0194 122.874C18.5794 124.12 19.6434 125.1 21.0994 125.562L21.8274 124.442ZM15.9194 127.858H23.0034V131.078H24.4454V126.696H15.9194V127.858ZM23.0034 118.422V126.066H24.4454V118.422H23.0034ZM36.7309 123.854C37.0389 122.216 37.0389 120.97 37.0389 120.116V119.388H30.6829V120.564H35.6249C35.6109 121.348 35.5689 122.342 35.3169 123.7L36.7309 123.854ZM37.7809 124.484C36.5349 124.68 35.1769 124.764 33.8609 124.82V122.272H32.4329V124.862C31.5369 124.89 30.6689 124.89 29.9129 124.89L30.0669 126.066C32.2649 126.066 35.2469 125.996 37.8789 125.534L37.7809 124.484ZM33.2729 127.088H31.8169V130.84H40.4129V129.664H33.2729V127.088ZM40.0069 122.44V118.436H38.5509V127.928H40.0069V123.63H41.6869V122.44H40.0069ZM50.6178 123.98C48.6718 123.364 47.5378 121.81 47.5378 120.144V118.926H46.0678V120.144C46.0678 121.866 44.9338 123.532 42.9458 124.204L43.6458 125.338C45.1578 124.82 46.2498 123.742 46.8238 122.384C47.3838 123.658 48.4618 124.624 49.9178 125.1L50.6178 123.98ZM46.4878 127.424H51.9338V129.776H46.4878V127.424ZM45.0738 130.924H53.3478V126.276H45.0738V130.924ZM51.9058 118.45V125.618H53.3478V118.45H51.9058ZM57.3507 122.202C57.3507 121.096 58.1627 120.368 59.2827 120.368C60.3747 120.368 61.1867 121.096 61.1867 122.202C61.1867 123.294 60.3747 124.022 59.2827 124.022C58.1627 124.022 57.3507 123.294 57.3507 122.202ZM64.8407 121.348V123.056H62.4327C62.5167 122.79 62.5587 122.51 62.5587 122.202C62.5587 121.894 62.5167 121.614 62.4467 121.348H64.8407ZM64.8407 124.218V125.884H66.2827V118.422H64.8407V120.172H61.7887C61.2007 119.542 60.3187 119.15 59.2827 119.15C57.3927 119.15 55.9787 120.41 55.9787 122.202C55.9787 123.98 57.3927 125.24 59.2827 125.24C60.3047 125.24 61.2007 124.862 61.7887 124.218H64.8407ZM62.0687 129.944C60.2767 129.944 59.2267 129.482 59.2267 128.614C59.2267 127.774 60.2767 127.298 62.0687 127.298C63.8747 127.298 64.9107 127.774 64.9107 128.614C64.9107 129.482 63.8747 129.944 62.0687 129.944ZM62.0687 126.164C59.4367 126.164 57.8127 127.074 57.8127 128.614C57.8127 130.168 59.4367 131.078 62.0687 131.078C64.7007 131.078 66.3387 130.168 66.3387 128.614C66.3387 127.074 64.7007 126.164 62.0687 126.164ZM76.0396 124.218C74.1636 123.602 73.0856 122.062 73.0856 120.438V119.08H71.6296V120.326C71.6296 122.146 70.5516 123.868 68.5636 124.554L69.3336 125.702C70.7896 125.17 71.8256 124.078 72.3856 122.706C72.9176 123.896 73.9256 124.862 75.2836 125.352L76.0396 124.218ZM74.4856 129.944C72.7216 129.944 71.6996 129.51 71.6996 128.698C71.6996 127.914 72.7216 127.466 74.4856 127.466C76.2496 127.466 77.2716 127.914 77.2716 128.698C77.2716 129.51 76.2496 129.944 74.4856 129.944ZM74.4856 126.332C71.8816 126.332 70.2716 127.214 70.2716 128.698C70.2716 130.196 71.8816 131.078 74.4856 131.078C77.1036 131.078 78.6996 130.196 78.6996 128.698C78.6996 127.214 77.1036 126.332 74.4856 126.332ZM78.5596 121.558V118.422H77.1176V126.024H78.5596V122.748H80.3516V121.558H78.5596ZM90.5145 118.422V131.106H91.9705V118.422H90.5145ZM85.2365 119.36C83.3605 119.36 81.9885 121.096 81.9885 123.812C81.9885 126.556 83.3605 128.278 85.2365 128.278C87.1265 128.278 88.4985 126.556 88.4985 123.812C88.4985 121.096 87.1265 119.36 85.2365 119.36ZM85.2365 120.662C86.3425 120.662 87.1125 121.852 87.1125 123.812C87.1125 125.8 86.3425 126.99 85.2365 126.99C84.1445 126.99 83.3745 125.8 83.3745 123.812C83.3745 121.852 84.1445 120.662 85.2365 120.662ZM99.1459 121.894C99.1459 120.844 99.9439 120.158 101.05 120.158C102.156 120.158 102.968 120.844 102.968 121.894C102.968 122.958 102.156 123.658 101.05 123.658C99.9439 123.658 99.1459 122.958 99.1459 121.894ZM106.622 122.468V125.128H108.064V118.45H106.622V121.278H104.27C103.99 119.892 102.716 118.968 101.05 118.968C99.1599 118.968 97.7599 120.172 97.7599 121.894C97.7599 123.644 99.1599 124.848 101.05 124.848C102.73 124.848 104.004 123.896 104.284 122.468H106.622ZM102.156 129.818H100.35V128.348H102.156V129.818ZM102.156 125.856V127.284H100.35V125.856H99.0059V130.924H103.486V125.856H102.156ZM107.154 125.758H105.726V126.766C105.726 128.012 105.012 129.328 103.486 129.958L104.214 131.05C105.292 130.602 106.006 129.79 106.426 128.838C106.818 129.804 107.546 130.616 108.666 131.05L109.38 129.958C107.854 129.398 107.154 128.11 107.154 126.766V125.758ZM121.293 122.216C118.787 121.894 116.925 120.508 116.925 119.052V118.562H115.441V119.052C115.441 120.522 113.607 121.894 111.073 122.216L111.605 123.336C113.663 123.056 115.371 122.104 116.183 120.788C117.009 122.104 118.717 123.056 120.775 123.336L121.293 122.216ZM118.997 129.776H113.299V128.418H118.997V129.776ZM118.997 127.312H113.299V126.024H111.871V130.924H120.439V126.024H118.997V127.312ZM110.457 124.092V125.24H121.909V124.092H110.457ZM125.52 119.668H124.092V127.886H125.17C127.13 127.886 129.174 127.732 131.344 127.284L131.19 126.08C129.202 126.486 127.312 126.64 125.52 126.654V119.668ZM132.352 118.436V131.078H133.794V118.436H132.352ZM138.175 120.802H142.613V119.626H136.733V127.984H137.769C140.051 127.984 141.759 127.914 143.677 127.564L143.523 126.374C141.759 126.682 140.219 126.766 138.175 126.78V120.802ZM147.989 123.294H146.015V118.422H144.573V131.092H146.015V124.484H147.989V123.294ZM150.48 130.182C151.082 130.182 151.558 129.72 151.558 129.062C151.558 128.404 151.082 127.914 150.48 127.914C149.878 127.914 149.402 128.404 149.402 129.062C149.402 129.72 149.878 130.182 150.48 130.182Z" fill="#CBCBCB"/>
<path fill-rule="evenodd" clip-rule="evenodd" d="M50.44 18.9819L92.4619 4.0265L92.4721 4.05499C98.9482 2.25094 105.944 6.09234 108.388 12.9592C110.832 19.826 107.836 27.2234 101.676 29.9164L101.686 29.9446L100.94 30.21C100.92 30.2174 100.899 30.2249 100.878 30.2323C100.857 30.2397 100.837 30.247 100.816 30.2542L60.545 44.5864L60.4724 44.6125L60.3996 44.6382L59.6641 44.9L59.6541 44.8718C53.178 46.6757 46.1825 42.8343 43.7386 35.9676C41.2948 29.1008 44.2906 21.7036 50.4501 19.0105L50.44 18.9819Z" fill="#C4C4C4" fill-opacity="0.5"/>
<path fill-rule="evenodd" clip-rule="evenodd" d="M49.314 54.5724L91.3373 39.6165L91.3476 39.6453C97.8239 37.8413 104.82 41.6826 107.264 48.5494C109.707 55.4162 106.711 62.8135 100.552 65.5067L100.561 65.5346L99.8534 65.7866C99.8202 65.7987 99.7869 65.8107 99.7535 65.8226C99.72 65.8345 99.6866 65.8463 99.6531 65.8578L59.3998 80.1838L59.3463 80.203L59.2926 80.2219L58.5381 80.4905L58.5281 80.4623C52.0518 82.2663 45.0559 78.4249 42.6121 71.5582C40.1682 64.6914 43.1643 57.294 49.3241 54.6009L49.314 54.5724Z" fill="#C4C4C4" fill-opacity="0.5"/>
<path fill-rule="evenodd" clip-rule="evenodd" d="M65.8048 21.3473L102.333 41.8446L102.389 41.8754L102.444 41.9064L103.188 42.324L103.173 42.3501C109.195 46.2698 111.22 54.2458 107.653 60.6024C105.473 64.4879 101.687 66.9053 97.593 67.4903L84.8895 71.1492C87.3066 68.3201 87.188 65.7924 85.0989 63.7195L48.14 42.9808L48.1548 42.9544C42.1335 39.0346 40.1086 31.0588 43.6753 24.7025C45.5807 21.3068 48.7121 19.0324 52.2043 18.1224L66.9599 13.0839C63.4835 15.3399 63.8911 19.7853 65.8048 21.3473Z" fill="#C4C4C4"/>
<path d="M60.525 108.6C60.375 108.633 60.0333 108.65 59.5 108.65C58.9833 108.667 58.3667 108.675 57.65 108.675C56.9333 108.675 56.1667 108.667 55.35 108.65C54.5333 108.65 53.7667 108.642 53.05 108.625C52.3333 108.625 51.7167 108.625 51.2 108.625C50.6833 108.625 50.3583 108.625 50.225 108.625C49.8917 108.625 49.5417 108.6 49.175 108.55C48.8083 108.5 48.4833 108.367 48.2 108.15C48.0167 108 47.8667 107.817 47.75 107.6C47.65 107.367 47.575 107.142 47.525 106.925C47.475 106.708 47.4417 106.517 47.425 106.35C47.4083 106.183 47.4 106.092 47.4 106.075V104.075C47.4 103.825 47.4 103.583 47.4 103.35C47.4 103.1 47.4 102.875 47.4 102.675C47.4167 102.475 47.425 102.317 47.425 102.2C47.425 102.067 47.425 101.992 47.425 101.975C47.425 101.742 47.4667 101.525 47.55 101.325C47.6333 101.108 47.7917 100.95 48.025 100.85C48.1417 100.8 48.2667 100.767 48.4 100.75C48.55 100.733 48.6917 100.717 48.825 100.7C49.1083 100.683 49.3917 100.733 49.675 100.85C49.975 100.95 50.1583 101.167 50.225 101.5V102.4C50.2583 102.65 50.3167 102.775 50.4 102.775C50.4833 102.758 50.625 102.758 50.825 102.775H60.95V101.875C60.9667 101.575 61.0333 101.325 61.15 101.125C61.2667 100.908 61.475 100.775 61.775 100.725C62.0083 100.675 62.3 100.658 62.65 100.675C63 100.692 63.2667 100.783 63.45 100.95C63.6167 101.1 63.7 101.283 63.7 101.5C63.7 101.7 63.7 101.9 63.7 102.1C63.6667 102.867 63.6667 103.658 63.7 104.475C63.7333 105.275 63.7083 106.058 63.625 106.825C63.6083 107.058 63.5667 107.258 63.5 107.425C63.4333 107.575 63.3333 107.742 63.2 107.925C63.0667 108.125 62.8833 108.267 62.65 108.35C62.4333 108.433 62.2 108.492 61.95 108.525C61.7 108.558 61.45 108.575 61.2 108.575C60.95 108.575 60.725 108.583 60.525 108.6ZM56.4 99.625C56.2 99.7083 55.9917 99.7667 55.775 99.8C55.575 99.8167 55.3667 99.825 55.15 99.825H49.75C49.3833 99.825 49.0083 99.825 48.625 99.825C48.2417 99.825 47.8583 99.8083 47.475 99.775C47.1083 99.7583 46.8083 99.625 46.575 99.375C46.3417 99.125 46.2083 98.7917 46.175 98.375C46.1583 98.225 46.1417 98.0083 46.125 97.725C46.125 97.4417 46.1167 97.15 46.1 96.85C46.1 96.55 46.1 96.2667 46.1 96C46.1 95.7333 46.1 95.5333 46.1 95.4V95.15C46.0833 94.9667 46.0833 94.7667 46.1 94.55C46.1167 94.3333 46.2 94.1333 46.35 93.95C46.5833 93.6667 46.9 93.5 47.3 93.45C47.7167 93.3833 48.1167 93.35 48.5 93.35H54.15V91.875H49.15C49.05 91.875 48.95 91.8833 48.85 91.9C48.75 91.9 48.65 91.9 48.55 91.9C48.45 91.9167 48.3417 91.925 48.225 91.925C48.125 91.925 48.0167 91.925 47.9 91.925C47.5667 91.925 47.275 91.9 47.025 91.85C46.7417 91.7833 46.5083 91.6 46.325 91.3C46.2083 91.1 46.1333 90.8833 46.1 90.65C46.0667 90.4 46.0833 90.1667 46.15 89.95C46.2333 89.6667 46.425 89.4583 46.725 89.325C47.025 89.175 47.275 89.0833 47.475 89.05C47.725 89 48 88.975 48.3 88.975H48.75C48.8333 88.975 48.9167 88.9833 49 89C49.0833 89 49.1667 89 49.25 89H54.325C55.1917 89 55.8583 89.175 56.325 89.525C56.8083 89.875 57.05 90.3667 57.05 91V93.675C57.05 93.925 56.9917 94.2333 56.875 94.6C56.775 94.9667 56.5917 95.2333 56.325 95.4C56.1083 95.5333 55.8833 95.6167 55.65 95.65C55.4333 95.6667 55.2083 95.6667 54.975 95.65H49.2V97.3H54.9C55.0667 97.3 55.2333 97.3 55.4 97.3C55.5667 97.3 55.7333 97.3083 55.9 97.325C56.1833 97.3417 56.4167 97.4417 56.6 97.625C56.8 97.8083 56.9417 98.025 57.025 98.275C57.225 98.925 57.0167 99.375 56.4 99.625ZM60.25 96.05C59.7667 96.0167 59.3333 95.9917 58.95 95.975C58.5667 95.9417 58.2667 95.7583 58.05 95.425C57.95 95.2583 57.9 95.05 57.9 94.8C57.9 94.55 57.9167 94.3333 57.95 94.15C58 93.9667 58.0917 93.8167 58.225 93.7C58.3583 93.5667 58.5917 93.4583 58.925 93.375C58.9917 93.3583 59.1167 93.35 59.3 93.35C59.4833 93.3333 59.675 93.3167 59.875 93.3C60.0917 93.2833 60.2917 93.275 60.475 93.275C60.6583 93.2583 60.7833 93.25 60.85 93.25V90.85C60.8333 90.6667 60.825 90.4833 60.825 90.3C60.8417 90.1167 60.875 89.9333 60.925 89.75C60.9583 89.6167 60.9917 89.4917 61.025 89.375C61.0583 89.2583 61.1333 89.1333 61.25 89C61.3833 88.8333 61.5667 88.7167 61.8 88.65C62.05 88.5833 62.3167 88.5667 62.6 88.6C63.1333 88.6833 63.475 88.8917 63.625 89.225C63.725 89.425 63.7833 89.675 63.8 89.975C63.8333 90.2583 63.85 90.4333 63.85 90.5V98.425H63.825C63.825 98.4417 63.8167 98.5 63.8 98.6C63.7833 98.7 63.75 98.825 63.7 98.975C63.65 99.1083 63.575 99.25 63.475 99.4C63.375 99.55 63.2417 99.675 63.075 99.775C62.8417 99.9083 62.6083 99.975 62.375 99.975C62.0917 99.975 61.8167 99.8833 61.55 99.7C61.35 99.5667 61.2083 99.4 61.125 99.2C61.025 99.0167 60.9583 98.8333 60.925 98.65C60.8917 98.4667 60.8667 98.2833 60.85 98.1V96.05H60.25ZM51.7 105.025C51.55 105.025 51.3833 105.025 51.2 105.025C51.0333 105.008 50.8833 105.017 50.75 105.05C50.6167 105.067 50.5 105.117 50.4 105.2C50.3167 105.267 50.275 105.375 50.275 105.525C50.275 105.708 50.2833 105.842 50.3 105.925C50.3833 106.208 50.5083 106.358 50.675 106.375C50.8583 106.375 51.0583 106.367 51.275 106.35C51.7417 106.35 52.25 106.358 52.8 106.375C53.35 106.375 53.875 106.383 54.375 106.4C54.425 106.4 54.5833 106.4 54.85 106.4C55.1333 106.4 55.4667 106.4 55.85 106.4C56.25 106.383 56.675 106.375 57.125 106.375C57.5917 106.375 58.0167 106.375 58.4 106.375C58.8 106.358 59.1333 106.35 59.4 106.35C59.6833 106.35 59.85 106.35 59.9 106.35C59.9833 106.35 60.0833 106.358 60.2 106.375C60.3167 106.392 60.425 106.392 60.525 106.375C60.625 106.358 60.7083 106.317 60.775 106.25C60.8417 106.183 60.875 106.083 60.875 105.95C60.875 105.817 60.8833 105.7 60.9 105.6C60.9167 105.5 60.875 105.392 60.775 105.275C60.6583 105.142 60.5167 105.067 60.35 105.05C60.2 105.033 60.0417 105.033 59.875 105.05C59.8583 105.05 59.6417 105.05 59.225 105.05C58.8083 105.05 58.3 105.05 57.7 105.05C57.1 105.05 56.45 105.05 55.75 105.05C55.05 105.033 54.4 105.025 53.8 105.025C53.2167 105.025 52.7167 105.025 52.3 105.025C51.9 105.025 51.7 105.025 51.7 105.025ZM82.7631 104.275C82.8131 104.292 82.8631 104.3 82.9131 104.3C82.9631 104.283 83.0131 104.275 83.0631 104.275C83.3464 104.308 83.6048 104.367 83.8381 104.45C84.0881 104.517 84.3298 104.658 84.5631 104.875C84.7964 105.075 84.9131 105.358 84.9131 105.725C84.9131 105.908 84.8798 106.108 84.8131 106.325C84.7631 106.525 84.6881 106.683 84.5881 106.8C84.4548 106.933 84.2881 107.033 84.0881 107.1C83.9048 107.167 83.7131 107.217 83.5131 107.25C83.3298 107.267 83.1631 107.275 83.0131 107.275C82.8798 107.275 82.8048 107.275 82.7881 107.275H68.9631C68.8798 107.275 68.7964 107.283 68.7131 107.3C68.6464 107.3 68.5714 107.3 68.4881 107.3C68.1214 107.317 67.7381 107.317 67.3381 107.3C66.9381 107.267 66.5964 107.133 66.3131 106.9C65.9631 106.583 65.7881 106.225 65.7881 105.825C65.7881 105.575 65.8631 105.317 66.0131 105.05C66.1631 104.783 66.3631 104.6 66.6131 104.5C66.9464 104.367 67.2881 104.3 67.6381 104.3C68.0048 104.3 68.3714 104.292 68.7381 104.275H68.8631C69.1464 104.275 69.4381 104.275 69.7381 104.275C70.0381 104.258 70.3381 104.25 70.6381 104.25C70.6214 104.183 70.6131 104.1 70.6131 104V103.9V101.975C70.6131 101.825 70.6381 101.667 70.6881 101.5C70.7214 101.367 70.7798 101.225 70.8631 101.075C70.9631 100.925 71.1048 100.783 71.2881 100.65C71.5048 100.5 71.7464 100.408 72.0131 100.375C72.2798 100.342 72.5298 100.367 72.7631 100.45C73.0131 100.533 73.2214 100.675 73.3881 100.875C73.5714 101.058 73.6714 101.292 73.6881 101.575C73.6881 101.692 73.6881 101.858 73.6881 102.075C73.7048 102.275 73.7131 102.5 73.7131 102.75C73.7298 102.983 73.7381 103.233 73.7381 103.5C73.7381 103.767 73.7381 104.025 73.7381 104.275H76.1381H76.4131C76.3964 104.208 76.3881 104.117 76.3881 104V103.9V101.975C76.3881 101.825 76.4131 101.667 76.4631 101.5C76.4964 101.367 76.5548 101.225 76.6381 101.075C76.7381 100.925 76.8798 100.783 77.0631 100.65C77.2798 100.5 77.5214 100.408 77.7881 100.375C78.0548 100.342 78.3048 100.367 78.5381 100.45C78.7881 100.533 78.9964 100.675 79.1631 100.875C79.3464 101.058 79.4464 101.292 79.4631 101.575C79.4631 101.692 79.4631 101.858 79.4631 102.075C79.4798 102.275 79.4881 102.5 79.4881 102.75C79.5048 102.983 79.5131 103.233 79.5131 103.5C79.5131 103.767 79.5131 104.025 79.5131 104.275H80.9381C81.2381 104.292 81.5464 104.292 81.8631 104.275C82.1964 104.242 82.4964 104.242 82.7631 104.275ZM71.3881 99.5C71.0714 99.7833 70.7214 100.075 70.3381 100.375C69.9714 100.675 69.5714 100.892 69.1381 101.025C68.8381 101.108 68.5131 101.1 68.1631 101C67.8131 100.9 67.5464 100.725 67.3631 100.475C67.2298 100.275 67.1631 100.083 67.1631 99.9C67.1631 99.7167 67.1964 99.5417 67.2631 99.375C67.3464 99.1917 67.4464 99.0167 67.5631 98.85C67.6798 98.6833 67.8048 98.525 67.9381 98.375C68.4381 97.7917 68.9298 97.2417 69.4131 96.725C69.9131 96.2083 70.4464 95.7 71.0131 95.2C71.1964 95.05 71.4381 94.8333 71.7381 94.55C72.0381 94.2667 72.3298 93.9833 72.6131 93.7C72.9464 93.3833 73.3048 93.0333 73.6881 92.65C73.6548 92.2 73.6464 91.7667 73.6631 91.35C73.6798 91 73.7214 90.65 73.7881 90.3C73.8548 89.95 73.9798 89.6833 74.1631 89.5C74.3798 89.3 74.6881 89.175 75.0881 89.125C75.4881 89.0583 75.8214 89.0667 76.0881 89.15C76.4714 89.2667 76.7631 89.4333 76.9631 89.65C77.1631 89.85 77.2798 90.15 77.3131 90.55C77.3298 90.7 77.3298 90.8833 77.3131 91.1C77.2964 91.3 77.2881 91.5083 77.2881 91.725C77.2881 91.9417 77.3048 92.15 77.3381 92.35C77.3714 92.5333 77.4381 92.6833 77.5381 92.8C77.8381 93.2 78.1881 93.6167 78.5881 94.05C79.0048 94.4833 79.4298 94.925 79.8631 95.375C80.3131 95.825 80.7548 96.2833 81.1881 96.75C81.6214 97.2 82.0298 97.65 82.4131 98.1C82.5964 98.3167 82.7798 98.5667 82.9631 98.85C83.1464 99.1167 83.2714 99.3833 83.3381 99.65C83.4214 99.9167 83.4214 100.175 83.3381 100.425C83.2548 100.675 83.0381 100.883 82.6881 101.05C82.4381 101.167 82.1881 101.217 81.9381 101.2C81.7048 101.183 81.4714 101.125 81.2381 101.025C81.0048 100.925 80.7881 100.8 80.5881 100.65C80.3881 100.5 80.2048 100.342 80.0381 100.175L75.5131 96.025L71.3881 99.5ZM93.4303 89.95V89.075C93.4303 88.8583 93.4553 88.6583 93.5053 88.475C93.5386 88.3083 93.5969 88.1417 93.6803 87.975C93.7803 87.7917 93.9219 87.6333 94.1053 87.5C94.3219 87.35 94.5803 87.2667 94.8803 87.25C95.1803 87.2333 95.4636 87.275 95.7303 87.375C96.0136 87.475 96.2553 87.6333 96.4553 87.85C96.6553 88.0667 96.7553 88.325 96.7553 88.625L96.7803 89.95H98.7553C98.8719 89.9833 99.0553 89.9917 99.3053 89.975C99.5553 89.9583 99.7386 89.95 99.8553 89.95C100.155 89.95 100.472 89.95 100.805 89.95C101.139 89.9333 101.447 89.9583 101.73 90.025C102.014 90.0917 102.255 90.225 102.455 90.425C102.655 90.625 102.772 90.9333 102.805 91.35C102.855 91.8 102.789 92.1417 102.605 92.375C102.439 92.5917 102.205 92.75 101.905 92.85C101.622 92.9333 101.305 92.9667 100.955 92.95C100.622 92.9333 100.314 92.9167 100.03 92.9L96.9803 92.925L97.0053 94.125C97.0053 94.2583 97.0053 94.375 97.0053 94.475C97.0053 94.575 97.0219 94.6917 97.0553 94.825C97.1053 95.0083 97.1803 95.1667 97.2803 95.3C97.3969 95.4167 97.5136 95.5417 97.6303 95.675C97.8803 95.9583 98.1636 96.2417 98.4803 96.525C98.7969 96.7917 99.1219 97.0667 99.4553 97.35C99.8053 97.6167 100.139 97.8833 100.455 98.15C100.789 98.4167 101.089 98.6833 101.355 98.95C101.672 99.2833 101.955 99.6333 102.205 100C102.472 100.367 102.539 100.808 102.405 101.325C102.305 101.658 102.139 101.883 101.905 102C101.672 102.1 101.414 102.133 101.13 102.1C100.864 102.05 100.58 101.967 100.28 101.85C99.9969 101.717 99.7553 101.583 99.5553 101.45C98.7553 100.933 98.0136 100.383 97.3303 99.8C96.6469 99.2167 95.9636 98.6083 95.2803 97.975C95.2636 97.9583 95.1386 98.0417 94.9053 98.225C94.6719 98.4083 94.3969 98.6417 94.0803 98.925C93.7636 99.1917 93.4303 99.475 93.0803 99.775C92.7303 100.058 92.4219 100.308 92.1553 100.525C91.8886 100.725 91.5553 100.95 91.1553 101.2C90.7553 101.433 90.3469 101.625 89.9303 101.775C89.5303 101.925 89.1386 102 88.7553 102C88.3719 101.983 88.0719 101.825 87.8553 101.525C87.6386 101.192 87.5386 100.9 87.5553 100.65C87.5719 100.383 87.6553 100.142 87.8053 99.925C87.9553 99.7083 88.1553 99.5 88.4053 99.3C88.6553 99.1 88.9136 98.9 89.1803 98.7C89.7303 98.2833 90.3386 97.8083 91.0053 97.275C91.6719 96.7417 92.2886 96.1917 92.8553 95.625C93.0886 95.3917 93.2136 95.1833 93.2303 95C93.2636 94.8 93.2803 94.5417 93.2803 94.225L93.3053 92.875H90.5803C90.0136 92.9083 89.5136 92.8917 89.0803 92.825C88.6969 92.7583 88.3386 92.6417 88.0053 92.475C87.6886 92.2917 87.5136 92.0083 87.4803 91.625C87.4636 91.4417 87.4719 91.2583 87.5053 91.075C87.5386 90.875 87.5969 90.7 87.6803 90.55C87.7636 90.3833 87.8803 90.25 88.0303 90.15C88.1803 90.0333 88.3553 89.9667 88.5553 89.95C88.6719 89.9333 88.7886 89.925 88.9053 89.925C89.0386 89.925 89.1803 89.925 89.3303 89.925C89.3803 89.925 89.4886 89.925 89.6553 89.925C89.8386 89.925 90.0386 89.9333 90.2553 89.95C90.4719 89.95 90.6719 89.95 90.8553 89.95C91.0386 89.95 91.1636 89.95 91.2303 89.95H93.4303ZM88.0553 107.175C87.7886 107.158 87.5219 107.125 87.2553 107.075C87.0053 107.008 86.7803 106.925 86.5803 106.825C86.3803 106.708 86.2136 106.55 86.0803 106.35C85.9636 106.15 85.9053 105.883 85.9053 105.55C85.9053 105.217 86.0136 104.925 86.2303 104.675C86.3636 104.542 86.5303 104.442 86.7303 104.375C86.9303 104.308 87.1219 104.258 87.3053 104.225C87.4886 104.192 87.6469 104.175 87.7803 104.175C87.9303 104.175 88.0136 104.175 88.0303 104.175L101.705 104.2C102.139 104.2 102.53 104.208 102.88 104.225C103.247 104.225 103.572 104.342 103.855 104.575C104.205 104.892 104.38 105.25 104.38 105.65C104.38 105.9 104.305 106.133 104.155 106.35C104.005 106.55 103.805 106.692 103.555 106.775C103.222 106.908 102.872 107 102.505 107.05C102.155 107.1 101.805 107.133 101.455 107.15C100.239 107.2 99.0386 107.217 97.8553 107.2C96.6719 107.183 95.5219 107.175 94.4053 107.175C93.2053 107.175 92.0303 107.183 90.8803 107.2C89.7469 107.217 88.8053 107.208 88.0553 107.175Z" fill="#979797" fill-opacity="0.5"/>
</svg>
