<svg width="75" height="116" viewBox="0 0 75 116" fill="none" xmlns="http://www.w3.org/2000/svg">
<path fill-rule="evenodd" clip-rule="evenodd" d="M12.44 18.9819L54.4619 4.0265L54.4721 4.05499C60.9482 2.25094 67.944 6.09234 70.3878 12.9592C72.8317 19.826 69.8358 27.2234 63.676 29.9164L63.686 29.9446L62.9403 30.21C62.9197 30.2174 62.8989 30.2249 62.8782 30.2323C62.8574 30.2397 62.8367 30.247 62.8159 30.2542L22.545 44.5864L22.4724 44.6125L22.3996 44.6382L21.6641 44.9L21.6541 44.8718C15.178 46.6757 8.18246 42.8343 5.73863 35.9676C3.2948 29.1008 6.29058 21.7036 12.4501 19.0105L12.44 18.9819Z" fill="#C4C4C4" fill-opacity="0.5"/>
<path fill-rule="evenodd" clip-rule="evenodd" d="M11.314 54.5723L53.3373 39.6165L53.3475 39.6452C59.8238 37.8412 66.8196 41.6826 69.2635 48.5493C71.7073 55.4161 68.7113 62.8135 62.5515 65.5066L62.5614 65.5345L61.8534 65.7865C61.8202 65.7987 61.7868 65.8107 61.7534 65.8226C61.72 65.8345 61.6866 65.8462 61.6531 65.8578L21.3998 80.1837L21.3462 80.2029L21.2926 80.2219L20.5381 80.4904L20.528 80.4622C14.0517 82.2662 7.0559 78.4249 4.61205 71.5581C2.1682 64.6913 5.16422 57.2939 11.3241 54.6008L11.314 54.5723Z" fill="#C4C4C4" fill-opacity="0.5"/>
<path fill-rule="evenodd" clip-rule="evenodd" d="M27.8048 21.3473L64.3334 41.8446L64.3886 41.8754L64.4436 41.9064L65.1878 42.324L65.1731 42.3501C71.1948 46.2698 73.22 54.2458 69.6532 60.6024C67.4729 64.4879 63.6874 66.9053 59.593 67.4903L46.8895 71.1492C49.3066 68.3201 49.188 65.7924 47.0989 63.7195L10.14 42.9808L10.1548 42.9544C4.13355 39.0346 2.10855 31.0588 5.67528 24.7025C7.5807 21.3068 10.7121 19.0324 14.2043 18.1224L28.9599 13.0839C25.4835 15.3399 25.8911 19.7853 27.8048 21.3473Z" fill="#C4C4C4"/>
<path d="M22.525 108.6C22.375 108.633 22.0333 108.65 21.5 108.65C20.9833 108.667 20.3667 108.675 19.65 108.675C18.9333 108.675 18.1667 108.667 17.35 108.65C16.5333 108.65 15.7667 108.642 15.05 108.625C14.3333 108.625 13.7167 108.625 13.2 108.625C12.6833 108.625 12.3583 108.625 12.225 108.625C11.8917 108.625 11.5417 108.6 11.175 108.55C10.8083 108.5 10.4833 108.367 10.2 108.15C10.0167 108 9.86667 107.817 9.75 107.6C9.65 107.367 9.575 107.142 9.525 106.925C9.475 106.708 9.44167 106.517 9.425 106.35C9.40833 106.183 9.4 106.092 9.4 106.075V104.075C9.4 103.825 9.4 103.583 9.4 103.35C9.4 103.1 9.4 102.875 9.4 102.675C9.41667 102.475 9.425 102.317 9.425 102.2C9.425 102.067 9.425 101.992 9.425 101.975C9.425 101.742 9.46667 101.525 9.55 101.325C9.63333 101.108 9.79167 100.95 10.025 100.85C10.1417 100.8 10.2667 100.767 10.4 100.75C10.55 100.733 10.6917 100.717 10.825 100.7C11.1083 100.683 11.3917 100.733 11.675 100.85C11.975 100.95 12.1583 101.167 12.225 101.5V102.4C12.2583 102.65 12.3167 102.775 12.4 102.775C12.4833 102.758 12.625 102.758 12.825 102.775H22.95V101.875C22.9667 101.575 23.0333 101.325 23.15 101.125C23.2667 100.908 23.475 100.775 23.775 100.725C24.0083 100.675 24.3 100.658 24.65 100.675C25 100.692 25.2667 100.783 25.45 100.95C25.6167 101.1 25.7 101.283 25.7 101.5C25.7 101.7 25.7 101.9 25.7 102.1C25.6667 102.867 25.6667 103.658 25.7 104.475C25.7333 105.275 25.7083 106.058 25.625 106.825C25.6083 107.058 25.5667 107.258 25.5 107.425C25.4333 107.575 25.3333 107.742 25.2 107.925C25.0667 108.125 24.8833 108.267 24.65 108.35C24.4333 108.433 24.2 108.492 23.95 108.525C23.7 108.558 23.45 108.575 23.2 108.575C22.95 108.575 22.725 108.583 22.525 108.6ZM18.4 99.625C18.2 99.7083 17.9917 99.7667 17.775 99.8C17.575 99.8167 17.3667 99.825 17.15 99.825H11.75C11.3833 99.825 11.0083 99.825 10.625 99.825C10.2417 99.825 9.85833 99.8083 9.475 99.775C9.10833 99.7583 8.80833 99.625 8.575 99.375C8.34167 99.125 8.20833 98.7917 8.175 98.375C8.15833 98.225 8.14167 98.0083 8.125 97.725C8.125 97.4417 8.11667 97.15 8.1 96.85C8.1 96.55 8.1 96.2667 8.1 96C8.1 95.7333 8.1 95.5333 8.1 95.4V95.15C8.08333 94.9667 8.08333 94.7667 8.1 94.55C8.11667 94.3333 8.2 94.1333 8.35 93.95C8.58333 93.6667 8.9 93.5 9.3 93.45C9.71667 93.3833 10.1167 93.35 10.5 93.35H16.15V91.875H11.15C11.05 91.875 10.95 91.8833 10.85 91.9C10.75 91.9 10.65 91.9 10.55 91.9C10.45 91.9167 10.3417 91.925 10.225 91.925C10.125 91.925 10.0167 91.925 9.9 91.925C9.56667 91.925 9.275 91.9 9.025 91.85C8.74167 91.7833 8.50833 91.6 8.325 91.3C8.20833 91.1 8.13333 90.8833 8.1 90.65C8.06667 90.4 8.08333 90.1667 8.15 89.95C8.23333 89.6667 8.425 89.4583 8.725 89.325C9.025 89.175 9.275 89.0833 9.475 89.05C9.725 89 10 88.975 10.3 88.975H10.75C10.8333 88.975 10.9167 88.9833 11 89C11.0833 89 11.1667 89 11.25 89H16.325C17.1917 89 17.8583 89.175 18.325 89.525C18.8083 89.875 19.05 90.3667 19.05 91V93.675C19.05 93.925 18.9917 94.2333 18.875 94.6C18.775 94.9667 18.5917 95.2333 18.325 95.4C18.1083 95.5333 17.8833 95.6167 17.65 95.65C17.4333 95.6667 17.2083 95.6667 16.975 95.65H11.2V97.3H16.9C17.0667 97.3 17.2333 97.3 17.4 97.3C17.5667 97.3 17.7333 97.3083 17.9 97.325C18.1833 97.3417 18.4167 97.4417 18.6 97.625C18.8 97.8083 18.9417 98.025 19.025 98.275C19.225 98.925 19.0167 99.375 18.4 99.625ZM22.25 96.05C21.7667 96.0167 21.3333 95.9917 20.95 95.975C20.5667 95.9417 20.2667 95.7583 20.05 95.425C19.95 95.2583 19.9 95.05 19.9 94.8C19.9 94.55 19.9167 94.3333 19.95 94.15C20 93.9667 20.0917 93.8167 20.225 93.7C20.3583 93.5667 20.5917 93.4583 20.925 93.375C20.9917 93.3583 21.1167 93.35 21.3 93.35C21.4833 93.3333 21.675 93.3167 21.875 93.3C22.0917 93.2833 22.2917 93.275 22.475 93.275C22.6583 93.2583 22.7833 93.25 22.85 93.25V90.85C22.8333 90.6667 22.825 90.4833 22.825 90.3C22.8417 90.1167 22.875 89.9333 22.925 89.75C22.9583 89.6167 22.9917 89.4917 23.025 89.375C23.0583 89.2583 23.1333 89.1333 23.25 89C23.3833 88.8333 23.5667 88.7167 23.8 88.65C24.05 88.5833 24.3167 88.5667 24.6 88.6C25.1333 88.6833 25.475 88.8917 25.625 89.225C25.725 89.425 25.7833 89.675 25.8 89.975C25.8333 90.2583 25.85 90.4333 25.85 90.5V98.425H25.825C25.825 98.4417 25.8167 98.5 25.8 98.6C25.7833 98.7 25.75 98.825 25.7 98.975C25.65 99.1083 25.575 99.25 25.475 99.4C25.375 99.55 25.2417 99.675 25.075 99.775C24.8417 99.9083 24.6083 99.975 24.375 99.975C24.0917 99.975 23.8167 99.8833 23.55 99.7C23.35 99.5667 23.2083 99.4 23.125 99.2C23.025 99.0167 22.9583 98.8333 22.925 98.65C22.8917 98.4667 22.8667 98.2833 22.85 98.1V96.05H22.25ZM13.7 105.025C13.55 105.025 13.3833 105.025 13.2 105.025C13.0333 105.008 12.8833 105.017 12.75 105.05C12.6167 105.067 12.5 105.117 12.4 105.2C12.3167 105.267 12.275 105.375 12.275 105.525C12.275 105.708 12.2833 105.842 12.3 105.925C12.3833 106.208 12.5083 106.358 12.675 106.375C12.8583 106.375 13.0583 106.367 13.275 106.35C13.7417 106.35 14.25 106.358 14.8 106.375C15.35 106.375 15.875 106.383 16.375 106.4C16.425 106.4 16.5833 106.4 16.85 106.4C17.1333 106.4 17.4667 106.4 17.85 106.4C18.25 106.383 18.675 106.375 19.125 106.375C19.5917 106.375 20.0167 106.375 20.4 106.375C20.8 106.358 21.1333 106.35 21.4 106.35C21.6833 106.35 21.85 106.35 21.9 106.35C21.9833 106.35 22.0833 106.358 22.2 106.375C22.3167 106.392 22.425 106.392 22.525 106.375C22.625 106.358 22.7083 106.317 22.775 106.25C22.8417 106.183 22.875 106.083 22.875 105.95C22.875 105.817 22.8833 105.7 22.9 105.6C22.9167 105.5 22.875 105.392 22.775 105.275C22.6583 105.142 22.5167 105.067 22.35 105.05C22.2 105.033 22.0417 105.033 21.875 105.05C21.8583 105.05 21.6417 105.05 21.225 105.05C20.8083 105.05 20.3 105.05 19.7 105.05C19.1 105.05 18.45 105.05 17.75 105.05C17.05 105.033 16.4 105.025 15.8 105.025C15.2167 105.025 14.7167 105.025 14.3 105.025C13.9 105.025 13.7 105.025 13.7 105.025ZM44.7631 104.275C44.8131 104.292 44.8631 104.3 44.9131 104.3C44.9631 104.283 45.0131 104.275 45.0631 104.275C45.3464 104.308 45.6048 104.367 45.8381 104.45C46.0881 104.517 46.3298 104.658 46.5631 104.875C46.7964 105.075 46.9131 105.358 46.9131 105.725C46.9131 105.908 46.8798 106.108 46.8131 106.325C46.7631 106.525 46.6881 106.683 46.5881 106.8C46.4548 106.933 46.2881 107.033 46.0881 107.1C45.9048 107.167 45.7131 107.217 45.5131 107.25C45.3298 107.267 45.1631 107.275 45.0131 107.275C44.8798 107.275 44.8048 107.275 44.7881 107.275H30.9631C30.8798 107.275 30.7964 107.283 30.7131 107.3C30.6464 107.3 30.5714 107.3 30.4881 107.3C30.1214 107.317 29.7381 107.317 29.3381 107.3C28.9381 107.267 28.5964 107.133 28.3131 106.9C27.9631 106.583 27.7881 106.225 27.7881 105.825C27.7881 105.575 27.8631 105.317 28.0131 105.05C28.1631 104.783 28.3631 104.6 28.6131 104.5C28.9464 104.367 29.2881 104.3 29.6381 104.3C30.0048 104.3 30.3714 104.292 30.7381 104.275H30.8631C31.1464 104.275 31.4381 104.275 31.7381 104.275C32.0381 104.258 32.3381 104.25 32.6381 104.25C32.6214 104.183 32.6131 104.1 32.6131 104V103.9V101.975C32.6131 101.825 32.6381 101.667 32.6881 101.5C32.7214 101.367 32.7798 101.225 32.8631 101.075C32.9631 100.925 33.1048 100.783 33.2881 100.65C33.5048 100.5 33.7464 100.408 34.0131 100.375C34.2798 100.342 34.5298 100.367 34.7631 100.45C35.0131 100.533 35.2214 100.675 35.3881 100.875C35.5714 101.058 35.6714 101.292 35.6881 101.575C35.6881 101.692 35.6881 101.858 35.6881 102.075C35.7048 102.275 35.7131 102.5 35.7131 102.75C35.7298 102.983 35.7381 103.233 35.7381 103.5C35.7381 103.767 35.7381 104.025 35.7381 104.275H38.1381H38.4131C38.3964 104.208 38.3881 104.117 38.3881 104V103.9V101.975C38.3881 101.825 38.4131 101.667 38.4631 101.5C38.4964 101.367 38.5548 101.225 38.6381 101.075C38.7381 100.925 38.8798 100.783 39.0631 100.65C39.2798 100.5 39.5214 100.408 39.7881 100.375C40.0548 100.342 40.3048 100.367 40.5381 100.45C40.7881 100.533 40.9964 100.675 41.1631 100.875C41.3464 101.058 41.4464 101.292 41.4631 101.575C41.4631 101.692 41.4631 101.858 41.4631 102.075C41.4798 102.275 41.4881 102.5 41.4881 102.75C41.5048 102.983 41.5131 103.233 41.5131 103.5C41.5131 103.767 41.5131 104.025 41.5131 104.275H42.9381C43.2381 104.292 43.5464 104.292 43.8631 104.275C44.1964 104.242 44.4964 104.242 44.7631 104.275ZM33.3881 99.5C33.0714 99.7833 32.7214 100.075 32.3381 100.375C31.9714 100.675 31.5714 100.892 31.1381 101.025C30.8381 101.108 30.5131 101.1 30.1631 101C29.8131 100.9 29.5464 100.725 29.3631 100.475C29.2298 100.275 29.1631 100.083 29.1631 99.9C29.1631 99.7167 29.1964 99.5417 29.2631 99.375C29.3464 99.1917 29.4464 99.0167 29.5631 98.85C29.6798 98.6833 29.8048 98.525 29.9381 98.375C30.4381 97.7917 30.9298 97.2417 31.4131 96.725C31.9131 96.2083 32.4464 95.7 33.0131 95.2C33.1964 95.05 33.4381 94.8333 33.7381 94.55C34.0381 94.2667 34.3298 93.9833 34.6131 93.7C34.9464 93.3833 35.3048 93.0333 35.6881 92.65C35.6548 92.2 35.6464 91.7667 35.6631 91.35C35.6798 91 35.7214 90.65 35.7881 90.3C35.8548 89.95 35.9798 89.6833 36.1631 89.5C36.3798 89.3 36.6881 89.175 37.0881 89.125C37.4881 89.0583 37.8214 89.0667 38.0881 89.15C38.4714 89.2667 38.7631 89.4333 38.9631 89.65C39.1631 89.85 39.2798 90.15 39.3131 90.55C39.3298 90.7 39.3298 90.8833 39.3131 91.1C39.2964 91.3 39.2881 91.5083 39.2881 91.725C39.2881 91.9417 39.3048 92.15 39.3381 92.35C39.3714 92.5333 39.4381 92.6833 39.5381 92.8C39.8381 93.2 40.1881 93.6167 40.5881 94.05C41.0048 94.4833 41.4298 94.925 41.8631 95.375C42.3131 95.825 42.7548 96.2833 43.1881 96.75C43.6214 97.2 44.0298 97.65 44.4131 98.1C44.5964 98.3167 44.7798 98.5667 44.9631 98.85C45.1464 99.1167 45.2714 99.3833 45.3381 99.65C45.4214 99.9167 45.4214 100.175 45.3381 100.425C45.2548 100.675 45.0381 100.883 44.6881 101.05C44.4381 101.167 44.1881 101.217 43.9381 101.2C43.7048 101.183 43.4714 101.125 43.2381 101.025C43.0048 100.925 42.7881 100.8 42.5881 100.65C42.3881 100.5 42.2048 100.342 42.0381 100.175L37.5131 96.025L33.3881 99.5ZM55.4303 89.95V89.075C55.4303 88.8583 55.4553 88.6583 55.5053 88.475C55.5386 88.3083 55.5969 88.1417 55.6803 87.975C55.7803 87.7917 55.9219 87.6333 56.1053 87.5C56.3219 87.35 56.5803 87.2667 56.8803 87.25C57.1803 87.2333 57.4636 87.275 57.7303 87.375C58.0136 87.475 58.2553 87.6333 58.4553 87.85C58.6553 88.0667 58.7553 88.325 58.7553 88.625L58.7803 89.95H60.7553C60.8719 89.9833 61.0553 89.9917 61.3053 89.975C61.5553 89.9583 61.7386 89.95 61.8553 89.95C62.1553 89.95 62.4719 89.95 62.8053 89.95C63.1386 89.9333 63.4469 89.9583 63.7303 90.025C64.0136 90.0917 64.2553 90.225 64.4553 90.425C64.6553 90.625 64.7719 90.9333 64.8053 91.35C64.8553 91.8 64.7886 92.1417 64.6053 92.375C64.4386 92.5917 64.2053 92.75 63.9053 92.85C63.6219 92.9333 63.3053 92.9667 62.9553 92.95C62.6219 92.9333 62.3136 92.9167 62.0303 92.9L58.9803 92.925L59.0053 94.125C59.0053 94.2583 59.0053 94.375 59.0053 94.475C59.0053 94.575 59.0219 94.6917 59.0553 94.825C59.1053 95.0083 59.1803 95.1667 59.2803 95.3C59.3969 95.4167 59.5136 95.5417 59.6303 95.675C59.8803 95.9583 60.1636 96.2417 60.4803 96.525C60.7969 96.7917 61.1219 97.0667 61.4553 97.35C61.8053 97.6167 62.1386 97.8833 62.4553 98.15C62.7886 98.4167 63.0886 98.6833 63.3553 98.95C63.6719 99.2833 63.9553 99.6333 64.2053 100C64.4719 100.367 64.5386 100.808 64.4053 101.325C64.3053 101.658 64.1386 101.883 63.9053 102C63.6719 102.1 63.4136 102.133 63.1303 102.1C62.8636 102.05 62.5803 101.967 62.2803 101.85C61.9969 101.717 61.7553 101.583 61.5553 101.45C60.7553 100.933 60.0136 100.383 59.3303 99.8C58.6469 99.2167 57.9636 98.6083 57.2803 97.975C57.2636 97.9583 57.1386 98.0417 56.9053 98.225C56.6719 98.4083 56.3969 98.6417 56.0803 98.925C55.7636 99.1917 55.4303 99.475 55.0803 99.775C54.7303 100.058 54.4219 100.308 54.1553 100.525C53.8886 100.725 53.5553 100.95 53.1553 101.2C52.7553 101.433 52.3469 101.625 51.9303 101.775C51.5303 101.925 51.1386 102 50.7553 102C50.3719 101.983 50.0719 101.825 49.8553 101.525C49.6386 101.192 49.5386 100.9 49.5553 100.65C49.5719 100.383 49.6553 100.142 49.8053 99.925C49.9553 99.7083 50.1553 99.5 50.4053 99.3C50.6553 99.1 50.9136 98.9 51.1803 98.7C51.7303 98.2833 52.3386 97.8083 53.0053 97.275C53.6719 96.7417 54.2886 96.1917 54.8553 95.625C55.0886 95.3917 55.2136 95.1833 55.2303 95C55.2636 94.8 55.2803 94.5417 55.2803 94.225L55.3053 92.875H52.5803C52.0136 92.9083 51.5136 92.8917 51.0803 92.825C50.6969 92.7583 50.3386 92.6417 50.0053 92.475C49.6886 92.2917 49.5136 92.0083 49.4803 91.625C49.4636 91.4417 49.4719 91.2583 49.5053 91.075C49.5386 90.875 49.5969 90.7 49.6803 90.55C49.7636 90.3833 49.8803 90.25 50.0303 90.15C50.1803 90.0333 50.3553 89.9667 50.5553 89.95C50.6719 89.9333 50.7886 89.925 50.9053 89.925C51.0386 89.925 51.1803 89.925 51.3303 89.925C51.3803 89.925 51.4886 89.925 51.6553 89.925C51.8386 89.925 52.0386 89.9333 52.2553 89.95C52.4719 89.95 52.6719 89.95 52.8553 89.95C53.0386 89.95 53.1636 89.95 53.2303 89.95H55.4303ZM50.0553 107.175C49.7886 107.158 49.5219 107.125 49.2553 107.075C49.0053 107.008 48.7803 106.925 48.5803 106.825C48.3803 106.708 48.2136 106.55 48.0803 106.35C47.9636 106.15 47.9053 105.883 47.9053 105.55C47.9053 105.217 48.0136 104.925 48.2303 104.675C48.3636 104.542 48.5303 104.442 48.7303 104.375C48.9303 104.308 49.1219 104.258 49.3053 104.225C49.4886 104.192 49.6469 104.175 49.7803 104.175C49.9303 104.175 50.0136 104.175 50.0303 104.175L63.7053 104.2C64.1386 104.2 64.5303 104.208 64.8803 104.225C65.2469 104.225 65.5719 104.342 65.8553 104.575C66.2053 104.892 66.3803 105.25 66.3803 105.65C66.3803 105.9 66.3053 106.133 66.1553 106.35C66.0053 106.55 65.8053 106.692 65.5553 106.775C65.2219 106.908 64.8719 107 64.5053 107.05C64.1553 107.1 63.8053 107.133 63.4553 107.15C62.2386 107.2 61.0386 107.217 59.8553 107.2C58.6719 107.183 57.5219 107.175 56.4053 107.175C55.2053 107.175 54.0303 107.183 52.8803 107.2C51.7469 107.217 50.8053 107.208 50.0553 107.175Z" fill="#979797" fill-opacity="0.5"/>
</svg>
