<svg width="76" height="76" viewBox="0 0 76 76" fill="none" xmlns="http://www.w3.org/2000/svg">
<path d="M37.7467 6.0799C20.2667 6.0799 6.08008 20.2666 6.08008 37.7466C6.08008 55.2266 20.2667 69.4132 37.7467 69.4132C55.2267 69.4132 69.4134 55.2266 69.4134 37.7466C69.4134 20.2666 55.2267 6.0799 37.7467 6.0799ZM37.7467 63.0799C23.7817 63.0799 12.4134 51.7116 12.4134 37.7466C12.4134 23.7816 23.7817 12.4132 37.7467 12.4132C51.7117 12.4132 63.0801 23.7816 63.0801 37.7466C63.0801 51.7116 51.7117 63.0799 37.7467 63.0799Z" fill="#C4C4C4" fill-opacity="0.8"/>
<rect x="34.96" y="22.8" width="4.56" height="31.92" fill="#C4C4C4" fill-opacity="0.8"/>
<rect x="21.28" y="41.04" width="4.56" height="31.92" transform="rotate(-90 21.28 41.04)" fill="#C4C4C4" fill-opacity="0.8"/>
</svg>
