<svg width="50" height="50" viewBox="0 0 50 50" fill="none" xmlns="http://www.w3.org/2000/svg">
<path d="M24.8334 3.99994C13.3334 3.99994 4.00006 13.3333 4.00006 24.8333C4.00006 36.3333 13.3334 45.6666 24.8334 45.6666C36.3334 45.6666 45.6667 36.3333 45.6667 24.8333C45.6667 13.3333 36.3334 3.99994 24.8334 3.99994ZM24.8334 41.4999C15.6459 41.4999 8.16673 34.0208 8.16673 24.8333C8.16673 15.6458 15.6459 8.16661 24.8334 8.16661C34.0209 8.16661 41.5001 15.6458 41.5001 24.8333C41.5001 34.0208 34.0209 41.4999 24.8334 41.4999Z" fill="#C4C4C4" fill-opacity="0.8"/>
<rect x="23" y="15" width="3" height="21" fill="#C4C4C4" fill-opacity="0.8"/>
<rect x="14" y="27" width="3" height="21" transform="rotate(-90 14 27)" fill="#C4C4C4" fill-opacity="0.8"/>
</svg>
