<svg width="46" height="46" viewBox="0 0 46 46" fill="none" xmlns="http://www.w3.org/2000/svg">
<path d="M20.4019 7.5C21.5566 5.5 24.4434 5.5 25.5981 7.5L37.7224 28.5C38.8771 30.5 37.4338 33 35.1244 33H10.8756C8.56624 33 7.12287 30.5 8.27757 28.5L20.4019 7.5Z" fill="#F3576C"/>
<path d="M26.8971 5.75C25.1651 2.75 20.8349 2.75 19.1029 5.75L6.1125 28.25C4.38045 31.25 6.54552 35 10.0096 35H35.9904C39.4545 35 41.6195 31.25 39.8875 28.25L26.8971 5.75Z" stroke="#F3576C"/>
<path d="M23 11C24.1046 11 25 11.8954 25 13V23C25 24.1046 24.1046 25 23 25C21.8954 25 21 24.1046 21 23V13C21 11.8954 21.8954 11 23 11Z" fill="white"/>
<circle cx="23" cy="29" r="2" fill="white"/>
</svg>
