<svg width="298" height="163" viewBox="0 0 298 163" fill="none" xmlns="http://www.w3.org/2000/svg">
<rect width="297.1" height="162.548" fill="#D9D9D9" fill-opacity="0.42"/>
<rect x="76" y="80" width="45" height="20" rx="10" fill="#FFC9D0"/>
<path d="M85.2 95H86.052L86.388 92.312H88.044L87.72 95H88.584L88.908 92.312H90.156V91.388H89.016L89.244 89.552H90.432V88.628H89.352L89.652 86.228H88.8L88.488 88.628H86.832L87.12 86.228H86.28L85.968 88.628H84.744V89.552H85.86L85.632 91.388H84.48V92.312H85.524L85.2 95ZM86.484 91.388L86.712 89.552H88.38L88.152 91.388H86.484ZM94.9838 91.232C95.4038 91.328 95.8718 91.376 96.3518 91.376C96.8318 91.376 97.2998 91.328 97.7198 91.22V93.584H94.9838V91.232ZM96.3518 86.684C97.9838 86.684 99.1238 87.404 99.1238 88.544C99.1238 89.696 97.9838 90.416 96.3518 90.416C94.7078 90.416 93.5678 89.696 93.5678 88.544C93.5678 87.404 94.7078 86.684 96.3518 86.684ZM98.9558 93.584V90.764C99.8198 90.272 100.336 89.504 100.336 88.544C100.336 86.816 98.6558 85.712 96.3518 85.712C94.0358 85.712 92.3678 86.816 92.3678 88.544C92.3678 89.504 92.8838 90.284 93.7478 90.764V93.584H91.4558V94.592H101.272V93.584H98.9558ZM104.355 90.068H108.135V86.048H103.083V87.056H106.887V89.072H103.107V93.368H104.031C105.939 93.368 107.559 93.308 109.419 92.984L109.287 91.976C107.571 92.252 106.071 92.336 104.355 92.348V90.068ZM110.187 85.064V95.948H111.435V85.064H110.187Z" fill="#3D3D3D"/>
<rect x="127" y="80" width="45" height="20" rx="10" fill="#F9DAA0"/>
<path d="M136.2 95H137.052L137.388 92.312H139.044L138.72 95H139.584L139.908 92.312H141.156V91.388H140.016L140.244 89.552H141.432V88.628H140.352L140.652 86.228H139.8L139.488 88.628H137.832L138.12 86.228H137.28L136.968 88.628H135.744V89.552H136.86L136.632 91.388H135.48V92.312H136.524L136.2 95ZM137.484 91.388L137.712 89.552H139.38L139.152 91.388H137.484ZM148.264 89.396H146.668C146.98 88.472 147.124 87.476 147.124 86.42H142.912V87.416H145.9C145.72 89.636 144.652 91.412 142.396 92.756L143.104 93.632C144.604 92.732 145.636 91.64 146.272 90.392H148.264V95.408H149.428V85.352H148.264V89.396ZM150.532 85.088V95.924H151.72V85.088H150.532ZM161.187 85.1V91.268H162.423V85.1H161.187ZM155.331 91.808V95.792H162.423V91.808H155.331ZM161.211 92.792V94.808H156.543V92.792H161.211ZM156.579 85.628C154.923 85.628 153.699 86.672 153.699 88.184C153.699 89.696 154.923 90.74 156.579 90.74C158.235 90.74 159.447 89.696 159.447 88.184C159.447 86.672 158.235 85.628 156.579 85.628ZM156.579 86.648C157.539 86.648 158.247 87.26 158.247 88.184C158.247 89.12 157.539 89.72 156.579 89.72C155.607 89.72 154.911 89.12 154.911 88.184C154.911 87.26 155.607 86.648 156.579 86.648Z" fill="#3D3D3D"/>
<rect x="178" y="80" width="45" height="20" rx="10" fill="#E2CBFF"/>
<path d="M187.2 95H188.052L188.388 92.312H190.044L189.72 95H190.584L190.908 92.312H192.156V91.388H191.016L191.244 89.552H192.432V88.628H191.352L191.652 86.228H190.8L190.488 88.628H188.832L189.12 86.228H188.28L187.968 88.628H186.744V89.552H187.86L187.632 91.388H186.48V92.312H187.524L187.2 95ZM188.484 91.388L188.712 89.552H190.38L190.152 91.388H188.484ZM194.776 88.316C194.776 87.368 195.472 86.744 196.432 86.744C197.368 86.744 198.064 87.368 198.064 88.316C198.064 89.252 197.368 89.876 196.432 89.876C195.472 89.876 194.776 89.252 194.776 88.316ZM201.196 87.584V89.048H199.132C199.204 88.82 199.24 88.58 199.24 88.316C199.24 88.052 199.204 87.812 199.144 87.584H201.196ZM201.196 90.044V91.472H202.432V85.076H201.196V86.576H198.58C198.076 86.036 197.32 85.7 196.432 85.7C194.812 85.7 193.6 86.78 193.6 88.316C193.6 89.84 194.812 90.92 196.432 90.92C197.308 90.92 198.076 90.596 198.58 90.044H201.196ZM198.82 94.952C197.284 94.952 196.384 94.556 196.384 93.812C196.384 93.092 197.284 92.684 198.82 92.684C200.368 92.684 201.256 93.092 201.256 93.812C201.256 94.556 200.368 94.952 198.82 94.952ZM198.82 91.712C196.564 91.712 195.172 92.492 195.172 93.812C195.172 95.144 196.564 95.924 198.82 95.924C201.076 95.924 202.48 95.144 202.48 93.812C202.48 92.492 201.076 91.712 198.82 91.712ZM210.999 86.336H208.407V85.112H207.171V86.336H204.555V87.332H210.999V86.336ZM206.355 89.9C206.355 89.228 206.943 88.82 207.795 88.82C208.647 88.82 209.223 89.228 209.223 89.9C209.223 90.56 208.647 90.968 207.795 90.968C206.943 90.968 206.355 90.56 206.355 89.9ZM208.407 91.868C209.607 91.676 210.387 90.932 210.387 89.9C210.387 88.676 209.331 87.872 207.795 87.872C206.247 87.872 205.191 88.676 205.191 89.9C205.191 90.932 205.971 91.664 207.171 91.868V92.924C206.163 92.96 205.191 92.96 204.363 92.96L204.531 93.98C206.391 93.98 208.899 93.956 211.215 93.548L211.119 92.636C210.255 92.768 209.331 92.828 208.407 92.876V91.868ZM214.515 89.612H212.967V85.076H211.731V95.924H212.967V90.632H214.515V89.612Z" fill="#3D3D3D"/>
<rect x="116" y="109" width="68" height="20" rx="10" fill="#E4D1BE"/>
<path d="M125.2 124H126.052L126.388 121.312H128.044L127.72 124H128.584L128.908 121.312H130.156V120.388H129.016L129.244 118.552H130.432V117.628H129.352L129.652 115.228H128.8L128.488 117.628H126.832L127.12 115.228H126.28L125.968 117.628H124.744V118.552H125.86L125.632 120.388H124.48V121.312H125.524L125.2 124ZM126.484 120.388L126.712 118.552H128.38L128.152 120.388H126.484ZM135.716 119.308H133.064V117.52H135.716V119.308ZM136.94 114.868H135.716V116.56H133.064V114.868H131.828V120.304H136.94V114.868ZM134.3 121.288H133.052V124.72H140.348V123.712H134.3V121.288ZM139.916 117.28V114.1H138.68V122.056H139.916V118.3H141.452V117.28H139.916ZM144.091 119.056H147.631V115.024H142.855V116.02H146.419V118.06H142.879V122.464H143.707C145.387 122.464 146.779 122.428 148.423 122.164L148.327 121.144C146.839 121.372 145.567 121.432 144.091 121.444V119.056ZM150.235 114.064V116.476H148.255V117.484H150.235V119.428H148.195V120.436H150.235V124.936H151.471V114.064H150.235ZM158.406 123.976C156.822 123.976 155.934 123.628 155.934 122.956C155.934 122.296 156.822 121.936 158.406 121.936C159.99 121.936 160.89 122.296 160.89 122.956C160.89 123.628 159.99 123.976 158.406 123.976ZM158.406 120.988C156.09 120.988 154.674 121.708 154.674 122.956C154.674 124.216 156.09 124.936 158.406 124.936C160.734 124.936 162.138 124.216 162.138 122.956C162.138 121.708 160.734 120.988 158.406 120.988ZM159.054 119.32V118.24H162.21V117.244H155.982V115.552H162.138V114.568H154.758V118.24H157.818V119.32H153.546V120.328H163.338V119.32H159.054ZM171.893 116.8H167.033V115.384H171.893V116.8ZM173.105 114.424H165.809V117.772H173.105V114.424ZM174.377 119.512V118.528H164.561V119.512H168.833V120.412H165.725V121.348H171.929V122.116H165.749V124.828H173.453V123.88H166.973V122.992H173.141V120.412H170.081V119.512H174.377Z" fill="#3D3D3D"/>
<rect x="188" y="109" width="45" height="20" rx="10" fill="#BDEBB1"/>
<path d="M197.2 124H198.052L198.388 121.312H200.044L199.72 124H200.584L200.908 121.312H202.156V120.388H201.016L201.244 118.552H202.432V117.628H201.352L201.652 115.228H200.8L200.488 117.628H198.832L199.12 115.228H198.28L197.968 117.628H196.744V118.552H197.86L197.632 120.388H196.48V121.312H197.524L197.2 124ZM198.484 120.388L198.712 118.552H200.38L200.152 120.388H198.484ZM204.536 122.32H210.836V124.996H212.072V121.324H204.536V122.32ZM208.976 119.416V118.288H212.156V117.292H205.904V115.516H212.06V114.52H204.68V118.288H207.728V119.416H203.456V120.412H213.248V119.416H208.976ZM218.419 114.964H217.171V116.752C217.171 118.78 216.115 120.868 214.423 121.696L215.203 122.68C216.439 122.044 217.327 120.784 217.807 119.248C218.275 120.7 219.151 121.888 220.375 122.5L221.107 121.504C219.451 120.736 218.419 118.768 218.419 116.752V114.964ZM222.247 114.064V117.628H219.931V118.636H222.247V124.936H223.495V114.064H222.247Z" fill="#3D3D3D"/>
<rect x="65" y="109" width="45" height="20" rx="10" fill="#C4D9FA"/>
<path d="M74.2 124H75.052L75.388 121.312H77.044L76.72 124H77.584L77.908 121.312H79.156V120.388H78.016L78.244 118.552H79.432V117.628H78.352L78.652 115.228H77.8L77.488 117.628H75.832L76.12 115.228H75.28L74.968 117.628H73.744V118.552H74.86L74.632 120.388H73.48V121.312H74.524L74.2 124ZM75.484 120.388L75.712 118.552H77.38L77.152 120.388H75.484ZM86.0238 119.812C86.0838 119.464 86.1198 119.104 86.1198 118.696C86.1198 118.24 86.0718 117.832 85.9878 117.436H88.2078V119.812H86.0238ZM83.3717 121.42C82.4478 121.42 81.7998 120.4 81.7998 118.696C81.7998 117.016 82.4478 115.996 83.3717 115.996C84.3078 115.996 84.9438 117.016 84.9438 118.696C84.9438 120.4 84.3078 121.42 83.3717 121.42ZM88.2078 114.076V116.416H85.6518C85.1598 115.444 84.3558 114.88 83.3717 114.88C81.7758 114.88 80.6357 116.368 80.6357 118.696C80.6357 121.048 81.7758 122.524 83.3717 122.524C84.4038 122.524 85.2558 121.9 85.7118 120.832H88.2078V124.948H89.4558V114.076H88.2078ZM98.3588 117.928H99.4868V120.916H100.663V114.076H99.4868V116.908H98.3588V114.28H97.2068V120.556H98.3588V117.928ZM96.8348 115.3H94.7468V114.184H93.5348V115.3H91.4348V116.272H96.8348V115.3ZM92.9348 118.612C92.9348 118.024 93.4148 117.64 94.1468 117.64C94.8668 117.64 95.3708 118.024 95.3708 118.612C95.3708 119.2 94.8668 119.584 94.1468 119.584C93.4148 119.584 92.9348 119.2 92.9348 118.612ZM96.4748 118.612C96.4748 117.496 95.5148 116.74 94.1468 116.74C92.7908 116.74 91.8308 117.496 91.8308 118.612C91.8308 119.74 92.7908 120.484 94.1468 120.484C95.5148 120.484 96.4748 119.74 96.4748 118.612ZM97.0628 123.988C95.5148 123.988 94.6268 123.64 94.6268 122.992C94.6268 122.344 95.5148 122.008 97.0628 122.008C98.6228 122.008 99.4868 122.344 99.4868 122.992C99.4868 123.64 98.6228 123.988 97.0628 123.988ZM97.0628 121.072C94.7708 121.072 93.3908 121.768 93.3908 122.992C93.3908 124.216 94.7708 124.924 97.0628 124.924C99.3548 124.924 100.723 124.216 100.723 122.992C100.723 121.768 99.3548 121.072 97.0628 121.072Z" fill="#3D3D3D"/>
<path d="M59.757 31.696H58.623V39.858H59.617C61.535 39.858 63.453 39.718 65.595 39.284L65.455 38.332C63.425 38.738 61.563 38.892 59.757 38.892V31.696ZM69.795 35.49H67.779V30.478H66.631V43.036H67.779V36.442H69.795V35.49ZM72.5379 34.244C72.5379 33.068 73.4619 32.256 74.7499 32.256C76.0239 32.256 76.9479 33.068 76.9479 34.244C76.9479 35.434 76.0239 36.218 74.7499 36.218C73.4619 36.218 72.5379 35.434 72.5379 34.244ZM75.3239 37.156C76.9339 36.946 78.0679 35.812 78.0679 34.244C78.0679 32.48 76.6679 31.29 74.7499 31.29C72.8039 31.29 71.4179 32.48 71.4179 34.244C71.4179 35.812 72.5379 36.96 74.1759 37.156V39.326C72.9999 39.354 71.8519 39.368 70.8579 39.368L71.0119 40.334C73.2239 40.334 76.1499 40.292 78.8099 39.844L78.7119 39.004C77.6339 39.158 76.4719 39.228 75.3239 39.284V37.156ZM82.6459 35.658H80.6579V30.464H79.5099V43.036H80.6579V36.624H82.6459V35.658ZM93.7556 35.84C94.0496 34.216 94.0496 32.942 94.0496 32.046V31.248H87.4276V32.718H92.2296C92.2156 33.488 92.1596 34.426 91.9496 35.63L93.7556 35.84ZM94.6096 36.358C93.4056 36.526 92.1176 36.624 90.8436 36.68V34.244H89.0376V36.75C88.1976 36.764 87.3996 36.764 86.6856 36.764L86.8536 38.234C89.0656 38.22 92.0616 38.164 94.7216 37.674L94.6096 36.358ZM90.4096 39.102H88.5616V42.98H97.5636V41.51H90.4096V39.102ZM97.1576 34.23V30.296H95.3096V39.956H97.1576V35.756H98.6976V34.23H97.1576ZM107.643 35.7C105.557 35.098 104.647 33.586 104.647 32.032V30.786H102.771V32.032C102.771 33.614 101.847 35.252 99.6905 35.924L100.587 37.38C102.099 36.904 103.149 35.924 103.737 34.692C104.311 35.826 105.305 36.708 106.761 37.142L107.643 35.7ZM103.695 39.634H108.651V41.608H103.695V39.634ZM101.875 43.05H110.457V38.192H101.875V43.05ZM108.595 30.31V37.59H110.457V30.31H108.595ZM117.371 31.304H115.509V33.18C115.509 35.574 114.529 38.038 112.359 39.06L113.465 40.558C114.921 39.844 115.887 38.486 116.447 36.848C116.979 38.388 117.889 39.634 119.233 40.32L120.353 38.864C118.281 37.842 117.371 35.504 117.371 33.18V31.304ZM124.595 35.266H122.719V30.31H120.871V43.204H122.719V36.806H124.595V35.266ZM125.098 44.548H126.47L129.942 30.73H128.57L125.098 44.548ZM132.136 36.89C133.634 36.582 134.656 35.868 135.23 34.93C135.804 35.77 136.77 36.414 138.212 36.694L138.926 35.266C137.05 34.93 136.168 34.034 136.112 33.012H138.632V31.584H136.112V30.324H134.264V31.584H131.744V33.012H134.264C134.208 34.104 133.326 35.098 131.394 35.462L132.136 36.89ZM139.15 37.058C136.448 37.422 133.326 37.436 130.974 37.436L131.198 38.934C132.122 38.934 133.158 38.934 134.25 38.892V42.812H136.098V38.78C137.148 38.696 138.226 38.584 139.262 38.388L139.15 37.058ZM139.878 30.31V43.204H141.726V30.31H139.878ZM144.441 31.472V40.138H150.643V31.472H144.441ZM148.823 32.928V38.682H146.261V32.928H148.823ZM152.645 30.31V43.232H154.493V30.31H152.645ZM157.502 31.822V32.774H162.108C161.842 35.742 160.12 38.15 156.914 39.76L157.544 40.656C161.604 38.626 163.242 35.392 163.242 31.822H157.502ZM168.506 35.574H166.49V30.478H165.342V43.036H166.49V36.526H168.506V35.574ZM181.968 30.478V43.05H183.116V30.478H181.968ZM173.554 31.542V40.012H179.462V31.542H178.328V34.86H174.688V31.542H173.554ZM174.688 35.77H178.328V39.074H174.688V35.77ZM196.401 34.636C194.203 34.328 191.991 32.872 191.991 31.248V30.688H190.815V31.248C190.815 32.9 188.617 34.328 186.391 34.636L186.825 35.532C188.771 35.224 190.633 34.202 191.403 32.76C192.201 34.188 194.049 35.224 195.967 35.532L196.401 34.636ZM191.991 38.444H190.815V38.85C190.815 40.502 188.883 41.748 186.587 42.084L187.035 42.994C188.953 42.672 190.647 41.776 191.403 40.418C192.159 41.776 193.853 42.672 195.757 42.994L196.205 42.084C193.909 41.748 191.991 40.502 191.991 38.85V38.444ZM185.719 36.568V37.492H197.073V36.568H185.719ZM206.045 32.018H202.909V30.492H201.761V32.018H198.639V32.942H206.045V32.018ZM200.431 35.966C200.431 35.098 201.187 34.538 202.335 34.538C203.469 34.538 204.253 35.098 204.253 35.966C204.253 36.848 203.469 37.408 202.335 37.408C201.187 37.408 200.431 36.848 200.431 35.966ZM205.345 35.966C205.345 34.566 204.113 33.642 202.335 33.642C200.557 33.642 199.339 34.566 199.339 35.966C199.339 37.38 200.557 38.304 202.335 38.304C204.113 38.304 205.345 37.38 205.345 35.966ZM201.677 39.158H200.529V42.756H208.901V41.818H201.677V39.158ZM208.341 34.622V30.492H207.193V39.9H208.341V35.588H210.203V34.622H208.341ZM218.821 31.57H217.687V33.824C217.687 36.106 216.259 38.514 214.453 39.438L215.139 40.362C216.553 39.606 217.715 38.038 218.261 36.204C218.835 37.926 219.969 39.396 221.299 40.11L222.013 39.2C220.249 38.318 218.821 36.036 218.821 33.824V31.57ZM226.339 35.574H224.267V30.492H223.119V43.036H224.267V36.526H226.339V35.574ZM234.878 35.966C232.974 36.302 231.364 36.372 229.166 36.372V34.594H233.66V31.164H228.004V32.102H232.526V33.712H228.032V37.31H229.026C231.336 37.31 233.002 37.24 234.99 36.904L234.878 35.966ZM230.44 39.494H236.11V41.944H230.44V39.494ZM229.32 42.868H237.23V38.584H229.32V42.868ZM239.092 33.698H237.23V30.492H236.082V37.968H237.23V34.65H239.092V33.698ZM88.1033 56.756C86.2413 57.05 84.7013 57.106 82.6713 57.106V55.412H87.0813V51.996H81.5093V52.934H85.9613V54.53H81.5513V58.044H82.5033C84.6593 58.044 86.2553 58.002 88.2013 57.694L88.1033 56.756ZM90.2313 62.93H84.3233V61.39H90.2313V62.93ZM90.2313 60.48H84.3233V58.982H83.1753V63.868H91.3653V58.982H90.2313V60.48ZM90.2033 51.492V54.096H87.8793V55.02H90.2033V58.394H91.3653V51.492H90.2033ZM104.776 57.428C102.55 57.064 100.142 55.3 100.142 53.256V52.29H98.9383V53.256C98.9383 55.3 96.5303 57.064 94.3043 57.428L94.7803 58.38C96.7403 58.002 98.7283 56.742 99.5403 55.006C100.366 56.742 102.354 57.988 104.3 58.38L104.776 57.428ZM102.2 61.488V58.646H101.052V61.488H98.1263V58.646H96.9923V61.488H93.8843V62.426H105.294V61.488H102.2ZM107.911 59.388C109.913 58.982 111.691 57.918 112.475 56.308C113.245 57.918 115.023 58.982 117.011 59.388L117.473 58.45C115.065 58.03 113.049 56.476 113.049 54.418H117.081V53.494H113.049V51.786H111.887V53.494H107.841V54.418H111.887C111.887 56.476 109.871 58.03 107.463 58.45L107.911 59.388ZM106.777 61.488V62.426H118.173V61.488H106.777ZM122.498 60.214C121.49 60.214 120.86 58.94 120.86 56.882C120.86 54.866 121.49 53.592 122.498 53.592C123.478 53.592 124.122 54.866 124.122 56.882C124.122 58.94 123.478 60.214 122.498 60.214ZM126.74 56.364H125.158C125.018 53.998 124.01 52.528 122.498 52.528C120.86 52.528 119.81 54.208 119.81 56.882C119.81 59.598 120.86 61.278 122.498 61.278C124.038 61.278 125.06 59.766 125.158 57.302H126.74V63.42H127.832V51.758H126.74V56.364ZM129.232 51.478V64.036H130.324V51.478H129.232ZM136.931 52.556H135.783V54.81C135.783 57.134 134.355 59.556 132.535 60.466L133.235 61.376C134.649 60.62 135.811 59.038 136.357 57.176C136.931 58.94 138.079 60.438 139.507 61.152L140.179 60.242C138.359 59.374 136.931 57.092 136.931 54.81V52.556ZM141.733 51.478V55.734H138.821V56.672H141.733V64.05H142.881V51.478H141.733ZM155.895 57.498C154.047 56.966 152.829 55.594 152.829 54.082V53.872H155.601V52.948H152.829V51.422H151.681V52.948H148.895V53.872H151.681V54.082C151.681 55.734 150.407 57.162 148.545 57.722L149.105 58.632C150.575 58.156 151.723 57.162 152.269 55.86C152.829 57.036 153.921 57.96 155.349 58.38L155.895 57.498ZM158.499 60.368V59.458H150.281V60.368H153.781C153.599 61.684 151.821 62.79 149.805 63.098L150.211 63.98C152.059 63.672 153.683 62.79 154.383 61.53C155.097 62.776 156.735 63.686 158.555 63.994L158.989 63.112C156.973 62.79 155.195 61.656 154.985 60.368H158.499ZM158.289 54.586V51.492H157.141V58.772H158.289V55.538H160.151V54.586H158.289ZM164.77 60.186C163.552 60.186 162.698 58.87 162.698 56.826C162.698 54.796 163.552 53.48 164.77 53.48C165.974 53.48 166.828 54.796 166.828 56.826C166.828 58.87 165.974 60.186 164.77 60.186ZM164.77 52.444C162.922 52.444 161.606 54.152 161.606 56.826C161.606 59.5 162.922 61.208 164.77 61.208C166.618 61.208 167.92 59.5 167.92 56.826C167.92 54.152 166.618 52.444 164.77 52.444ZM173.156 56.49H171.084V51.492H169.936V64.036H171.084V57.456H173.156V56.49ZM176.781 55.552H183.193V57.862H176.781V55.552ZM180.561 61.488V58.786H184.313V52.374H183.193V54.614H176.781V52.374H175.647V58.786H179.399V61.488H174.303V62.426H185.685V61.488H180.561ZM190.905 52.668H189.799V55.062C189.799 57.218 188.763 59.472 187.041 60.48L187.755 61.348C189.001 60.578 189.911 59.15 190.359 57.484C190.807 59.01 191.647 60.34 192.837 61.068L193.495 60.172C191.843 59.164 190.905 57.036 190.905 55.02V52.668ZM194.209 55.986H192.137V56.938H194.209V63.42H195.287V51.758H194.209V55.986ZM196.757 51.478V64.036H197.849V51.478H196.757ZM203.994 58.52C204.512 58.646 205.114 58.716 205.73 58.716C206.36 58.716 206.962 58.646 207.494 58.52V61.474H203.994V58.52ZM205.73 53.172C207.746 53.172 209.202 54.096 209.202 55.496C209.202 56.896 207.746 57.82 205.73 57.82C203.714 57.82 202.272 56.896 202.272 55.496C202.272 54.096 203.714 53.172 205.73 53.172ZM208.642 61.474V58.072C209.678 57.526 210.294 56.63 210.294 55.496C210.294 53.536 208.404 52.276 205.73 52.276C203.07 52.276 201.166 53.536 201.166 55.496C201.166 56.63 201.796 57.54 202.846 58.086V61.474H200.046V62.426H211.456V61.474H208.642ZM214.017 59.906H214.899L215.067 53.97L215.109 52.514H213.807L213.849 53.97L214.017 59.906ZM214.451 63.182C214.969 63.182 215.375 62.79 215.375 62.216C215.375 61.642 214.969 61.222 214.451 61.222C213.947 61.222 213.527 61.642 213.527 62.216C213.527 62.79 213.947 63.182 214.451 63.182Z" fill="#3D3D3D"/>
</svg>
