<svg width="299" height="163" viewBox="0 0 299 163" fill="none" xmlns="http://www.w3.org/2000/svg">
<rect x="0.99707" width="297.1" height="162.548" fill="#D9D9D9" fill-opacity="0.42"/>
<circle cx="91" cy="124" r="32" fill="#F9DAA0" fill-opacity="0.4"/>
<circle cx="91" cy="124" r="28" fill="#F9DAA0"/>
<path d="M81.823 121.785C81.823 120.849 82.525 120.303 83.448 120.303C84.371 120.303 85.073 120.849 85.073 121.785C85.073 122.721 84.371 123.267 83.448 123.267C82.525 123.267 81.823 122.721 81.823 121.785ZM84.306 124.645C85.736 124.333 86.75 123.228 86.75 121.785C86.75 120.069 85.32 118.834 83.448 118.834C81.576 118.834 80.159 120.069 80.159 121.785C80.159 123.228 81.16 124.333 82.59 124.645V126.322C81.537 126.348 80.523 126.348 79.652 126.348L79.873 127.739C81.94 127.739 84.748 127.713 87.322 127.193L87.218 125.958C86.282 126.101 85.281 126.179 84.306 126.244V124.645ZM87.868 118.132V130.144H89.584V118.132H87.868ZM94.38 120.381H99.541V123.553H94.38V120.381ZM97.825 127.336V124.905H101.218V119.029H92.703V124.905H96.109V127.336H91.559V128.727H102.401V127.336H97.825Z" fill="#3D3D3D"/>
<circle cx="250" cy="113" r="40" fill="#C4D9FA" fill-opacity="0.3"/>
<circle cx="250" cy="113" r="36" fill="#C4D9FA"/>
<path d="M237.327 113.4C237.642 111.66 237.642 110.295 237.642 109.335V108.48H230.547V110.055H235.692C235.677 110.88 235.617 111.885 235.392 113.175L237.327 113.4ZM238.242 113.955C236.952 114.135 235.572 114.24 234.207 114.3V111.69H232.272V114.375C231.372 114.39 230.517 114.39 229.752 114.39L229.932 115.965C232.302 115.95 235.512 115.89 238.362 115.365L238.242 113.955ZM233.742 116.895H231.762V121.05H241.407V119.475H233.742V116.895ZM240.972 111.675V107.46H238.992V117.81H240.972V113.31H242.622V111.675H240.972ZM252.206 113.25C249.971 112.605 248.996 110.985 248.996 109.32V107.985H246.986V109.32C246.986 111.015 245.996 112.77 243.686 113.49L244.646 115.05C246.266 114.54 247.391 113.49 248.021 112.17C248.636 113.385 249.701 114.33 251.261 114.795L252.206 113.25ZM247.976 117.465H253.286V119.58H247.976V117.465ZM246.026 121.125H255.221V115.92H246.026V121.125ZM253.226 107.475V115.275H255.221V107.475H253.226ZM262.629 108.54H260.634V110.55C260.634 113.115 259.584 115.755 257.259 116.85L258.444 118.455C260.004 117.69 261.039 116.235 261.639 114.48C262.209 116.13 263.184 117.465 264.624 118.2L265.824 116.64C263.604 115.545 262.629 113.04 262.629 110.55V108.54ZM270.369 112.785H268.359V107.475H266.379V121.29H268.359V114.435H270.369V112.785Z" fill="#3D3D3D"/>
<circle cx="201" cy="42" r="30" fill="#E2CBFF" fill-opacity="0.4"/>
<circle cx="201" cy="42" r="26" fill="#E2CBFF"/>
<path d="M199.272 40.331H192.642V39.629H198.895V38.381H192.642V37.731H199.181V36.431H190.939V41.631H199.272V40.331ZM190.796 45.83H197.374V48.131H199.09V44.478H190.796V45.83ZM189.587 42.359V43.724H200.416V42.359H189.587ZM202.222 37.38V38.745H206.213C205.966 41.397 204.64 43.269 201.585 44.738L202.482 46.09C206.733 44.036 207.968 41.046 207.968 37.38H202.222ZM209.801 36.132V48.105H211.53V36.132H209.801Z" fill="#3D3D3D"/>
<circle cx="176" cy="103" r="25" fill="#B7B9F1" fill-opacity="0.3"/>
<circle cx="176" cy="103" r="21" fill="#B7B9F1"/>
<path d="M167.35 102.17H163.401V101.257H167.35V102.17ZM168.791 99.134H167.35V100.168H163.401V99.134H161.96V103.303H168.791V99.134ZM163.302 105.987H161.85V108.77H168.956V107.615H163.302V105.987ZM160.783 104.007V105.151H164.776V106.746H166.228V105.151H169.968V104.007H160.783ZM174.202 100.399C174.95 100.399 175.467 100.751 175.467 101.389C175.467 102.005 174.95 102.357 174.202 102.357C173.465 102.357 172.937 102.005 172.937 101.389C172.937 100.751 173.465 100.399 174.202 100.399ZM174.202 103.545C175.731 103.545 176.853 102.643 176.853 101.389C176.853 100.113 175.731 99.222 174.202 99.222C172.673 99.222 171.54 100.113 171.54 101.389C171.54 102.643 172.673 103.545 174.202 103.545ZM177.37 103.798C175.225 104.117 172.717 104.139 170.946 104.139L171.111 105.327C171.826 105.327 172.651 105.316 173.52 105.283V108.638H174.972V105.195C175.797 105.129 176.644 105.019 177.458 104.854L177.37 103.798ZM177.942 98.815V108.935H179.394V98.815H177.942ZM181.594 99.86V101.015H184.971C184.762 103.259 183.64 104.843 181.055 106.086L181.814 107.23C185.411 105.492 186.456 102.962 186.456 99.86H181.594ZM188.007 98.804V108.935H189.47V98.804H188.007Z" fill="#3D3D3D"/>
<circle cx="256" cy="55" r="17" fill="#BDC5CD" fill-opacity="0.3"/>
<circle cx="256" cy="55" r="15" fill="#BDC5CD"/>
<path d="M252.872 56.755H254.324V50.815H252.872V52.663H251.024V53.84H252.872V56.755ZM251.948 55.292C250.342 54.775 249.682 53.543 249.682 52.179V51.343H248.208V52.245C248.208 53.642 247.493 55.017 245.766 55.567L246.525 56.733C247.724 56.326 248.527 55.512 248.978 54.478C249.407 55.38 250.122 56.073 251.189 56.436L251.948 55.292ZM250.903 59.835C249.572 59.835 248.879 59.56 248.879 58.988C248.879 58.405 249.572 58.13 250.903 58.13C252.223 58.13 252.916 58.405 252.916 58.988C252.916 59.56 252.223 59.835 250.903 59.835ZM250.903 57.008C248.747 57.008 247.427 57.734 247.427 58.988C247.427 60.22 248.747 60.946 250.903 60.946C253.048 60.946 254.368 60.22 254.368 58.988C254.368 57.734 253.048 57.008 250.903 57.008ZM257.535 58.394H262.991V60.902H264.443V57.25H257.535V58.394ZM262.991 50.815V52.443H261.264C261.319 52.124 261.352 51.794 261.352 51.453H256.655V52.608H259.79C259.57 53.983 258.316 55.116 256.072 55.688L256.633 56.821C258.767 56.249 260.241 55.171 260.923 53.609H262.991V54.599H260.758V55.765H262.991V56.821H264.443V50.826L262.991 50.815Z" fill="#3D3D3D"/>
<circle cx="52" cy="48" r="41" fill="#FFC9D0" fill-opacity="0.3"/>
<circle cx="52" cy="48" r="35" fill="#FFC9D0"/>
<path d="M33.3268 53.335H40.9468V56.305H42.9268V51.76H33.3268V53.335ZM35.4268 44.56H40.9018V46.345H35.4268V44.56ZM39.1618 49.195V47.905H42.8518V43.015H33.4768V47.905H37.1818V49.195H31.9468V50.77H44.4268V49.195H39.1618ZM57.8356 48.775C54.6856 48.265 52.9906 46.195 52.9906 44.23V43.24H50.8756V44.23C50.8756 46.15 49.1656 48.265 46.0456 48.775L46.8556 50.41C49.2706 49.975 51.0256 48.67 51.9256 46.975C52.8256 48.685 54.5956 49.975 57.0256 50.41L57.8356 48.775ZM52.9306 53.065V49.975H50.9506V53.065H45.7456V54.655H58.2556V53.065H52.9306ZM62.3044 48.985H66.7894V43.645H60.2644V45.22H64.7644V47.425H60.2794V53.11H61.5244C64.0294 53.11 66.0544 53.02 68.3044 52.63L68.0944 51.025C66.1444 51.355 64.4044 51.46 62.3044 51.475V48.985ZM69.0544 42.46V56.32H71.0344V42.46H69.0544Z" fill="#3D3D3D"/>
<circle cx="123" cy="60" r="21" fill="#DECAB2"/>
<circle cx="123" cy="60" r="26" fill="#DECAB2" fill-opacity="0.3"/>
<path d="M116.009 61.472H117.917V63.548H116.009V61.472ZM115.829 57.116H118.085V60.224H115.829V57.116ZM119.489 63.548V61.472H121.133V60.224H119.657V57.116H121.157V55.856H112.757V57.116H114.257V60.224H112.817V61.472H114.437V63.548H111.965V64.82H121.985V63.548H119.489ZM129.016 57.644V58.928H130.672V61.556H132.256V54.98H130.672V57.644H129.016ZM129.676 60.02C127.996 59.468 127.228 58.172 127.18 56.912H129.328V55.64H123.388V56.912H125.56C125.512 58.292 124.708 59.696 122.956 60.308L123.76 61.556C125.044 61.124 125.92 60.224 126.4 59.108C126.88 60.08 127.708 60.86 128.908 61.256L129.676 60.02ZM128.524 64.844C127.072 64.844 126.316 64.544 126.316 63.92C126.316 63.296 127.072 62.996 128.524 62.996C129.964 62.996 130.72 63.296 130.72 63.92C130.72 64.544 129.964 64.844 128.524 64.844ZM128.524 61.796C126.172 61.796 124.732 62.576 124.732 63.92C124.732 65.264 126.172 66.044 128.524 66.044C130.864 66.044 132.304 65.264 132.304 63.92C132.304 62.576 130.864 61.796 128.524 61.796Z" fill="#3D3D3D"/>
</svg>
