<svg width="299" height="163" viewBox="0 0 299 163" fill="none" xmlns="http://www.w3.org/2000/svg">
<rect x="0.99707" width="297.1" height="162.548" fill="#D9D9D9" fill-opacity="0.42"/>
<path d="M70.9541 124.738L67.7244 121.754C56.2535 111.199 48.6804 104.237 48.6804 95.6938C48.6804 88.7323 54.0706 83.2626 60.9309 83.2626C64.8065 83.2626 68.5262 85.0934 70.9541 87.9864C73.3819 85.0934 77.1016 83.2626 80.9772 83.2626C87.8375 83.2626 93.2277 88.7323 93.2277 95.6938C93.2277 104.237 85.6547 111.199 74.1837 121.777L70.9541 124.738Z" fill="#F3576C"/>
<path d="M82.1871 81.5344C77.8437 81.5344 73.6751 83.5563 70.9543 86.7514C68.2334 83.5563 64.0648 81.5344 59.7214 81.5344C52.0332 81.5344 45.9924 87.5752 45.9924 95.2634C45.9924 104.699 54.4795 112.387 67.3348 124.069L70.9543 127.339L74.5737 124.044C87.4291 112.387 95.9161 104.699 95.9161 95.2634C95.9161 87.5752 89.8753 81.5344 82.1871 81.5344ZM71.2039 120.35L70.9543 120.6L70.7046 120.35C58.8228 109.592 50.9848 102.477 50.9848 95.2634C50.9848 90.2711 54.7291 86.5268 59.7214 86.5268C63.5656 86.5268 67.3098 88.998 68.6328 92.4178H73.3007C74.5987 88.998 78.343 86.5268 82.1871 86.5268C87.1795 86.5268 90.9237 90.2711 90.9237 95.2634C90.9237 102.477 83.0857 109.592 71.2039 120.35Z" fill="#F3576C"/>
<path d="M229.046 124.738L225.816 121.754C214.345 111.199 206.772 104.237 206.772 95.6938C206.772 88.7323 212.162 83.2626 219.022 83.2626C222.898 83.2626 226.618 85.0934 229.046 87.9864C231.473 85.0934 235.193 83.2626 239.069 83.2626C245.929 83.2626 251.319 88.7323 251.319 95.6938C251.319 104.237 243.746 111.199 232.275 121.777L229.046 124.738Z" fill="#F3576C"/>
<path d="M240.279 81.5344C235.935 81.5344 231.767 83.5563 229.046 86.7514C226.325 83.5563 222.156 81.5344 217.813 81.5344C210.125 81.5344 204.084 87.5752 204.084 95.2634C204.084 104.699 212.571 112.387 225.426 124.069L229.046 127.339L232.665 124.044C245.521 112.387 254.008 104.699 254.008 95.2634C254.008 87.5752 247.967 81.5344 240.279 81.5344ZM229.295 120.35L229.046 120.6L228.796 120.35C216.914 109.592 209.076 102.477 209.076 95.2634C209.076 90.2711 212.821 86.5268 217.813 86.5268C221.657 86.5268 225.401 88.998 226.724 92.4178H231.392C232.69 88.998 236.435 86.5268 240.279 86.5268C245.271 86.5268 249.015 90.2711 249.015 95.2634C249.015 102.477 241.177 109.592 229.295 120.35Z" fill="#F3576C"/>
<path d="M100.646 103.646C100.451 103.842 100.451 104.158 100.646 104.354L103.828 107.536C104.024 107.731 104.34 107.731 104.536 107.536C104.731 107.34 104.731 107.024 104.536 106.828L101.707 104L104.536 101.172C104.731 100.976 104.731 100.66 104.536 100.464C104.34 100.269 104.024 100.269 103.828 100.464L100.646 103.646ZM201.354 104.354C201.549 104.158 201.549 103.842 201.354 103.646L198.172 100.464C197.976 100.269 197.66 100.269 197.464 100.464C197.269 100.66 197.269 100.976 197.464 101.172L200.293 104L197.464 106.828C197.269 107.024 197.269 107.34 197.464 107.536C197.66 107.731 197.976 107.731 198.172 107.536L201.354 104.354ZM101 104.5L201 104.5L201 103.5L101 103.5L101 104.5Z" fill="black"/>
<path d="M124.192 36.092C126.25 35.882 128.084 35.126 128.84 33.866C129.596 35.126 131.416 35.882 133.474 36.092L133.838 35.224C131.458 34.986 129.554 34.02 129.456 32.62H133.348V31.71H129.414V30.408H128.266V31.71H124.332V32.62H128.21C128.112 34.02 126.208 34.986 123.842 35.224L124.192 36.092ZM134.51 37.716V36.792H123.156V37.716H128.266V39.158H124.416V40.068H131.962V42.994H133.11V39.158H129.414V37.716H134.51ZM139.717 39.284C138.583 39.284 137.757 38.472 137.757 37.352C137.757 36.218 138.583 35.406 139.717 35.406C140.865 35.406 141.691 36.218 141.691 37.352C141.691 38.472 140.865 39.284 139.717 39.284ZM139.717 34.454C137.953 34.454 136.679 35.658 136.679 37.352C136.679 39.06 137.953 40.236 139.717 40.236C141.509 40.236 142.783 39.06 142.783 37.352C142.783 35.658 141.509 34.454 139.717 34.454ZM140.277 30.632H139.129V32.494H135.965V33.418H143.371V32.494H140.277V30.632ZM147.767 35.644H145.709V30.492H144.561V43.036H145.709V36.61H147.767V35.644ZM152.022 39.172C151.042 39.172 150.356 38.374 150.356 37.254C150.356 36.162 151.042 35.364 152.022 35.364C152.988 35.364 153.688 36.162 153.688 37.254C153.688 38.374 152.988 39.172 152.022 39.172ZM152.022 34.398C150.468 34.398 149.334 35.574 149.334 37.254C149.334 38.962 150.468 40.124 152.022 40.124C153.576 40.124 154.71 38.962 154.71 37.254C154.71 35.574 153.576 34.398 152.022 34.398ZM152.582 30.842H151.448V32.62H148.9V33.558H155.13V32.62H152.582V30.842ZM158.448 30.464V35.77H156.838V30.758H155.76V42.42H156.838V36.708H158.448V43.022H159.554V30.464H158.448ZM165.727 37.52C166.245 37.646 166.847 37.716 167.463 37.716C168.093 37.716 168.695 37.646 169.227 37.52V40.474H165.727V37.52ZM167.463 32.172C169.479 32.172 170.935 33.096 170.935 34.496C170.935 35.896 169.479 36.82 167.463 36.82C165.447 36.82 164.005 35.896 164.005 34.496C164.005 33.096 165.447 32.172 167.463 32.172ZM170.375 40.474V37.072C171.411 36.526 172.027 35.63 172.027 34.496C172.027 32.536 170.137 31.276 167.463 31.276C164.803 31.276 162.899 32.536 162.899 34.496C162.899 35.63 163.529 36.54 164.579 37.086V40.474H161.779V41.426H173.189V40.474H170.375ZM175.75 38.906H176.632L176.8 32.97L176.842 31.514H175.54L175.582 32.97L175.75 38.906ZM176.184 42.182C176.702 42.182 177.108 41.79 177.108 41.216C177.108 40.642 176.702 40.222 176.184 40.222C175.68 40.222 175.26 40.642 175.26 41.216C175.26 41.79 175.68 42.182 176.184 42.182ZM74.8809 55.566H80.3969V57.372H74.8809V55.566ZM78.5629 61.208V58.842H82.2169V52.108H80.3969V54.11H74.8809V52.108H73.0469V58.842H76.7149V61.208H71.8149V62.706H83.4909V61.208H78.5629ZM87.0458 57.386H91.1338V52.402H85.2118V53.872H89.3138V55.93H85.2258V61.25H86.3178C88.5578 61.25 90.3358 61.166 92.2678 60.816L92.0998 59.318C90.4198 59.612 88.8938 59.71 87.0458 59.724V57.386ZM96.6638 56.168H94.8158V51.296H92.9678V64.232H94.8158V57.694H96.6638V56.168ZM108.843 57.386C105.931 56.882 104.335 54.88 104.335 52.99V52.066H102.361V52.99C102.361 54.838 100.751 56.882 97.8527 57.386L98.6367 58.926C100.877 58.492 102.515 57.232 103.341 55.594C104.167 57.232 105.819 58.478 108.059 58.926L108.843 57.386ZM97.5727 61.138V62.636H109.249V61.138H97.5727ZM117.578 57.764H114.946V53.9H117.578V57.764ZM113.112 57.764H111.432V59.234H121.12V57.764H119.412V53.9H121.162V52.43H111.362V53.9H113.112V57.764ZM110.452 61.208V62.706H122.128V61.208H110.452ZM131.255 56.112C129.281 56.518 127.447 56.672 125.389 56.672V52.206H124.241V57.638H125.263C127.433 57.638 129.323 57.484 131.409 57.064L131.255 56.112ZM126.761 60.102H132.641V62.93H126.761V60.102ZM125.641 63.854H133.761V59.192H125.641V63.854ZM132.613 51.464V58.59H133.761V51.464H132.613ZM142.901 58.52C143.251 56.182 143.251 54.544 143.251 53.536V52.85H136.909V53.788H142.131C142.131 54.796 142.103 56.322 141.753 58.408L142.901 58.52ZM140.017 56.434H138.883V60.298C137.945 60.326 137.021 60.34 136.223 60.34L136.349 61.292C138.575 61.292 141.529 61.236 144.133 60.816L144.063 59.976C142.789 60.144 141.389 60.214 140.017 60.27V56.434ZM147.983 56.728H145.981V51.478H144.833V64.036H145.981V57.694H147.983V56.728ZM153.885 53.844H156.517V59.752H153.885V53.844ZM152.807 60.662H157.581V52.934H152.807V60.662ZM161.935 51.478V56.448H160.241V51.758H159.163V63.406H160.241V57.386H161.935V64.022H163.027V51.478H161.935ZM175.542 51.492H174.394V59.178H175.542V51.492ZM172.994 57.638C171.132 57.092 169.788 55.678 169.788 54.096V53.942H172.63V53.018H169.802V51.478H168.654V53.018H165.798V53.942H168.654V54.096C168.654 55.804 167.352 57.33 165.49 57.932L166.05 58.842C167.534 58.338 168.71 57.274 169.242 55.902C169.844 57.134 170.992 58.086 172.462 58.534L172.994 57.638ZM171.37 63.126C169.466 63.126 168.29 62.608 168.29 61.74C168.29 60.844 169.466 60.34 171.37 60.34C173.274 60.34 174.436 60.844 174.436 61.74C174.436 62.608 173.274 63.126 171.37 63.126ZM171.37 59.444C168.752 59.444 167.156 60.27 167.156 61.74C167.156 63.196 168.752 64.022 171.37 64.022C173.988 64.022 175.584 63.196 175.584 61.74C175.584 60.27 173.988 59.444 171.37 59.444ZM182.835 57.834H185.537V56.896H180.259V53.606H185.481V52.654H179.125V57.834H181.687V60.326C180.469 60.368 179.279 60.368 178.201 60.368L178.341 61.334C180.721 61.334 183.731 61.278 186.475 60.858L186.377 60.018C185.257 60.158 184.039 60.228 182.835 60.284V57.834ZM187.203 51.464V64.064H188.351V51.464H187.203ZM194.412 53.144C195.644 53.144 196.54 53.97 196.54 55.118C196.54 56.28 195.644 57.12 194.412 57.12C193.208 57.12 192.312 56.28 192.312 55.118C192.312 53.97 193.208 53.144 194.412 53.144ZM200.18 55.566V58.632H201.342V51.492H200.18V54.628H197.59C197.366 53.172 196.092 52.192 194.412 52.192C192.564 52.192 191.206 53.396 191.206 55.118C191.206 56.868 192.564 58.072 194.412 58.072C196.12 58.072 197.394 57.064 197.604 55.566H200.18ZM199.97 59.122H198.85V59.864C198.85 60.844 198.262 62.118 197.072 62.874C195.896 62.188 195.322 60.984 195.322 59.864V59.122H194.216V59.864C194.216 61.082 193.278 62.44 191.696 63.028L192.27 63.882C193.446 63.42 194.3 62.552 194.748 61.544C195.126 62.594 195.882 63.518 197.086 63.994C198.248 63.49 199.004 62.524 199.396 61.502C199.816 62.566 200.712 63.42 201.93 63.882L202.504 63.028C200.894 62.482 199.97 61.166 199.97 59.864V59.122ZM207.235 60.186C206.031 60.186 205.191 58.87 205.191 56.826C205.191 54.796 206.031 53.48 207.235 53.48C208.425 53.48 209.265 54.796 209.265 56.826C209.265 58.87 208.425 60.186 207.235 60.186ZM213.073 51.478V56.266H210.343C210.161 53.914 208.929 52.444 207.235 52.444C205.401 52.444 204.099 54.152 204.099 56.826C204.099 59.5 205.401 61.208 207.235 61.208C208.985 61.208 210.231 59.668 210.343 57.204H213.073V64.064H214.221V51.478H213.073ZM220.688 58.52C221.206 58.646 221.808 58.716 222.424 58.716C223.054 58.716 223.656 58.646 224.188 58.52V61.474H220.688V58.52ZM222.424 53.172C224.44 53.172 225.896 54.096 225.896 55.496C225.896 56.896 224.44 57.82 222.424 57.82C220.408 57.82 218.966 56.896 218.966 55.496C218.966 54.096 220.408 53.172 222.424 53.172ZM225.336 61.474V58.072C226.372 57.526 226.988 56.63 226.988 55.496C226.988 53.536 225.098 52.276 222.424 52.276C219.764 52.276 217.86 53.536 217.86 55.496C217.86 56.63 218.49 57.54 219.54 58.086V61.474H216.74V62.426H228.15V61.474H225.336ZM230.837 63.182C231.341 63.182 231.761 62.79 231.761 62.216C231.761 61.642 231.341 61.222 230.837 61.222C230.333 61.222 229.913 61.642 229.913 62.216C229.913 62.79 230.333 63.182 230.837 63.182Z" fill="#3D3D3D"/>
</svg>
