<svg width="40" height="40" viewBox="0 0 40 40" fill="none" xmlns="http://www.w3.org/2000/svg">
<path d="M30.8617 40H9.13833C4.10806 40 0 35.8826 0 30.8617V9.13833C0 4.11737 4.11737 0 9.13833 0H30.8617C35.8919 0 40 4.11737 40 9.13833V30.8617C40 35.8919 35.8919 40 30.8617 40Z" fill="#FEE500"/>
<path d="M20.0566 8.09448C12.9018 8.09448 7.13171 12.7105 7.13171 18.3143C7.13171 21.9518 9.53206 25.1368 13.1326 26.9556L11.9139 31.507C11.891 31.5752 11.8874 31.6484 11.9037 31.7186C11.92 31.7887 11.9555 31.8529 12.0063 31.9039C12.0802 31.9692 12.1754 32.0052 12.274 32.0055C12.3557 31.9989 12.4333 31.9666 12.4956 31.9132L17.7394 28.3773C18.5134 28.4842 19.2937 28.5396 20.0751 28.5435C27.2207 28.5435 33 23.9275 33 18.3143C33 12.7012 27.2023 8.09448 20.0566 8.09448Z" fill="#392020"/>
<path d="M11.6551 16.6987H10.2426C10.0675 16.7038 9.89459 16.659 9.74404 16.5695C9.6772 16.5276 9.61973 16.4723 9.57525 16.4072C9.53076 16.3421 9.50022 16.2684 9.48554 16.1909C9.48106 16.1418 9.48106 16.0924 9.48554 16.0433C9.48115 15.9514 9.499 15.8597 9.53757 15.7761C9.57614 15.6925 9.6343 15.6195 9.70711 15.5632C9.86806 15.4466 10.0623 15.3851 10.261 15.3877H14.517C14.6935 15.3815 14.8676 15.4299 15.0156 15.5262C15.084 15.5663 15.1427 15.621 15.1874 15.6865C15.2321 15.752 15.2617 15.8265 15.2741 15.9048C15.2786 15.9508 15.2786 15.9972 15.2741 16.0433C15.2784 16.1366 15.2606 16.2295 15.2221 16.3146C15.1836 16.3996 15.1255 16.4743 15.0525 16.5325C14.8955 16.6489 14.7031 16.7077 14.5078 16.6987H13.1414V21.5548C13.147 21.6583 13.131 21.7617 13.0944 21.8586C13.0579 21.9556 13.0016 22.0439 12.9291 22.118C12.8596 22.1888 12.7761 22.2442 12.6838 22.2808C12.5916 22.3174 12.4928 22.3342 12.3936 22.3303C12.2203 22.3352 12.0506 22.2798 11.9136 22.1734C11.7832 22.0695 11.6947 21.9219 11.6643 21.7579C11.6552 21.6905 11.6552 21.6222 11.6643 21.5548L11.6551 16.6987Z" fill="#FEE500"/>
<path d="M15.6815 15.7478C15.7221 15.5959 15.8175 15.4643 15.9492 15.3785C16.0896 15.2989 16.2496 15.2605 16.4108 15.2677H16.7616C16.9327 15.2616 17.1021 15.3031 17.2509 15.3877C17.4086 15.4938 17.5207 15.6552 17.5648 15.8401L19.4112 21.0562C19.4591 21.1923 19.4992 21.3311 19.5313 21.4717C19.5344 21.5302 19.5344 21.5887 19.5313 21.6471C19.5344 21.7371 19.5178 21.8266 19.4827 21.9096C19.4477 21.9925 19.3949 22.0668 19.3282 22.1272C19.2635 22.1935 19.1858 22.2457 19.1001 22.2807C19.0143 22.3156 18.9222 22.3325 18.8296 22.3303C18.6872 22.3444 18.5442 22.3103 18.4236 22.2332C18.303 22.1562 18.2119 22.0408 18.1649 21.9056L17.7772 20.7701H15.3491L14.9614 21.9056C14.9155 22.0434 14.8233 22.1611 14.7004 22.2385C14.5775 22.316 14.4316 22.3484 14.2874 22.3303C14.1313 22.3344 13.9784 22.2855 13.8535 22.1918C13.7319 22.095 13.6498 21.9572 13.6227 21.8041C13.6178 21.7519 13.6178 21.6993 13.6227 21.6471C13.6069 21.5555 13.6069 21.4618 13.6227 21.3702C13.6227 21.2687 13.6874 21.1578 13.7243 21.0562L15.6815 15.7478ZM16.6047 16.9572L15.7276 19.7269H17.4725L16.6047 16.9572Z" fill="#FEE500"/>
<path d="M19.7427 16.0434C19.7334 15.8362 19.8064 15.6337 19.9458 15.4802C20.0167 15.4087 20.1019 15.3528 20.1957 15.3163C20.2895 15.2797 20.39 15.2631 20.4905 15.2678C20.6635 15.2658 20.8323 15.321 20.9706 15.4248C21.0988 15.5331 21.184 15.6837 21.2106 15.8494C21.2197 15.9137 21.2197 15.9791 21.2106 16.0434V20.8995H23.7495C23.9254 20.8972 24.0984 20.9451 24.248 21.0378C24.3152 21.0793 24.373 21.1345 24.4175 21.1997C24.462 21.2649 24.4924 21.3387 24.5065 21.4164C24.5065 21.4164 24.5065 21.5087 24.5065 21.5549C24.5109 21.6468 24.493 21.7384 24.4545 21.822C24.4159 21.9056 24.3577 21.9787 24.2849 22.035C24.124 22.1516 23.9297 22.213 23.731 22.2103H20.6106C20.4118 22.2231 20.2143 22.1714 20.0474 22.0627C19.8981 21.9511 19.7987 21.7853 19.7704 21.6011C19.7637 21.4997 19.7637 21.3978 19.7704 21.2964L19.7427 16.0434Z" fill="#FEE500"/>
<path d="M24.6728 16.0434C24.6673 15.8368 24.7398 15.6357 24.8759 15.4802C25.0143 15.3545 25.1918 15.2803 25.3785 15.2702C25.5651 15.2601 25.7496 15.3147 25.9007 15.4248C26.0317 15.5321 26.1201 15.6827 26.15 15.8494C26.1545 15.914 26.1545 15.9788 26.15 16.0434V18.3052L28.4857 15.6094C28.5757 15.5174 28.6713 15.4312 28.7719 15.351C28.8667 15.2945 28.9754 15.2657 29.0858 15.2678C29.2471 15.2669 29.4049 15.3153 29.5381 15.4063C29.6009 15.4486 29.6545 15.5031 29.6958 15.5666C29.737 15.63 29.765 15.7011 29.7782 15.7756C29.7819 15.7939 29.7819 15.8128 29.7782 15.8311C29.7737 15.8524 29.7737 15.8743 29.7782 15.8956C29.7779 15.9928 29.7524 16.0882 29.7043 16.1727C29.6553 16.262 29.5965 16.3455 29.5289 16.4218L27.9964 18.1021L29.8428 20.964V21.0563C29.9387 21.1886 30.0134 21.3351 30.0644 21.4903V21.5364C30.075 21.6434 30.0596 21.7514 30.0194 21.8511C29.9792 21.9508 29.9154 22.0392 29.8336 22.1088C29.6796 22.2252 29.4911 22.287 29.2981 22.2843C29.1698 22.2896 29.0425 22.2608 28.9288 22.2011C28.8059 22.1187 28.7045 22.0079 28.6334 21.878L26.9162 19.1084L26.0946 19.967V21.5087C26.1001 21.7153 26.0276 21.9164 25.8915 22.0719C25.8185 22.1432 25.7317 22.1989 25.6365 22.2354C25.5412 22.2719 25.4395 22.2885 25.3375 22.2843C25.1672 22.2878 25.0008 22.2324 24.8667 22.1273C24.7363 22.0234 24.6478 21.8759 24.6174 21.7119C24.6083 21.6445 24.6083 21.5761 24.6174 21.5087L24.6728 16.0434Z" fill="#FEE500"/>
</svg>
