<svg width="59" height="22" viewBox="0 0 59 22" fill="none" xmlns="http://www.w3.org/2000/svg">
<path d="M14.525 21.6C14.375 21.6333 14.0333 21.65 13.5 21.65C12.9833 21.6667 12.3667 21.675 11.65 21.675C10.9333 21.675 10.1667 21.6667 9.35 21.65C8.53333 21.65 7.76667 21.6417 7.05 21.625C6.33333 21.625 5.71667 21.625 5.2 21.625C4.68333 21.625 4.35833 21.625 4.225 21.625C3.89167 21.625 3.54167 21.6 3.175 21.55C2.80833 21.5 2.48333 21.3667 2.2 21.15C2.01667 21 1.86667 20.8167 1.75 20.6C1.65 20.3667 1.575 20.1417 1.525 19.925C1.475 19.7083 1.44167 19.5167 1.425 19.35C1.40833 19.1833 1.4 19.0917 1.4 19.075V17.075C1.4 16.825 1.4 16.5833 1.4 16.35C1.4 16.1 1.4 15.875 1.4 15.675C1.41667 15.475 1.425 15.3167 1.425 15.2C1.425 15.0667 1.425 14.9917 1.425 14.975C1.425 14.7417 1.46667 14.525 1.55 14.325C1.63333 14.1083 1.79167 13.95 2.025 13.85C2.14167 13.8 2.26667 13.7667 2.4 13.75C2.55 13.7333 2.69167 13.7167 2.825 13.7C3.10833 13.6833 3.39167 13.7333 3.675 13.85C3.975 13.95 4.15833 14.1667 4.225 14.5V15.4C4.25833 15.65 4.31667 15.775 4.4 15.775C4.48333 15.7583 4.625 15.7583 4.825 15.775H14.95V14.875C14.9667 14.575 15.0333 14.325 15.15 14.125C15.2667 13.9083 15.475 13.775 15.775 13.725C16.0083 13.675 16.3 13.6583 16.65 13.675C17 13.6917 17.2667 13.7833 17.45 13.95C17.6167 14.1 17.7 14.2833 17.7 14.5C17.7 14.7 17.7 14.9 17.7 15.1C17.6667 15.8667 17.6667 16.6583 17.7 17.475C17.7333 18.275 17.7083 19.0583 17.625 19.825C17.6083 20.0583 17.5667 20.2583 17.5 20.425C17.4333 20.575 17.3333 20.7417 17.2 20.925C17.0667 21.125 16.8833 21.2667 16.65 21.35C16.4333 21.4333 16.2 21.4917 15.95 21.525C15.7 21.5583 15.45 21.575 15.2 21.575C14.95 21.575 14.725 21.5833 14.525 21.6ZM10.4 12.625C10.2 12.7083 9.99167 12.7667 9.775 12.8C9.575 12.8167 9.36667 12.825 9.15 12.825H3.75C3.38333 12.825 3.00833 12.825 2.625 12.825C2.24167 12.825 1.85833 12.8083 1.475 12.775C1.10833 12.7583 0.808333 12.625 0.575 12.375C0.341667 12.125 0.208333 11.7917 0.175 11.375C0.158333 11.225 0.141667 11.0083 0.125 10.725C0.125 10.4417 0.116667 10.15 0.1 9.85C0.1 9.55 0.1 9.26667 0.1 9C0.1 8.73333 0.1 8.53333 0.1 8.4V8.15C0.0833334 7.96667 0.0833334 7.76667 0.1 7.55C0.116667 7.33333 0.2 7.13333 0.35 6.95C0.583333 6.66667 0.9 6.5 1.3 6.45C1.71667 6.38333 2.11667 6.35 2.5 6.35H8.15V4.875H3.15C3.05 4.875 2.95 4.88333 2.85 4.9C2.75 4.9 2.65 4.9 2.55 4.9C2.45 4.91667 2.34167 4.925 2.225 4.925C2.125 4.925 2.01667 4.925 1.9 4.925C1.56667 4.925 1.275 4.9 1.025 4.85C0.741667 4.78333 0.508333 4.6 0.325 4.3C0.208333 4.1 0.133333 3.88333 0.1 3.65C0.0666667 3.4 0.0833334 3.16667 0.15 2.95C0.233333 2.66667 0.425 2.45833 0.725 2.325C1.025 2.175 1.275 2.08333 1.475 2.05C1.725 2 2 1.975 2.3 1.975H2.75C2.83333 1.975 2.91667 1.98333 3 2C3.08333 2 3.16667 2 3.25 2H8.325C9.19167 2 9.85833 2.175 10.325 2.525C10.8083 2.875 11.05 3.36667 11.05 4V6.675C11.05 6.925 10.9917 7.23333 10.875 7.6C10.775 7.96667 10.5917 8.23333 10.325 8.4C10.1083 8.53333 9.88333 8.61667 9.65 8.65C9.43333 8.66667 9.20833 8.66667 8.975 8.65H3.2V10.3H8.9C9.06667 10.3 9.23333 10.3 9.4 10.3C9.56667 10.3 9.73333 10.3083 9.9 10.325C10.1833 10.3417 10.4167 10.4417 10.6 10.625C10.8 10.8083 10.9417 11.025 11.025 11.275C11.225 11.925 11.0167 12.375 10.4 12.625ZM14.25 9.05C13.7667 9.01667 13.3333 8.99167 12.95 8.975C12.5667 8.94167 12.2667 8.75833 12.05 8.425C11.95 8.25833 11.9 8.05 11.9 7.8C11.9 7.55 11.9167 7.33333 11.95 7.15C12 6.96667 12.0917 6.81667 12.225 6.7C12.3583 6.56667 12.5917 6.45833 12.925 6.375C12.9917 6.35833 13.1167 6.35 13.3 6.35C13.4833 6.33333 13.675 6.31667 13.875 6.3C14.0917 6.28333 14.2917 6.275 14.475 6.275C14.6583 6.25833 14.7833 6.25 14.85 6.25V3.85C14.8333 3.66667 14.825 3.48333 14.825 3.3C14.8417 3.11667 14.875 2.93333 14.925 2.75C14.9583 2.61667 14.9917 2.49167 15.025 2.375C15.0583 2.25833 15.1333 2.13333 15.25 2C15.3833 1.83333 15.5667 1.71667 15.8 1.65C16.05 1.58333 16.3167 1.56667 16.6 1.6C17.1333 1.68333 17.475 1.89167 17.625 2.225C17.725 2.425 17.7833 2.675 17.8 2.975C17.8333 3.25833 17.85 3.43333 17.85 3.5V11.425H17.825C17.825 11.4417 17.8167 11.5 17.8 11.6C17.7833 11.7 17.75 11.825 17.7 11.975C17.65 12.1083 17.575 12.25 17.475 12.4C17.375 12.55 17.2417 12.675 17.075 12.775C16.8417 12.9083 16.6083 12.975 16.375 12.975C16.0917 12.975 15.8167 12.8833 15.55 12.7C15.35 12.5667 15.2083 12.4 15.125 12.2C15.025 12.0167 14.9583 11.8333 14.925 11.65C14.8917 11.4667 14.8667 11.2833 14.85 11.1V9.05H14.25ZM5.7 18.025C5.55 18.025 5.38333 18.025 5.2 18.025C5.03333 18.0083 4.88333 18.0167 4.75 18.05C4.61667 18.0667 4.5 18.1167 4.4 18.2C4.31667 18.2667 4.275 18.375 4.275 18.525C4.275 18.7083 4.28333 18.8417 4.3 18.925C4.38333 19.2083 4.50833 19.3583 4.675 19.375C4.85833 19.375 5.05833 19.3667 5.275 19.35C5.74167 19.35 6.25 19.3583 6.8 19.375C7.35 19.375 7.875 19.3833 8.375 19.4C8.425 19.4 8.58333 19.4 8.85 19.4C9.13333 19.4 9.46667 19.4 9.85 19.4C10.25 19.3833 10.675 19.375 11.125 19.375C11.5917 19.375 12.0167 19.375 12.4 19.375C12.8 19.3583 13.1333 19.35 13.4 19.35C13.6833 19.35 13.85 19.35 13.9 19.35C13.9833 19.35 14.0833 19.3583 14.2 19.375C14.3167 19.3917 14.425 19.3917 14.525 19.375C14.625 19.3583 14.7083 19.3167 14.775 19.25C14.8417 19.1833 14.875 19.0833 14.875 18.95C14.875 18.8167 14.8833 18.7 14.9 18.6C14.9167 18.5 14.875 18.3917 14.775 18.275C14.6583 18.1417 14.5167 18.0667 14.35 18.05C14.2 18.0333 14.0417 18.0333 13.875 18.05C13.8583 18.05 13.6417 18.05 13.225 18.05C12.8083 18.05 12.3 18.05 11.7 18.05C11.1 18.05 10.45 18.05 9.75 18.05C9.05 18.0333 8.4 18.025 7.8 18.025C7.21667 18.025 6.71667 18.025 6.3 18.025C5.9 18.025 5.7 18.025 5.7 18.025ZM36.7631 17.275C36.8131 17.2917 36.8631 17.3 36.9131 17.3C36.9631 17.2833 37.0131 17.275 37.0631 17.275C37.3464 17.3083 37.6048 17.3667 37.8381 17.45C38.0881 17.5167 38.3298 17.6583 38.5631 17.875C38.7964 18.075 38.9131 18.3583 38.9131 18.725C38.9131 18.9083 38.8798 19.1083 38.8131 19.325C38.7631 19.525 38.6881 19.6833 38.5881 19.8C38.4548 19.9333 38.2881 20.0333 38.0881 20.1C37.9048 20.1667 37.7131 20.2167 37.5131 20.25C37.3298 20.2667 37.1631 20.275 37.0131 20.275C36.8798 20.275 36.8048 20.275 36.7881 20.275H22.9631C22.8798 20.275 22.7964 20.2833 22.7131 20.3C22.6464 20.3 22.5714 20.3 22.4881 20.3C22.1214 20.3167 21.7381 20.3167 21.3381 20.3C20.9381 20.2667 20.5964 20.1333 20.3131 19.9C19.9631 19.5833 19.7881 19.225 19.7881 18.825C19.7881 18.575 19.8631 18.3167 20.0131 18.05C20.1631 17.7833 20.3631 17.6 20.6131 17.5C20.9464 17.3667 21.2881 17.3 21.6381 17.3C22.0048 17.3 22.3714 17.2917 22.7381 17.275H22.8631C23.1464 17.275 23.4381 17.275 23.7381 17.275C24.0381 17.2583 24.3381 17.25 24.6381 17.25C24.6214 17.1833 24.6131 17.1 24.6131 17V16.9V14.975C24.6131 14.825 24.6381 14.6667 24.6881 14.5C24.7214 14.3667 24.7798 14.225 24.8631 14.075C24.9631 13.925 25.1048 13.7833 25.2881 13.65C25.5048 13.5 25.7464 13.4083 26.0131 13.375C26.2798 13.3417 26.5298 13.3667 26.7631 13.45C27.0131 13.5333 27.2214 13.675 27.3881 13.875C27.5714 14.0583 27.6714 14.2917 27.6881 14.575C27.6881 14.6917 27.6881 14.8583 27.6881 15.075C27.7048 15.275 27.7131 15.5 27.7131 15.75C27.7298 15.9833 27.7381 16.2333 27.7381 16.5C27.7381 16.7667 27.7381 17.025 27.7381 17.275H30.1381H30.4131C30.3964 17.2083 30.3881 17.1167 30.3881 17V16.9V14.975C30.3881 14.825 30.4131 14.6667 30.4631 14.5C30.4964 14.3667 30.5548 14.225 30.6381 14.075C30.7381 13.925 30.8798 13.7833 31.0631 13.65C31.2798 13.5 31.5214 13.4083 31.7881 13.375C32.0548 13.3417 32.3048 13.3667 32.5381 13.45C32.7881 13.5333 32.9964 13.675 33.1631 13.875C33.3464 14.0583 33.4464 14.2917 33.4631 14.575C33.4631 14.6917 33.4631 14.8583 33.4631 15.075C33.4798 15.275 33.4881 15.5 33.4881 15.75C33.5048 15.9833 33.5131 16.2333 33.5131 16.5C33.5131 16.7667 33.5131 17.025 33.5131 17.275H34.9381C35.2381 17.2917 35.5464 17.2917 35.8631 17.275C36.1964 17.2417 36.4964 17.2417 36.7631 17.275ZM25.3881 12.5C25.0714 12.7833 24.7214 13.075 24.3381 13.375C23.9714 13.675 23.5714 13.8917 23.1381 14.025C22.8381 14.1083 22.5131 14.1 22.1631 14C21.8131 13.9 21.5464 13.725 21.3631 13.475C21.2298 13.275 21.1631 13.0833 21.1631 12.9C21.1631 12.7167 21.1964 12.5417 21.2631 12.375C21.3464 12.1917 21.4464 12.0167 21.5631 11.85C21.6798 11.6833 21.8048 11.525 21.9381 11.375C22.4381 10.7917 22.9298 10.2417 23.4131 9.725C23.9131 9.20833 24.4464 8.7 25.0131 8.2C25.1964 8.05 25.4381 7.83333 25.7381 7.55C26.0381 7.26667 26.3298 6.98333 26.6131 6.7C26.9464 6.38333 27.3048 6.03333 27.6881 5.65C27.6548 5.2 27.6464 4.76667 27.6631 4.35C27.6798 4 27.7214 3.65 27.7881 3.3C27.8548 2.95 27.9798 2.68333 28.1631 2.5C28.3798 2.3 28.6881 2.175 29.0881 2.125C29.4881 2.05833 29.8214 2.06667 30.0881 2.15C30.4714 2.26667 30.7631 2.43333 30.9631 2.65C31.1631 2.85 31.2798 3.15 31.3131 3.55C31.3298 3.7 31.3298 3.88333 31.3131 4.1C31.2964 4.3 31.2881 4.50833 31.2881 4.725C31.2881 4.94167 31.3048 5.15 31.3381 5.35C31.3714 5.53333 31.4381 5.68333 31.5381 5.8C31.8381 6.2 32.1881 6.61667 32.5881 7.05C33.0048 7.48333 33.4298 7.925 33.8631 8.375C34.3131 8.825 34.7548 9.28333 35.1881 9.75C35.6214 10.2 36.0298 10.65 36.4131 11.1C36.5964 11.3167 36.7798 11.5667 36.9631 11.85C37.1464 12.1167 37.2714 12.3833 37.3381 12.65C37.4214 12.9167 37.4214 13.175 37.3381 13.425C37.2548 13.675 37.0381 13.8833 36.6881 14.05C36.4381 14.1667 36.1881 14.2167 35.9381 14.2C35.7048 14.1833 35.4714 14.125 35.2381 14.025C35.0048 13.925 34.7881 13.8 34.5881 13.65C34.3881 13.5 34.2048 13.3417 34.0381 13.175L29.5131 9.025L25.3881 12.5ZM47.4303 2.95V2.075C47.4303 1.85833 47.4553 1.65833 47.5053 1.475C47.5386 1.30833 47.5969 1.14167 47.6803 0.974999C47.7803 0.791666 47.9219 0.633332 48.1053 0.499999C48.3219 0.349999 48.5803 0.266665 48.8803 0.249999C49.1803 0.233332 49.4636 0.274999 49.7303 0.374999C50.0136 0.474999 50.2553 0.633332 50.4553 0.849999C50.6553 1.06667 50.7553 1.325 50.7553 1.625L50.7803 2.95H52.7553C52.8719 2.98333 53.0553 2.99167 53.3053 2.975C53.5553 2.95833 53.7386 2.95 53.8553 2.95C54.1553 2.95 54.4719 2.95 54.8053 2.95C55.1386 2.93333 55.4469 2.95833 55.7303 3.025C56.0136 3.09167 56.2553 3.225 56.4553 3.425C56.6553 3.625 56.7719 3.93333 56.8053 4.35C56.8553 4.8 56.7886 5.14167 56.6053 5.375C56.4386 5.59167 56.2053 5.75 55.9053 5.85C55.6219 5.93333 55.3053 5.96667 54.9553 5.95C54.6219 5.93333 54.3136 5.91667 54.0303 5.9L50.9803 5.925L51.0053 7.125C51.0053 7.25833 51.0053 7.375 51.0053 7.475C51.0053 7.575 51.0219 7.69167 51.0553 7.825C51.1053 8.00833 51.1803 8.16667 51.2803 8.3C51.3969 8.41667 51.5136 8.54167 51.6303 8.675C51.8803 8.95833 52.1636 9.24167 52.4803 9.525C52.7969 9.79167 53.1219 10.0667 53.4553 10.35C53.8053 10.6167 54.1386 10.8833 54.4553 11.15C54.7886 11.4167 55.0886 11.6833 55.3553 11.95C55.6719 12.2833 55.9553 12.6333 56.2053 13C56.4719 13.3667 56.5386 13.8083 56.4053 14.325C56.3053 14.6583 56.1386 14.8833 55.9053 15C55.6719 15.1 55.4136 15.1333 55.1303 15.1C54.8636 15.05 54.5803 14.9667 54.2803 14.85C53.9969 14.7167 53.7553 14.5833 53.5553 14.45C52.7553 13.9333 52.0136 13.3833 51.3303 12.8C50.6469 12.2167 49.9636 11.6083 49.2803 10.975C49.2636 10.9583 49.1386 11.0417 48.9053 11.225C48.6719 11.4083 48.3969 11.6417 48.0803 11.925C47.7636 12.1917 47.4303 12.475 47.0803 12.775C46.7303 13.0583 46.4219 13.3083 46.1553 13.525C45.8886 13.725 45.5553 13.95 45.1553 14.2C44.7553 14.4333 44.3469 14.625 43.9303 14.775C43.5303 14.925 43.1386 15 42.7553 15C42.3719 14.9833 42.0719 14.825 41.8553 14.525C41.6386 14.1917 41.5386 13.9 41.5553 13.65C41.5719 13.3833 41.6553 13.1417 41.8053 12.925C41.9553 12.7083 42.1553 12.5 42.4053 12.3C42.6553 12.1 42.9136 11.9 43.1803 11.7C43.7303 11.2833 44.3386 10.8083 45.0053 10.275C45.6719 9.74167 46.2886 9.19167 46.8553 8.625C47.0886 8.39167 47.2136 8.18333 47.2303 8C47.2636 7.8 47.2803 7.54167 47.2803 7.225L47.3053 5.875H44.5803C44.0136 5.90833 43.5136 5.89167 43.0803 5.825C42.6969 5.75833 42.3386 5.64167 42.0053 5.475C41.6886 5.29167 41.5136 5.00833 41.4803 4.625C41.4636 4.44167 41.4719 4.25833 41.5053 4.075C41.5386 3.875 41.5969 3.7 41.6803 3.55C41.7636 3.38333 41.8803 3.25 42.0303 3.15C42.1803 3.03333 42.3553 2.96667 42.5553 2.95C42.6719 2.93333 42.7886 2.925 42.9053 2.925C43.0386 2.925 43.1803 2.925 43.3303 2.925C43.3803 2.925 43.4886 2.925 43.6553 2.925C43.8386 2.925 44.0386 2.93333 44.2553 2.95C44.4719 2.95 44.6719 2.95 44.8553 2.95C45.0386 2.95 45.1636 2.95 45.2303 2.95H47.4303ZM42.0553 20.175C41.7886 20.1583 41.5219 20.125 41.2553 20.075C41.0053 20.0083 40.7803 19.925 40.5803 19.825C40.3803 19.7083 40.2136 19.55 40.0803 19.35C39.9636 19.15 39.9053 18.8833 39.9053 18.55C39.9053 18.2167 40.0136 17.925 40.2303 17.675C40.3636 17.5417 40.5303 17.4417 40.7303 17.375C40.9303 17.3083 41.1219 17.2583 41.3053 17.225C41.4886 17.1917 41.6469 17.175 41.7803 17.175C41.9303 17.175 42.0136 17.175 42.0303 17.175L55.7053 17.2C56.1386 17.2 56.5303 17.2083 56.8803 17.225C57.2469 17.225 57.5719 17.3417 57.8553 17.575C58.2053 17.8917 58.3803 18.25 58.3803 18.65C58.3803 18.9 58.3053 19.1333 58.1553 19.35C58.0053 19.55 57.8053 19.6917 57.5553 19.775C57.2219 19.9083 56.8719 20 56.5053 20.05C56.1553 20.1 55.8053 20.1333 55.4553 20.15C54.2386 20.2 53.0386 20.2167 51.8553 20.2C50.6719 20.1833 49.5219 20.175 48.4053 20.175C47.2053 20.175 46.0303 20.1833 44.8803 20.2C43.7469 20.2167 42.8053 20.2083 42.0553 20.175Z" fill="#3D3D3D"/>
</svg>
