<svg width="18" height="17" viewBox="0 0 18 17" fill="none" xmlns="http://www.w3.org/2000/svg">
<path fill-rule="evenodd" clip-rule="evenodd" d="M8.57487 1.42572C6.24095 0.0253707 3.38656 -0.203344 0.859441 0.807505C0.49136 0.954738 0.25 1.31123 0.25 1.70767V11.4234C0.25 12.0742 0.9073 12.5192 1.51156 12.2775C3.58101 11.4497 5.91846 11.637 7.8297 12.7838L8.77576 13.3514C8.84791 13.3947 8.92509 13.4136 9 13.4123C9.07491 13.4136 9.15209 13.3947 9.22424 13.3514L10.1703 12.7838C12.0815 11.637 14.419 11.4497 16.4884 12.2775C17.0927 12.5192 17.75 12.0742 17.75 11.4234V1.70767C17.75 1.31123 17.5086 0.954738 17.1406 0.807505C14.6134 -0.203344 11.759 0.0253707 9.42513 1.42572L9 1.6808L8.57487 1.42572ZM9.625 3.41671C9.625 3.07153 9.34518 2.79171 9 2.79171C8.65482 2.79171 8.375 3.07153 8.375 3.41671V11.3334C8.375 11.6786 8.65482 11.9584 9 11.9584C9.34518 11.9584 9.625 11.6786 9.625 11.3334V3.41671Z" fill="#5DCCC6"/>
<path d="M1.2707 13.8686C2.95725 12.8848 5.04275 12.8848 6.7293 13.8686L7.63535 14.3971C8.47862 14.889 9.52138 14.889 10.3647 14.3971L11.2707 13.8686C12.9572 12.8848 15.0428 12.8848 16.7293 13.8686L16.8149 13.9185C17.1131 14.0924 17.2138 14.4751 17.0399 14.7733C16.8659 15.0715 16.4832 15.1722 16.1851 14.9982L16.0995 14.9483C14.8021 14.1915 13.1979 14.1915 11.9005 14.9483L10.9945 15.4768C9.76201 16.1958 8.23799 16.1958 7.00551 15.4768L6.09946 14.9483C4.80212 14.1915 3.19788 14.1915 1.90054 14.9483L1.81492 14.9982C1.51676 15.1722 1.13406 15.0715 0.960138 14.7733C0.786213 14.4751 0.886923 14.0924 1.18508 13.9185L1.2707 13.8686Z" fill="#5DCCC6"/>
</svg>
