<svg width="21" height="21" viewBox="0 0 21 21" fill="none" xmlns="http://www.w3.org/2000/svg">
<path fill-rule="evenodd" clip-rule="evenodd" d="M10.5 1.96875C10.8624 1.96875 11.1562 2.26256 11.1562 2.625V4.14479C12.4087 4.16198 13.6607 4.22841 14.9093 4.34406L15.1994 4.37094C17.1811 4.5545 18.707 6.20007 18.7407 8.18991L18.7513 8.81419C18.7924 11.2422 18.5967 13.6684 18.1669 16.0584C17.9713 17.146 17.0248 17.9375 15.9197 17.9375H15.7263C14.7319 17.9375 13.8308 17.3515 13.4277 16.4424L12.4996 14.3501C11.7305 12.6159 9.26949 12.6159 8.50036 14.3501L7.57233 16.4424C7.16915 17.3515 6.26814 17.9375 5.27371 17.9375H5.08029C3.97516 17.9375 3.02867 17.146 2.83307 16.0584C2.40327 13.6684 2.20756 11.2422 2.24871 8.81419L2.25929 8.18991C2.29302 6.20008 3.81894 4.5545 5.80058 4.37094L6.09073 4.34406C7.33929 4.22841 8.59127 4.16198 9.84375 4.14479V2.625C9.84375 2.26256 10.1376 1.96875 10.5 1.96875ZM14.875 7C14.875 6.51675 14.4832 6.125 14 6.125C13.5167 6.125 13.125 6.51675 13.125 7V7.21875C13.125 7.702 13.5167 8.09375 14 8.09375C14.4832 8.09375 14.875 7.702 14.875 7.21875V7ZM7 6.34375C7.36243 6.34375 7.65625 6.63756 7.65625 7V8.09375H8.75C9.11243 8.09375 9.40625 8.38756 9.40625 8.75C9.40625 9.11244 9.11243 9.40625 8.75 9.40625H7.65625V10.5C7.65625 10.8624 7.36243 11.1563 7 11.1563C6.63756 11.1563 6.34375 10.8624 6.34375 10.5V9.40625H5.25C4.88756 9.40625 4.59375 9.11244 4.59375 8.75C4.59375 8.38756 4.88756 8.09375 5.25 8.09375L6.34375 8.09375V7C6.34375 6.63756 6.63756 6.34375 7 6.34375ZM14 9.40625C14.4832 9.40625 14.875 9.798 14.875 10.2813V10.5C14.875 10.9832 14.4832 11.375 14 11.375C13.5167 11.375 13.125 10.9832 13.125 10.5V10.2813C13.125 9.798 13.5167 9.40625 14 9.40625ZM15.75 9.625C16.2332 9.625 16.625 9.23325 16.625 8.75C16.625 8.26675 16.2332 7.875 15.75 7.875H15.5312C15.048 7.875 14.6562 8.26675 14.6562 8.75C14.6562 9.23325 15.048 9.625 15.5312 9.625H15.75ZM13.3437 8.75C13.3437 9.23325 12.952 9.625 12.4687 9.625H12.25C11.7667 9.625 11.375 9.23325 11.375 8.75C11.375 8.26675 11.7667 7.875 12.25 7.875H12.4687C12.952 7.875 13.3437 8.26675 13.3437 8.75Z" fill="#5DCCC6"/>
</svg>
