<svg width="20" height="20" viewBox="0 0 20 20" fill="none" xmlns="http://www.w3.org/2000/svg">
<path fill-rule="evenodd" clip-rule="evenodd" d="M10 19C14.9706 19 19 14.9706 19 10C19 5.02944 14.9706 1 10 1C5.02944 1 1 5.02944 1 10C1 14.9706 5.02944 19 10 19Z" fill="#5DCCC6"/>
<path d="M4.01088 3.4563C4.01088 3.4563 8.98146 4.81641 12.2103 8.62904C15.4391 12.4417 16.3525 16.3821 16.3525 16.3821" stroke="white" stroke-linecap="round" stroke-linejoin="round"/>
<path d="M10.9391 1.36011C10.9391 1.36011 11.406 4.57449 8.34136 7.70547C5.27672 10.8364 1.1599 11.3407 1.1599 11.3407" stroke="white" stroke-linecap="round" stroke-linejoin="round"/>
<path d="M9.72151 18.8736C9.72151 18.8736 9.72151 15.5306 12.5075 11.9217C15.2935 8.31282 18.8866 8.76498 18.8866 8.76498" stroke="white" stroke-linecap="round" stroke-linejoin="round"/>
</svg>
