<svg width="166" height="110" viewBox="0 0 166 110" fill="none" xmlns="http://www.w3.org/2000/svg">
<path d="M2.30307 100.884C4.34707 100.492 6.11107 99.288 6.92307 97.664C7.74907 99.274 9.52707 100.45 11.6131 100.842L12.2011 99.694C9.69507 99.302 7.67907 97.594 7.67907 95.69V95.662H11.6971V94.5H2.14907V95.662H6.16707V95.69C6.16707 97.594 4.16507 99.344 1.70107 99.736L2.30307 100.884ZM7.66507 103.348V100.394H6.20907V103.348H1.21107V104.524H12.6631V103.348H7.66507ZM22.056 94.906H18.962V93.45H17.52V94.906H14.412V96.068H22.056V94.906ZM16.526 99.036C16.526 98.266 17.226 97.79 18.248 97.79C19.256 97.79 19.956 98.266 19.956 99.036C19.956 99.82 19.256 100.296 18.248 100.296C17.226 100.296 16.526 99.82 16.526 99.036ZM18.962 101.346C20.39 101.122 21.328 100.268 21.328 99.036C21.328 97.622 20.068 96.684 18.248 96.684C16.414 96.684 15.154 97.622 15.154 99.036C15.154 100.254 16.092 101.122 17.52 101.346V102.578C16.33 102.62 15.168 102.62 14.16 102.62L14.342 103.81C16.638 103.81 19.634 103.768 22.42 103.292L22.322 102.242C21.244 102.396 20.096 102.466 18.962 102.536V101.346ZM23.036 93.422V106.078H24.492V93.422H23.036ZM27.5849 94.766V95.942H32.0089C31.7149 98.854 30.0489 101.08 26.9549 102.662L27.7529 103.768C31.8829 101.682 33.4509 98.434 33.4509 94.766H27.5849ZM38.6729 98.42H36.7549V93.422H35.3129V106.064H36.7549V99.624H38.6729V98.42ZM49.9838 96.796H42.7878V93.674H41.3458V97.958H49.9838V96.796ZM45.5318 104.93C43.6838 104.93 42.6478 104.496 42.6478 103.726C42.6478 102.928 43.6838 102.522 45.5318 102.522C47.3798 102.522 48.4298 102.928 48.4298 103.726C48.4298 104.496 47.3798 104.93 45.5318 104.93ZM45.5318 101.388C42.8298 101.388 41.1778 102.242 41.1778 103.726C41.1778 105.196 42.8298 106.05 45.5318 106.05C48.2478 106.05 49.8858 105.196 49.8858 103.726C49.8858 102.242 48.2478 101.388 45.5318 101.388ZM39.8478 99.232V100.408H51.2858V99.232H39.8478ZM60.2027 94.878H57.1927V93.422H55.7507V94.878H52.7407V96.026H60.2027V94.878ZM54.7847 99.008C54.7847 98.21 55.4707 97.734 56.4647 97.734C57.4727 97.734 58.1587 98.21 58.1587 99.008C58.1587 99.806 57.4727 100.282 56.4647 100.282C55.4707 100.282 54.7847 99.806 54.7847 99.008ZM59.5307 99.008C59.5307 97.58 58.2847 96.614 56.4647 96.614C54.6587 96.614 53.3987 97.58 53.3987 99.008C53.3987 100.45 54.6587 101.402 56.4647 101.402C58.2847 101.402 59.5307 100.45 59.5307 99.008ZM56.0447 102.186H54.5887V105.84H63.1007V104.664H56.0447V102.186ZM62.5967 97.468V93.436H61.1547V102.914H62.5967V98.658H64.3887V97.468H62.5967ZM70.2901 97.202C70.2901 96.096 71.1021 95.368 72.2221 95.368C73.3141 95.368 74.1261 96.096 74.1261 97.202C74.1261 98.294 73.3141 99.022 72.2221 99.022C71.1021 99.022 70.2901 98.294 70.2901 97.202ZM77.7801 96.348V98.056H75.3721C75.4561 97.79 75.4981 97.51 75.4981 97.202C75.4981 96.894 75.4561 96.614 75.3861 96.348H77.7801ZM77.7801 99.218V100.884H79.2221V93.422H77.7801V95.172H74.7281C74.1401 94.542 73.2581 94.15 72.2221 94.15C70.3321 94.15 68.9181 95.41 68.9181 97.202C68.9181 98.98 70.3321 100.24 72.2221 100.24C73.2441 100.24 74.1401 99.862 74.7281 99.218H77.7801ZM75.0081 104.944C73.2161 104.944 72.1661 104.482 72.1661 103.614C72.1661 102.774 73.2161 102.298 75.0081 102.298C76.8141 102.298 77.8501 102.774 77.8501 103.614C77.8501 104.482 76.8141 104.944 75.0081 104.944ZM75.0081 101.164C72.3761 101.164 70.7521 102.074 70.7521 103.614C70.7521 105.168 72.3761 106.078 75.0081 106.078C77.6401 106.078 79.2781 105.168 79.2781 103.614C79.2781 102.074 77.6401 101.164 75.0081 101.164ZM88.979 99.218C87.103 98.602 86.025 97.062 86.025 95.438V94.08H84.569V95.326C84.569 97.146 83.491 98.868 81.503 99.554L82.273 100.702C83.729 100.17 84.765 99.078 85.325 97.706C85.857 98.896 86.865 99.862 88.223 100.352L88.979 99.218ZM87.425 104.944C85.661 104.944 84.639 104.51 84.639 103.698C84.639 102.914 85.661 102.466 87.425 102.466C89.189 102.466 90.211 102.914 90.211 103.698C90.211 104.51 89.189 104.944 87.425 104.944ZM87.425 101.332C84.821 101.332 83.211 102.214 83.211 103.698C83.211 105.196 84.821 106.078 87.425 106.078C90.043 106.078 91.639 105.196 91.639 103.698C91.639 102.214 90.043 101.332 87.425 101.332ZM91.499 96.558V93.422H90.057V101.024H91.499V97.748H93.291V96.558H91.499ZM103.454 93.422V106.106H104.91V93.422H103.454ZM98.1759 94.36C96.2999 94.36 94.9279 96.096 94.9279 98.812C94.9279 101.556 96.2999 103.278 98.1759 103.278C100.066 103.278 101.438 101.556 101.438 98.812C101.438 96.096 100.066 94.36 98.1759 94.36ZM98.1759 95.662C99.2819 95.662 100.052 96.852 100.052 98.812C100.052 100.8 99.2819 101.99 98.1759 101.99C97.0839 101.99 96.3139 100.8 96.3139 98.812C96.3139 96.852 97.0839 95.662 98.1759 95.662ZM112.085 96.894C112.085 95.844 112.883 95.158 113.989 95.158C115.095 95.158 115.907 95.844 115.907 96.894C115.907 97.958 115.095 98.658 113.989 98.658C112.883 98.658 112.085 97.958 112.085 96.894ZM119.561 97.468V100.128H121.003V93.45H119.561V96.278H117.209C116.929 94.892 115.655 93.968 113.989 93.968C112.099 93.968 110.699 95.172 110.699 96.894C110.699 98.644 112.099 99.848 113.989 99.848C115.669 99.848 116.943 98.896 117.223 97.468H119.561ZM115.095 104.818H113.289V103.348H115.095V104.818ZM115.095 100.856V102.284H113.289V100.856H111.945V105.924H116.425V100.856H115.095ZM120.093 100.758H118.665V101.766C118.665 103.012 117.951 104.328 116.425 104.958L117.153 106.05C118.231 105.602 118.945 104.79 119.365 103.838C119.757 104.804 120.485 105.616 121.605 106.05L122.319 104.958C120.793 104.398 120.093 103.11 120.093 101.766V100.758ZM134.232 97.216C131.726 96.894 129.864 95.508 129.864 94.052V93.562H128.38V94.052C128.38 95.522 126.546 96.894 124.012 97.216L124.544 98.336C126.602 98.056 128.31 97.104 129.122 95.788C129.948 97.104 131.656 98.056 133.714 98.336L134.232 97.216ZM131.936 104.776H126.238V103.418H131.936V104.776ZM131.936 102.312H126.238V101.024H124.81V105.924H133.378V101.024H131.936V102.312ZM123.396 99.092V100.24H134.848V99.092H123.396ZM138.459 94.668H137.031V102.886H138.109C140.069 102.886 142.113 102.732 144.283 102.284L144.129 101.08C142.141 101.486 140.251 101.64 138.459 101.654V94.668ZM145.291 93.436V106.078H146.733V93.436H145.291ZM151.114 95.802H155.552V94.626H149.672V102.984H150.708C152.99 102.984 154.698 102.914 156.616 102.564L156.462 101.374C154.698 101.682 153.158 101.766 151.114 101.78V95.802ZM160.928 98.294H158.954V93.422H157.512V106.092H158.954V99.484H160.928V98.294ZM163.419 105.182C164.021 105.182 164.497 104.72 164.497 104.062C164.497 103.404 164.021 102.914 163.419 102.914C162.817 102.914 162.341 103.404 162.341 104.062C162.341 104.72 162.817 105.182 163.419 105.182Z" fill="#CBCBCB"/>
<path fill-rule="evenodd" clip-rule="evenodd" d="M58.4399 18.9819L100.462 4.0265L100.472 4.05499C106.948 2.25094 113.944 6.09234 116.388 12.9592C118.832 19.826 115.836 27.2234 109.676 29.9164L109.686 29.9446L108.94 30.21C108.92 30.2174 108.899 30.2249 108.878 30.2323C108.857 30.2397 108.837 30.247 108.816 30.2542L68.545 44.5864L68.4724 44.6125L68.3996 44.6382L67.664 44.9L67.654 44.8718C61.178 46.6757 54.1824 42.8343 51.7386 35.9676C49.2948 29.1008 52.2906 21.7036 58.4501 19.0105L58.4399 18.9819Z" fill="#C4C4C4" fill-opacity="0.5"/>
<path fill-rule="evenodd" clip-rule="evenodd" d="M57.314 54.5724L99.3373 39.6165L99.3476 39.6453C105.824 37.8413 112.82 41.6826 115.264 48.5494C117.707 55.4162 114.711 62.8135 108.552 65.5067L108.561 65.5346L107.853 65.7866C107.82 65.7987 107.787 65.8107 107.753 65.8226C107.72 65.8345 107.687 65.8463 107.653 65.8578L67.3998 80.1838L67.3463 80.203L67.2926 80.2219L66.5381 80.4905L66.5281 80.4623C60.0518 82.2663 53.0559 78.4249 50.6121 71.5582C48.1682 64.6914 51.1643 57.294 57.3241 54.6009L57.314 54.5724Z" fill="#C4C4C4" fill-opacity="0.5"/>
<path fill-rule="evenodd" clip-rule="evenodd" d="M73.8048 21.3473L110.333 41.8446L110.389 41.8754L110.444 41.9064L111.188 42.324L111.173 42.3501C117.195 46.2698 119.22 54.2458 115.653 60.6024C113.473 64.4879 109.687 66.9053 105.593 67.4903L92.8895 71.1492C95.3066 68.3201 95.188 65.7924 93.0989 63.7195L56.14 42.9808L56.1548 42.9544C50.1335 39.0346 48.1086 31.0588 51.6753 24.7025C53.5807 21.3068 56.7121 19.0324 60.2043 18.1224L74.9599 13.0839C71.4835 15.3399 71.8911 19.7853 73.8048 21.3473Z" fill="#C4C4C4"/>
</svg>
